999
dxflib 3.12.2.0
  0
SECTION
  2
HEADER
  9
$ACADVER
  1
AC1015
  9
$HANDSEED
  5
FFFF
  9
$ANGBASE
 50
0.0
  9
$ATTMODE
 70
1
  9
$AUNITS
 70
0
  9
$AUPREC
 70
0
  9
$CELTSCALE
 40
1.0
  9
$CHAMFERA
 40
0.0
  9
$CHAMFERB
 40
0.0
  9
$CHAMFERC
 40
0.0
  9
$CHAMFERD
 40
0.0
  9
$CMLJUST
 70
0
  9
$CMLSCALE
 40
1.0
  9
$DIMADEC
 70
0
  9
$DIMALTD
 70
2
  9
$DIMALTF
 40
25.3999999999999986
  9
$DIMALTRND
 40
0.0
  9
$DIMALTTD
 70
2
  9
$DIMALTTZ
 70
0
  9
$DIMALTU
 70
2
  9
$DIMALTZ
 70
0
  9
$DIMAPOST
  1

  9
$DIMASZ
 40
0.125
  9
$DIMATFIT
 70
3
  9
$DIMAUNIT
 70
0
  9
$DIMAZIN
 70
2
  9
$DIMCEN
 40
0.09
  9
$DIMDEC
 70
4
  9
$DIMDLE
 40
0.0
  9
$DIMDLI
 40
0.38
  9
$DIMDSEP
 70
46
  9
$DIMEXE
 40
0.0625
  9
$DIMEXO
 40
0.03125
  9
$DIMFRAC
 70
0
  9
$DIMGAP
 40
0.03125
  9
$DIMJUST
 70
0
  9
$DIMLFAC
 40
1.0
  9
$DIMLUNIT
 70
3
  9
$DIMLWD
 70
-2
  9
$DIMLWE
 70
-2
  9
$DIMPOST
  1

  9
$DIMRND
 40
0.0
  9
$DIMSCALE
 40
1.0
  9
$DIMTAD
 70
0
  9
$DIMTDEC
 70
4
  9
$DIMTFAC
 40
1.0
  9
$DIMTM
 40
0.0
  9
$DIMTOLJ
 70
1
  9
$DIMTP
 40
0.0
  9
$DIMTSZ
 40
0.0
  9
$DIMTVP
 40
0.0
  9
$DIMTXT
 40
0.125
  9
$DIMTZIN
 70
0
  9
$DIMZIN
 70
8
  9
$DWGCODEPAGE
  3
ANSI_1252
  9
$ELEVATION
 40
0.0
  9
$EXTMAX
 10
-100000000000000000000.0
 20
-100000000000000000000.0
 30
-100000000000000000000.0
  9
$EXTMIN
 10
100000000000000000000.0
 20
100000000000000000000.0
 30
100000000000000000000.0
  9
$FILLETRAD
 40
0.5
  9
$INSBASE
 10
0.0
 20
0.0
 30
0.0
  9
$INSUNITS
 70
1
  9
$LIMMAX
 10
12.0
 20
9.0
  9
$LIMMIN
 10
0.0
 20
0.0
  9
$LTSCALE
 40
1.0
  9
$LUNITS
 70
2
  9
$LUPREC
 70
4
  9
$MAXACTVP
 70
2
  9
$MEASUREMENT
 70
0
  9
$PDMODE
 70
0
  9
$PDSIZE
 40
0.0
  9
$PELEVATION
 40
0.0
  9
$PEXTMAX
 10
-100000000000000000000.0
 20
-100000000000000000000.0
 30
-100000000000000000000.0
  9
$PEXTMIN
 10
100000000000000000000.0
 20
100000000000000000000.0
 30
100000000000000000000.0
  9
$PINSBASE
 10
0.0
 20
0.0
 30
0.0
  9
$PLIMMAX
 10
10.75
 20
8.25
  9
$PLIMMIN
 10
-0.25
 20
-0.25
  9
$PLINEWID
 40
0.0
  9
$PROXYGRAPHICS
 70
1
  9
$PUCSORG
 10
0.0
 20
0.0
 30
0.0
  9
$PUCSXDIR
 10
1.0
 20
0.0
 30
0.0
  9
$PUCSYDIR
 10
0.0
 20
1.0
 30
0.0
  9
$SHADEDGE
 70
3
  9
$SHADEDIF
 70
70
  9
$SKETCHINC
 40
0.1
  9
$SPLINESEGS
 70
8
  9
$SPLINETYPE
 70
6
  9
$SURFTAB1
 70
6
  9
$SURFTAB2
 70
6
  9
$SURFTYPE
 70
6
  9
$SURFU
 70
6
  9
$SURFV
 70
6
  9
$TEXTSIZE
 40
2.5
  9
$THICKNESS
 40
0.0
  9
$TRACEWID
 40
0.05
  9
$TREEDEPTH
 70
3020
  9
$UCSORG
 10
0.0
 20
0.0
 30
0.0
  9
$UCSXDIR
 10
1.0
 20
0.0
 30
0.0
  9
$UCSYDIR
 10
0.0
 20
1.0
 30
0.0
  9
$UNITMODE
 70
0
  9
$USERI1
 70
0
  9
$USERI2
 70
0
  9
$USERI3
 70
0
  9
$USERI4
 70
0
  9
$USERI5
 70
0
  9
$USERR1
 40
0.0
  9
$USERR2
 40
0.0
  9
$USERR3
 40
0.0
  9
$USERR4
 40
0.0
  9
$USERR5
 40
0.0
  0
ENDSEC
  0
SECTION
  2
TABLES
  0
TABLE
  2
VPORT
  5
8
100
AcDbSymbolTable
 70
1
  0
VPORT
  5
30
100
AcDbSymbolTableRecord
100
AcDbViewportTableRecord
  2
*Active
 70
0
 10
0.0
 20
0.0
 11
1.0
 21
1.0
 12
286.3055555555554861
 22
148.5
 13
0.0
 23
0.0
 14
10.0
 24
10.0
 15
10.0
 25
10.0
 16
0.0
 26
0.0
 36
1.0
 17
0.0
 27
0.0
 37
0.0
 40
297.0
 41
1.92798353909465
 42
50.0
 43
0.0
 44
0.0
 50
0.0
 51
0.0
 71
0
 72
100
 73
1
 74
3
 75
1
 76
1
 77
0
 78
0
281
0
 65
1
110
0.0
120
0.0
130
0.0
111
1.0
121
0.0
131
0.0
112
0.0
122
1.0
132
0.0
 79
0
146
0.0
  0
ENDTAB
  0
TABLE
  2
LTYPE
  5
5
100
AcDbSymbolTable
 70
54
  0
LTYPE
  5
16
100
AcDbSymbolTableRecord
100
AcDbLinetypeTableRecord
  2
Continuous
 70
0
  3
Solid line
 72
65
 73
0
 40
0.0
  0
LTYPE
  5
31
100
AcDbSymbolTableRecord
100
AcDbLinetypeTableRecord
  2
ACAD_ISO15W100
 70
0
  3
ISO double-dash triple-dot __ __ . . . __ __ . .
 72
65
 73
10
 40
39.0
 49
12.0
 74
0
 49
-3.0
 74
0
 49
12.0
 74
0
 49
-3.0
 74
0
 49
0.0
 74
0
 49
-3.0
 74
0
 49
0.0
 74
0
 49
-3.0
 74
0
 49
0.0
 74
0
 49
-3.0
 74
0
  0
LTYPE
  5
32
100
AcDbSymbolTableRecord
100
AcDbLinetypeTableRecord
  2
CUTRIGHT2
 70
0
  3
G42 reversed----\----\----\----
 72
65
 73
2
 40
10.1600000000000001
 49
5.0800000000000001
 74
0
 49
5.0800000000000001
 74
0
  0
LTYPE
  5
33
100
AcDbSymbolTableRecord
100
AcDbLinetypeTableRecord
  2
HOT_WATER_SUPPLY
 70
0
  3
Hot water supply ---- HW ---- HW ---- HW ----
 72
65
 73
3
 40
22.8599999999999994
 49
12.6999999999999993
 74
0
 49
-5.0800000000000001
 74
0
 49
-5.0800000000000001
 74
0
  0
LTYPE
  5
34
100
AcDbSymbolTableRecord
100
AcDbLinetypeTableRecord
  2
DIVIDE
 70
0
  3
Divide ____ . . ____ . . ____ . . ____ . . ____
 72
65
 73
6
 40
31.75
 49
12.6999999999999993
 74
0
 49
-6.3499999999999996
 74
0
 49
0.0
 74
0
 49
-6.3499999999999996
 74
0
 49
0.0
 74
0
 49
-6.3499999999999996
 74
0
  0
LTYPE
  5
35
100
AcDbSymbolTableRecord
100
AcDbLinetypeTableRecord
  2
CUTRIGHT
 70
0
  3
G42 ----/----/-----/---
 72
65
 73
2
 40
10.1600000000000001
 49
5.0800000000000001
 74
0
 49
5.0800000000000001
 74
0
  0
LTYPE
  5
36
100
AcDbSymbolTableRecord
100
AcDbLinetypeTableRecord
  2
ACAD_ISO10W100
 70
0
  3
ISO dash dot __ . __ . __ . __ . __ . __ . __ . 
 72
65
 73
4
 40
18.0
 49
12.0
 74
0
 49
-3.0
 74
0
 49
0.0
 74
0
 49
-3.0
 74
0
  0
LTYPE
  5
37
100
AcDbSymbolTableRecord
100
AcDbLinetypeTableRecord
  2
CUTLEFT
 70
0
  3
G41 ----\----\----\----
 72
65
 73
2
 40
10.1600000000000001
 49
5.0800000000000001
 74
0
 49
5.0800000000000001
 74
0
  0
LTYPE
  5
38
100
AcDbSymbolTableRecord
100
AcDbLinetypeTableRecord
  2
GAS_LINE
 70
0
  3
Gas line ----GAS----GAS----GAS----GAS----GAS----GAS--
 72
65
 73
3
 40
24.129999999999999
 49
12.6999999999999993
 74
0
 49
-5.0800000000000001
 74
0
 49
-6.3499999999999996
 74
0
  0
LTYPE
  5
39
100
AcDbSymbolTableRecord
100
AcDbLinetypeTableRecord
  2
ACAD_ISO04W100
 70
0
  3
ISO long-dash dot ____ . ____ . ____ . ____ . _
 72
65
 73
4
 40
30.0
 49
24.0
 74
0
 49
-3.0
 74
0
 49
0.0
 74
0
 49
-3.0
 74
0
  0
LTYPE
  5
3A
100
AcDbSymbolTableRecord
100
AcDbLinetypeTableRecord
  2
CUTLEFT2
 70
0
  3
G41 reversed----/----/----/----
 72
65
 73
2
 40
10.1600000000000001
 49
5.0800000000000001
 74
0
 49
5.0800000000000001
 74
0
  0
LTYPE
  5
14
100
AcDbSymbolTableRecord
100
AcDbLinetypeTableRecord
  2
ByBlock
 70
0
  3

 72
65
 73
0
 40
0.0
  0
LTYPE
  5
3B
100
AcDbSymbolTableRecord
100
AcDbLinetypeTableRecord
  2
CENTER2
 70
0
  3
Center (.5x) ___ _ ___ _ ___ _ ___ _ ___ _ ___
 72
65
 73
4
 40
28.5749999999999993
 49
19.0500000000000007
 74
0
 49
-3.1749999999999998
 74
0
 49
3.1749999999999998
 74
0
 49
-3.1749999999999998
 74
0
  0
LTYPE
  5
3C
100
AcDbSymbolTableRecord
100
AcDbLinetypeTableRecord
  2
ACAD_ISO11W100
 70
0
  3
ISO double-dash dot __ __ . __ __ . __ __ . __ _
 72
65
 73
6
 40
33.0
 49
12.0
 74
0
 49
-3.0
 74
0
 49
12.0
 74
0
 49
-3.0
 74
0
 49
0.0
 74
0
 49
-3.0
 74
0
  0
LTYPE
  5
3D
100
AcDbSymbolTableRecord
100
AcDbLinetypeTableRecord
  2
HIDDEN2
 70
0
  3
Hidden (.5x) _ _ _ _ _ _ _ _ _ _ _ _ _ _ _ _ _ 
 72
65
 73
2
 40
4.7624999999999993
 49
3.1749999999999998
 74
0
 49
-1.5874999999999999
 74
0
  0
LTYPE
  5
3E
100
AcDbSymbolTableRecord
100
AcDbLinetypeTableRecord
  2
BORDERX2
 70
0
  3
Border (2x) ____  ____  .  ____  ____  .  ___
 72
65
 73
6
 40
88.8999999999999915
 49
25.3999999999999986
 74
0
 49
-12.6999999999999993
 74
0
 49
25.3999999999999986
 74
0
 49
-12.6999999999999993
 74
0
 49
0.0
 74
0
 49
-12.6999999999999993
 74
0
  0
LTYPE
  5
3F
100
AcDbSymbolTableRecord
100
AcDbLinetypeTableRecord
  2
ACAD_ISO05W100
 70
0
  3
ISO long-dash double-dot ____ .. ____ .. ____ . 
 72
65
 73
6
 40
33.0
 49
24.0
 74
0
 49
-3.0
 74
0
 49
0.0
 74
0
 49
-3.0
 74
0
 49
0.0
 74
0
 49
-3.0
 74
0
  0
LTYPE
  5
40
100
AcDbSymbolTableRecord
100
AcDbLinetypeTableRecord
  2
DASHDOTX2
 70
0
  3
Dash dot (2x) ____  .  ____  .  ____  .  ___
 72
65
 73
4
 40
50.7999999999999972
 49
25.3999999999999986
 74
0
 49
-12.6999999999999993
 74
0
 49
0.0
 74
0
 49
-12.6999999999999993
 74
0
  0
LTYPE
  5
41
100
AcDbSymbolTableRecord
100
AcDbLinetypeTableRecord
  2
HIDDENX2
 70
0
  3
Hidden (2x) ____ ____ ____ ____ ____ ____ ____ 
 72
65
 73
2
 40
19.0499999999999972
 49
12.6999999999999993
 74
0
 49
-6.3499999999999996
 74
0
  0
LTYPE
  5
42
100
AcDbSymbolTableRecord
100
AcDbLinetypeTableRecord
  2
CENTERX2
 70
0
  3
Center (2x) ________  __  ________  __  _____
 72
65
 73
4
 40
101.5999999999999943
 49
63.5
 74
0
 49
-12.6999999999999993
 74
0
 49
12.6999999999999993
 74
0
 49
-12.6999999999999993
 74
0
  0
LTYPE
  5
43
100
AcDbSymbolTableRecord
100
AcDbLinetypeTableRecord
  2
BORDER2
 70
0
  3
Border (.5x) __.__.__.__.__.__.__.__.__.__.__.
 72
65
 73
6
 40
22.2249999999999979
 49
6.3499999999999996
 74
0
 49
-3.1749999999999998
 74
0
 49
6.3499999999999996
 74
0
 49
-3.1749999999999998
 74
0
 49
0.0
 74
0
 49
-3.1749999999999998
 74
0
  0
LTYPE
  5
44
100
AcDbSymbolTableRecord
100
AcDbLinetypeTableRecord
  2
DASHDOT2
 70
0
  3
Dash dot (.5x) _._._._._._._._._._._._._._._.
 72
65
 73
4
 40
12.6999999999999993
 49
6.3499999999999996
 74
0
 49
-3.1749999999999998
 74
0
 49
0.0
 74
0
 49
-3.1749999999999998
 74
0
  0
LTYPE
  5
45
100
AcDbSymbolTableRecord
100
AcDbLinetypeTableRecord
  2
ACAD_ISO12W100
 70
0
  3
ISO dash double-dot __ . . __ . . __ . . __ . . 
 72
65
 73
6
 40
21.0
 49
12.0
 74
0
 49
-3.0
 74
0
 49
0.0
 74
0
 49
-3.0
 74
0
 49
0.0
 74
0
 49
-3.0
 74
0
  0
LTYPE
  5
46
100
AcDbSymbolTableRecord
100
AcDbLinetypeTableRecord
  2
ACAD_ISO07W100
 70
0
  3
ISO dot . . . . . . . . . . . . . . . . . . . . 
 72
65
 73
2
 40
3.0
 49
0.0
 74
0
 49
-3.0
 74
0
  0
LTYPE
  5
47
100
AcDbSymbolTableRecord
100
AcDbLinetypeTableRecord
  2
ACAD_ISO06W100
 70
0
  3
ISO long-dash triple-dot ____ ... ____ ... ____
 72
65
 73
8
 40
36.0
 49
24.0
 74
0
 49
-3.0
 74
0
 49
0.0
 74
0
 49
-3.0
 74
0
 49
0.0
 74
0
 49
-3.0
 74
0
 49
0.0
 74
0
 49
-3.0
 74
0
  0
LTYPE
  5
48
100
AcDbSymbolTableRecord
100
AcDbLinetypeTableRecord
  2
CENTER
 70
0
  3
Center ____ _ ____ _ ____ _ ____ _ ____ _ ____
 72
65
 73
4
 40
50.7999999999999972
 49
31.75
 74
0
 49
-6.3499999999999996
 74
0
 49
6.3499999999999996
 74
0
 49
-6.3499999999999996
 74
0
  0
LTYPE
  5
49
100
AcDbSymbolTableRecord
100
AcDbLinetypeTableRecord
  2
HIDDEN
 70
0
  3
Hidden __ __ __ __ __ __ __ __ __ __ __ __ __ __
 72
65
 73
2
 40
9.5249999999999986
 49
6.3499999999999996
 74
0
 49
-3.1749999999999998
 74
0
  0
LTYPE
  5
4A
100
AcDbSymbolTableRecord
100
AcDbLinetypeTableRecord
  2
DOTX2
 70
0
  3
Dot (2x) .  .  .  .  .  .  .  .  .  .  .  .  .  .
 72
65
 73
2
 40
12.6999999999999993
 49
0.0
 74
0
 49
-12.6999999999999993
 74
0
  0
LTYPE
  5
4B
100
AcDbSymbolTableRecord
100
AcDbLinetypeTableRecord
  2
PHANTOM
 70
0
  3
Phantom ______  __  __  ______  __  __  ______ 
 72
65
 73
6
 40
63.5
 49
31.75
 74
0
 49
-6.3499999999999996
 74
0
 49
6.3499999999999996
 74
0
 49
-6.3499999999999996
 74
0
 49
6.3499999999999996
 74
0
 49
-6.3499999999999996
 74
0
  0
LTYPE
  5
4C
100
AcDbSymbolTableRecord
100
AcDbLinetypeTableRecord
  2
ACAD_ISO08W100
 70
0
  3
ISO long-dash short-dash ____ __ ____ __ ____ _
 72
65
 73
4
 40
36.0
 49
24.0
 74
0
 49
-3.0
 74
0
 49
6.0
 74
0
 49
-3.0
 74
0
  0
LTYPE
  5
4D
100
AcDbSymbolTableRecord
100
AcDbLinetypeTableRecord
  2
DASHEDX2
 70
0
  3
Dashed (2x) ____  ____  ____  ____  ____  ___
 72
65
 73
2
 40
38.0999999999999943
 49
25.3999999999999986
 74
0
 49
-12.6999999999999993
 74
0
  0
LTYPE
  5
4E
100
AcDbSymbolTableRecord
100
AcDbLinetypeTableRecord
  2
DRAINAGE
 70
0
  3
Drainage ---->---->---->----
 72
65
 73
2
 40
10.1600000000000001
 49
5.0800000000000001
 74
0
 49
5.0800000000000001
 74
0
  0
LTYPE
  5
4F
100
AcDbSymbolTableRecord
100
AcDbLinetypeTableRecord
  2
ACAD_ISO02W100
 70
0
  3
ISO dash __ __ __ __ __ __ __ __ __ __ __ __ __
 72
65
 73
2
 40
15.0
 49
12.0
 74
0
 49
-3.0
 74
0
  0
LTYPE
  5
50
100
AcDbSymbolTableRecord
100
AcDbLinetypeTableRecord
  2
PHANTOM2
 70
0
  3
Phantom (.5x) ___ _ _ ___ _ _ ___ _ _ ___ _ _
 72
65
 73
6
 40
31.75
 49
15.875
 74
0
 49
-3.1749999999999998
 74
0
 49
3.1749999999999998
 74
0
 49
-3.1749999999999998
 74
0
 49
3.1749999999999998
 74
0
 49
-3.1749999999999998
 74
0
  0
LTYPE
  5
51
100
AcDbSymbolTableRecord
100
AcDbLinetypeTableRecord
  2
DASHED2
 70
0
  3
Dashed (.5x) _ _ _ _ _ _ _ _ _ _ _ _ _ _ _ _ _ 
 72
65
 73
2
 40
9.5249999999999986
 49
6.3499999999999996
 74
0
 49
-3.1749999999999998
 74
0
  0
LTYPE
  5
52
100
AcDbSymbolTableRecord
100
AcDbLinetypeTableRecord
  2
ACAD_ISO09W100
 70
0
  3
ISO long-dash double-short-dash ____ __ __ ____
 72
65
 73
6
 40
45.0
 49
24.0
 74
0
 49
-3.0
 74
0
 49
6.0
 74
0
 49
-3.0
 74
0
 49
6.0
 74
0
 49
-3.0
 74
0
  0
LTYPE
  5
53
100
AcDbSymbolTableRecord
100
AcDbLinetypeTableRecord
  2
ACAD_ISO13W100
 70
0
  3
ISO double-dash double-dot __ __ . . __ __ . . _
 72
65
 73
8
 40
36.0
 49
12.0
 74
0
 49
-3.0
 74
0
 49
12.0
 74
0
 49
-3.0
 74
0
 49
0.0
 74
0
 49
-3.0
 74
0
 49
0.0
 74
0
 49
-3.0
 74
0
  0
LTYPE
  5
54
100
AcDbSymbolTableRecord
100
AcDbLinetypeTableRecord
  2
TRACKS
 70
0
  3
Tracks -|-|-|-|-|-|-|-|-|-|-|-|-|-|-|-|-|-|-|-|-|-|-|-|-
 72
65
 73
2
 40
7.6200000000000001
 49
3.8100000000000001
 74
0
 49
3.8100000000000001
 74
0
  0
LTYPE
  5
55
100
AcDbSymbolTableRecord
100
AcDbLinetypeTableRecord
  2
DRAINAGE2
 70
0
  3
Drainage reversed----<----<----<----
 72
65
 73
2
 40
10.1600000000000001
 49
5.0800000000000001
 74
0
 49
5.0800000000000001
 74
0
  0
LTYPE
  5
56
100
AcDbSymbolTableRecord
100
AcDbLinetypeTableRecord
  2
DOT2
 70
0
  3
Dot (.5x) ........................................
 72
65
 73
2
 40
3.1749999999999998
 49
0.0
 74
0
 49
-3.1749999999999998
 74
0
  0
LTYPE
  5
57
100
AcDbSymbolTableRecord
100
AcDbLinetypeTableRecord
  2
ZIGZAG
 70
0
  3
Zig zag /\/\/\/\/\/\/\/\/\/\/\/\/\/\/\/\/\/\/\/\/\/\/\/
 72
65
 73
4
 40
20.32254
 49
0.00254
 74
0
 49
-5.0800000000000001
 74
0
 49
-10.1600000000000001
 74
0
 49
-5.0800000000000001
 74
0
  0
LTYPE
  5
58
100
AcDbSymbolTableRecord
100
AcDbLinetypeTableRecord
  2
DASHED
 70
0
  3
Dashed __ __ __ __ __ __ __ __ __ __ __ __ __ _
 72
65
 73
2
 40
19.0499999999999972
 49
12.6999999999999993
 74
0
 49
-6.3499999999999996
 74
0
  0
LTYPE
  5
59
100
AcDbSymbolTableRecord
100
AcDbLinetypeTableRecord
  2
ACAD_ISO14W100
 70
0
  3
ISO dash triple-dot __ . . . __ . . . __ . . . _
 72
65
 73
8
 40
24.0
 49
12.0
 74
0
 49
-3.0
 74
0
 49
0.0
 74
0
 49
-3.0
 74
0
 49
0.0
 74
0
 49
-3.0
 74
0
 49
0.0
 74
0
 49
-3.0
 74
0
  0
LTYPE
  5
5A
100
AcDbSymbolTableRecord
100
AcDbLinetypeTableRecord
  2
PHANTOMX2
 70
0
  3
Phantom (2x) ____________    ____    ____   _
 72
65
 73
6
 40
127.0
 49
63.5
 74
0
 49
-12.6999999999999993
 74
0
 49
12.6999999999999993
 74
0
 49
-12.6999999999999993
 74
0
 49
12.6999999999999993
 74
0
 49
-12.6999999999999993
 74
0
  0
LTYPE
  5
5B
100
AcDbSymbolTableRecord
100
AcDbLinetypeTableRecord
  2
DIVIDEX2
 70
0
  3
Divide (2x) ________  .  .  ________  .  .  _
 72
65
 73
6
 40
63.5
 49
25.3999999999999986
 74
0
 49
-12.6999999999999993
 74
0
 49
0.0
 74
0
 49
-12.6999999999999993
 74
0
 49
0.0
 74
0
 49
-12.6999999999999993
 74
0
  0
LTYPE
  5
5C
100
AcDbSymbolTableRecord
100
AcDbLinetypeTableRecord
  2
BORDER
 70
0
  3
Border __ __ . __ __ . __ __ . __ __ . __ __ .
 72
65
 73
6
 40
44.4499999999999957
 49
12.6999999999999993
 74
0
 49
-6.3499999999999996
 74
0
 49
12.6999999999999993
 74
0
 49
-6.3499999999999996
 74
0
 49
0.0
 74
0
 49
-6.3499999999999996
 74
0
  0
LTYPE
  5
5D
100
AcDbSymbolTableRecord
100
AcDbLinetypeTableRecord
  2
DIVIDE2
 70
0
  3
Divide (.5x) __..__..__..__..__..__..__..__.._
 72
65
 73
6
 40
15.875
 49
6.3499999999999996
 74
0
 49
-3.1749999999999998
 74
0
 49
0.0
 74
0
 49
-3.1749999999999998
 74
0
 49
0.0
 74
0
 49
-3.1749999999999998
 74
0
  0
LTYPE
  5
5E
100
AcDbSymbolTableRecord
100
AcDbLinetypeTableRecord
  2
DOT
 70
0
  3
Dot . . . . . . . . . . . . . . . . . . . . . . . .
 72
65
 73
2
 40
6.3499999999999996
 49
0.0
 74
0
 49
-6.3499999999999996
 74
0
  0
LTYPE
  5
5F
100
AcDbSymbolTableRecord
100
AcDbLinetypeTableRecord
  2
DASHDOT
 70
0
  3
Dash dot __ . __ . __ . __ . __ . __ . __ . __
 72
65
 73
4
 40
25.3999999999999986
 49
12.6999999999999993
 74
0
 49
-6.3499999999999996
 74
0
 49
0.0
 74
0
 49
-6.3499999999999996
 74
0
  0
LTYPE
  5
60
100
AcDbSymbolTableRecord
100
AcDbLinetypeTableRecord
  2
FENCELINE1
 70
0
  3
Fenceline circle ----0-----0----0-----0----0-----0--
 72
65
 73
4
 40
36.8299999999999983
 49
6.3499999999999996
 74
0
 49
-2.54
 74
0
 49
-2.54
 74
0
 49
25.3999999999999986
 74
0
  0
LTYPE
  5
61
100
AcDbSymbolTableRecord
100
AcDbLinetypeTableRecord
  2
BATTING
 70
0
  3
Batting SSSSSSSSSSSSSSSSSSSSSSSSSSSSSSSSSSSSSSSSSSSSSSS
 72
65
 73
4
 40
10.1625399999999999
 49
0.00254
 74
0
 49
-2.54
 74
0
 49
-5.0800000000000001
 74
0
 49
-2.54
 74
0
  0
LTYPE
  5
62
100
AcDbSymbolTableRecord
100
AcDbLinetypeTableRecord
  2
ACAD_ISO03W100
 70
0
  3
ISO dash space __    __    __    __    __    __
 72
65
 73
2
 40
30.0
 49
12.0
 74
0
 49
-18.0
 74
0
  0
LTYPE
  5
15
100
AcDbSymbolTableRecord
100
AcDbLinetypeTableRecord
  2
ByLayer
 70
0
  3

 72
65
 73
0
 40
0.0
  0
LTYPE
  5
63
100
AcDbSymbolTableRecord
100
AcDbLinetypeTableRecord
  2
FENCELINE2
 70
0
  3
Fenceline square ----[]-----[]----[]-----[]----[]---
 72
65
 73
4
 40
36.8299999999999983
 49
6.3499999999999996
 74
0
 49
-2.54
 74
0
 49
-2.54
 74
0
 49
25.3999999999999986
 74
0
  0
ENDTAB
  0
TABLE
  2
LAYER
  5
2
100
AcDbSymbolTable
 70
3
  0
LAYER
  5
64
100
AcDbSymbolTableRecord
100
AcDbLayerTableRecord
  2
layer 1
 70
0
 62
3
420
65280
  6
Continuous
370
25
390
F
  0
LAYER
  5
65
100
AcDbSymbolTableRecord
100
AcDbLayerTableRecord
  2
layer 2
 70
0
 62
5
420
255
  6
Continuous
370
25
390
F
  0
LAYER
  5
10
100
AcDbSymbolTableRecord
100
AcDbLayerTableRecord
  2
0
 70
0
 62
7
420
16777215
  6
Continuous
370
25
390
F
  0
ENDTAB
  0
TABLE
  2
STYLE
  5
3
100
AcDbSymbolTable
 70
1
  0
STYLE
  5
66
100
AcDbSymbolTableRecord
100
AcDbTextStyleTableRecord
  2
Standard
 70
0
 40
0.0
 41
1.0
 50
0.0
 71
0
 42
2.5
  3

  4

1001
ACAD
1000
txt
1071
0
  0
ENDTAB
  0
TABLE
  2
VIEW
  5
6
100
AcDbSymbolTable
 70
0
  0
ENDTAB
  0
TABLE
  2
UCS
  5
7
100
AcDbSymbolTable
 70
0
  0
ENDTAB
  0
TABLE
  2
APPID
  5
9
100
AcDbSymbolTable
 70
1
  0
APPID
  5
12
100
AcDbSymbolTableRecord
100
AcDbRegAppTableRecord
  2
ACAD
 70
0
  0
APPID
  5
67
100
AcDbSymbolTableRecord
100
AcDbRegAppTableRecord
  2
QCAD
 70
0
  0
ENDTAB
  0
TABLE
  2
DIMSTYLE
  5
A
100
AcDbSymbolTable
 70
1
100
AcDbDimStyleTable
 71
0
  0
DIMSTYLE
105
27
100
AcDbSymbolTableRecord
100
AcDbDimStyleTableRecord
  2
Standard
 41
0.125
 42
0.03125
 43
3.75
 44
0.0625
 70
0
 73
0
 74
0
 77
1
 78
8
140
0.125
141
2.5
143
0.03937007874016
147
0.03125
171
3
172
1
271
2
272
2
274
3
278
44
283
0
284
8
340
66
  0
ENDTAB
  0
TABLE
  2
BLOCK_RECORD
  5
1
100
AcDbSymbolTable
 70
1
  0
BLOCK_RECORD
  5
1F
100
AcDbSymbolTableRecord
100
AcDbBlockTableRecord
  2
*Model_Space
340
22
  0
BLOCK_RECORD
  5
1B
100
AcDbSymbolTableRecord
100
AcDbBlockTableRecord
  2
*Paper_Space
340
1E
  0
BLOCK_RECORD
  5
23
100
AcDbSymbolTableRecord
100
AcDbBlockTableRecord
  2
*Paper_Space0
340
26
  0
ENDTAB
  0
ENDSEC
  0
SECTION
  2
BLOCKS
  0
BLOCK
  5
20
100
AcDbEntity
  8
0
100
AcDbBlockBegin
  2
*Model_Space
 70
0
 10
0.0
 20
0.0
 30
0.0
  3
*Model_Space
  1

  0
ENDBLK
  5
21
100
AcDbEntity
  8
0
100
AcDbBlockEnd
  0
BLOCK
  5
1C
100
AcDbEntity
 67
1
  8
0
100
AcDbBlockBegin
  2
*Paper_Space
 70
0
 10
0.0
 20
0.0
 30
0.0
  3
*Paper_Space
  1

  0
ENDBLK
  5
1D
100
AcDbEntity
 67
1
  8
0
100
AcDbBlockEnd
  0
BLOCK
  5
24
100
AcDbEntity
  8
0
100
AcDbBlockBegin
  2
*Paper_Space0
 70
0
 10
0.0
 20
0.0
 30
0.0
  3
*Paper_Space0
  1

  0
ENDBLK
  5
25
100
AcDbEntity
  8
0
100
AcDbBlockEnd
  0
ENDSEC
  0
SECTION
  2
ENTITIES
  0
XLINE
  5
68
100
AcDbEntity
100
AcDbLine
  8
0
 62
256
370
-1
 48
1.0
  6
ByLayer
 10
0.0
 20
0.0
 30
0.0
 11
0.0
 21
0.0
 31
1.0
  0
XLINE
  5
69
100
AcDbEntity
100
AcDbLine
  8
0
 62
256
370
-1
 48
1.0
  6
ByLayer
 10
0.0
 20
0.0
 30
0.0
 11
0.0
 21
0.0
 31
1.0
  0
XLINE
  5
6A
100
AcDbEntity
100
AcDbLine
  8
0
 62
256
370
-1
 48
1.0
  6
ByLayer
 10
0.0
 20
0.0
 30
0.0
 11
0.0
 21
0.0
 31
1.0
  0
XLINE
  5
6B
100
AcDbEntity
100
AcDbLine
  8
0
 62
256
370
-1
 48
1.0
  6
ByLayer
 10
0.0
 20
0.0
 30
0.0
 11
0.0
 21
0.0
 31
1.0
  0
XLINE
  5
6C
100
AcDbEntity
100
AcDbLine
  8
0
 62
256
370
-1
 48
1.0
  6
ByLayer
 10
0.0
 20
0.0
 30
0.0
 11
0.0
 21
0.0
 31
1.0
  0
XLINE
  5
6D
100
AcDbEntity
100
AcDbLine
  8
0
 62
256
370
-1
 48
1.0
  6
ByLayer
 10
0.0
 20
0.0
 30
0.0
 11
0.0
 21
0.0
 31
1.0
  0
XLINE
  5
6E
100
AcDbEntity
100
AcDbLine
  8
0
 62
256
370
-1
 48
1.0
  6
ByLayer
 10
0.0
 20
0.0
 30
0.0
 11
0.0
 21
0.0
 31
1.0
  0
XLINE
  5
6F
100
AcDbEntity
100
AcDbLine
  8
0
 62
256
370
-1
 48
1.0
  6
ByLayer
 10
0.0
 20
0.0
 30
0.0
 11
0.0
 21
0.0
 31
1.0
  0
XLINE
  5
70
100
AcDbEntity
100
AcDbLine
  8
0
 62
256
370
-1
 48
1.0
  6
ByLayer
 10
0.0
 20
0.0
 30
0.0
 11
0.0
 21
0.0
 31
1.0
  0
XLINE
  5
71
100
AcDbEntity
100
AcDbLine
  8
0
 62
256
370
-1
 48
1.0
  6
ByLayer
 10
0.0
 20
0.0
 30
0.0
 11
0.0
 21
0.0
 31
1.0
  0
XLINE
  5
72
100
AcDbEntity
100
AcDbLine
  8
0
 62
256
370
-1
 48
1.0
  6
ByLayer
 10
0.0
 20
0.0
 30
0.0
 11
0.0
 21
0.0
 31
1.0
  0
XLINE
  5
73
100
AcDbEntity
100
AcDbLine
  8
0
 62
256
370
-1
 48
1.0
  6
ByLayer
 10
0.0
 20
0.0
 30
0.0
 11
0.0
 21
0.0
 31
1.0
  0
XLINE
  5
74
100
AcDbEntity
100
AcDbLine
  8
0
 62
256
370
-1
 48
1.0
  6
ByLayer
 10
0.0
 20
0.0
 30
0.0
 11
0.0
 21
0.0
 31
1.0
  0
XLINE
  5
75
100
AcDbEntity
100
AcDbLine
  8
0
 62
256
370
-1
 48
1.0
  6
ByLayer
 10
0.0
 20
0.0
 30
0.0
 11
0.0
 21
0.0
 31
1.0
  0
XLINE
  5
76
100
AcDbEntity
100
AcDbLine
  8
0
 62
256
370
-1
 48
1.0
  6
ByLayer
 10
0.0
 20
0.0
 30
0.0
 11
0.0
 21
0.0
 31
1.0
  0
XLINE
  5
77
100
AcDbEntity
100
AcDbLine
  8
0
 62
256
370
-1
 48
1.0
  6
ByLayer
 10
0.0
 20
0.0
 30
0.0
 11
0.0
 21
0.0
 31
1.0
  0
LINE
  5
78
100
AcDbEntity
100
AcDbLine
  8
layer 1
 62
256
370
-1
 48
1.0
  6
ByLayer
 10
0.8125
 20
0.1875
 30
0.0
 11
0.75
 21
0.125
 31
0.0
  0
LINE
  5
79
100
AcDbEntity
100
AcDbLine
  8
layer 1
 62
256
370
-1
 48
1.0
  6
ByLayer
 10
0.78125
 20
0.09375
 30
0.0
 11
0.75
 21
0.0625
 31
0.0
  0
LINE
  5
7A
100
AcDbEntity
100
AcDbLine
  8
layer 1
 62
256
370
-1
 48
1.0
  6
ByLayer
 10
0.0625
 20
0.125
 30
0.0
 11
0.0
 21
0.0625
 31
0.0
  0
LINE
  5
7B
100
AcDbEntity
100
AcDbLine
  8
layer 1
 62
256
370
-1
 48
1.0
  6
ByLayer
 10
2.03125
 20
0.09375
 30
0.0
 11
2.0
 21
0.0625
 31
0.0
  0
LINE
  5
7C
100
AcDbEntity
100
AcDbLine
  8
layer 1
 62
256
370
-1
 48
1.0
  6
ByLayer
 10
2.0183058261758409
 20
0.1433058261758408
 30
0.0
 11
2.0
 21
0.125
 31
0.0
  0
LINE
  5
7D
100
AcDbEntity
100
AcDbLine
  8
layer 1
 62
256
370
-1
 48
1.0
  6
ByLayer
 10
1.78125
 20
0.09375
 30
0.0
 11
1.75
 21
0.0625
 31
0.0
  0
LINE
  5
7E
100
AcDbEntity
100
AcDbLine
  8
layer 1
 62
256
370
-1
 48
1.0
  6
ByLayer
 10
1.7683058261758409
 20
0.1433058261758408
 30
0.0
 11
1.75
 21
0.125
 31
0.0
  0
LINE
  5
7F
100
AcDbEntity
100
AcDbLine
  8
layer 1
 62
256
370
-1
 48
1.0
  6
ByLayer
 10
1.53125
 20
0.09375
 30
0.0
 11
1.5
 21
0.0625
 31
0.0
  0
LINE
  5
80
100
AcDbEntity
100
AcDbLine
  8
layer 1
 62
256
370
-1
 48
1.0
  6
ByLayer
 10
1.5183058261758409
 20
0.1433058261758408
 30
0.0
 11
1.5
 21
0.125
 31
0.0
  0
LINE
  5
81
100
AcDbEntity
100
AcDbLine
  8
layer 1
 62
256
370
-1
 48
1.0
  6
ByLayer
 10
1.28125
 20
0.09375
 30
0.0
 11
1.25
 21
0.0625
 31
0.0
  0
LINE
  5
82
100
AcDbEntity
100
AcDbLine
  8
layer 1
 62
256
370
-1
 48
1.0
  6
ByLayer
 10
1.28125
 20
0.15625
 30
0.0
 11
1.25
 21
0.125
 31
0.0
  0
LINE
  5
83
100
AcDbEntity
100
AcDbLine
  8
layer 1
 62
256
370
-1
 48
1.0
  6
ByLayer
 10
1.03125
 20
0.09375
 30
0.0
 11
1.0
 21
0.0625
 31
0.0
  0
LINE
  5
84
100
AcDbEntity
100
AcDbLine
  8
layer 1
 62
256
370
-1
 48
1.0
  6
ByLayer
 10
1.0625
 20
0.1875
 30
0.0
 11
1.0
 21
0.125
 31
0.0
  0
LINE
  5
85
100
AcDbEntity
100
AcDbLine
  8
layer 1
 62
256
370
-1
 48
1.0
  6
ByLayer
 10
0.5625
 20
0.125
 30
0.0
 11
0.5
 21
0.0625
 31
0.0
  0
LINE
  5
86
100
AcDbEntity
100
AcDbLine
  8
layer 1
 62
256
370
-1
 48
1.0
  6
ByLayer
 10
0.3125
 20
0.125
 30
0.0
 11
0.25
 21
0.0625
 31
0.0
  0
LINE
  5
87
100
AcDbEntity
100
AcDbLine
  8
layer 1
 62
256
370
-1
 48
1.0
  6
ByLayer
 10
0.75
 20
0.125
 30
0.0
 11
0.8125
 21
0.0625
 31
0.0
  0
LINE
  5
88
100
AcDbEntity
100
AcDbLine
  8
layer 1
 62
256
370
-1
 48
1.0
  6
ByLayer
 10
0.75
 20
0.0625
 30
0.0
 11
0.8125
 21
0.0
 31
0.0
  0
LINE
  5
89
100
AcDbEntity
100
AcDbLine
  8
layer 1
 62
256
370
-1
 48
1.0
  6
ByLayer
 10
0.0
 20
0.0625
 30
0.0
 11
0.0625
 21
0.0
 31
0.0
  0
LINE
  5
8A
100
AcDbEntity
100
AcDbLine
  8
layer 1
 62
256
370
-1
 48
1.0
  6
ByLayer
 10
2.0
 20
0.0625
 30
0.0
 11
2.0625
 21
0.0
 31
0.0
  0
LINE
  5
8B
100
AcDbEntity
100
AcDbLine
  8
layer 1
 62
256
370
-1
 48
1.0
  6
ByLayer
 10
2.0
 20
0.125
 30
0.0
 11
2.0625
 21
0.0625
 31
0.0
  0
LINE
  5
8C
100
AcDbEntity
100
AcDbLine
  8
layer 1
 62
256
370
-1
 48
1.0
  6
ByLayer
 10
1.75
 20
0.0625
 30
0.0
 11
1.8125
 21
0.0
 31
0.0
  0
LINE
  5
8D
100
AcDbEntity
100
AcDbLine
  8
layer 1
 62
256
370
-1
 48
1.0
  6
ByLayer
 10
1.75
 20
0.125
 30
0.0
 11
1.8125
 21
0.0625
 31
0.0
  0
LINE
  5
8E
100
AcDbEntity
100
AcDbLine
  8
layer 1
 62
256
370
-1
 48
1.0
  6
ByLayer
 10
1.5
 20
0.0625
 30
0.0
 11
1.5625
 21
0.0
 31
0.0
  0
LINE
  5
8F
100
AcDbEntity
100
AcDbLine
  8
layer 1
 62
256
370
-1
 48
1.0
  6
ByLayer
 10
1.5
 20
0.125
 30
0.0
 11
1.5625
 21
0.0625
 31
0.0
  0
LINE
  5
90
100
AcDbEntity
100
AcDbLine
  8
layer 1
 62
256
370
-1
 48
1.0
  6
ByLayer
 10
1.25
 20
0.0625
 30
0.0
 11
1.3125
 21
0.0
 31
0.0
  0
LINE
  5
91
100
AcDbEntity
100
AcDbLine
  8
layer 1
 62
256
370
-1
 48
1.0
  6
ByLayer
 10
1.25
 20
0.125
 30
0.0
 11
1.3125
 21
0.0625
 31
0.0
  0
LINE
  5
92
100
AcDbEntity
100
AcDbLine
  8
layer 1
 62
256
370
-1
 48
1.0
  6
ByLayer
 10
1.0
 20
0.0625
 30
0.0
 11
1.0625
 21
0.0
 31
0.0
  0
LINE
  5
93
100
AcDbEntity
100
AcDbLine
  8
layer 1
 62
256
370
-1
 48
1.0
  6
ByLayer
 10
1.0
 20
0.125
 30
0.0
 11
1.0625
 21
0.0625
 31
0.0
  0
LINE
  5
94
100
AcDbEntity
100
AcDbLine
  8
layer 1
 62
256
370
-1
 48
1.0
  6
ByLayer
 10
0.5
 20
0.0625
 30
0.0
 11
0.5625
 21
0.0
 31
0.0
  0
LINE
  5
95
100
AcDbEntity
100
AcDbLine
  8
layer 1
 62
256
370
-1
 48
1.0
  6
ByLayer
 10
0.25
 20
0.0625
 30
0.0
 11
0.3125
 21
0.0
 31
0.0
  0
LINE
  5
96
100
AcDbEntity
100
AcDbLine
  8
layer 1
 62
256
370
-1
 48
1.0
  6
ByLayer
 10
0.8125
 20
0.0625
 30
0.0
 11
0.875
 21
0.125
 31
0.0
  0
LINE
  5
97
100
AcDbEntity
100
AcDbLine
  8
layer 1
 62
256
370
-1
 48
1.0
  6
ByLayer
 10
0.8125
 20
0.0
 30
0.0
 11
0.875
 21
0.0625
 31
0.0
  0
LINE
  5
98
100
AcDbEntity
100
AcDbLine
  8
layer 1
 62
256
370
-1
 48
1.0
  6
ByLayer
 10
0.0625
 20
0.0
 30
0.0
 11
0.125
 21
0.0625
 31
0.0
  0
LINE
  5
99
100
AcDbEntity
100
AcDbLine
  8
layer 1
 62
256
370
-1
 48
1.0
  6
ByLayer
 10
2.0625
 20
0.0
 30
0.0
 11
2.125
 21
0.0625
 31
0.0
  0
LINE
  5
9A
100
AcDbEntity
100
AcDbLine
  8
layer 1
 62
256
370
-1
 48
1.0
  6
ByLayer
 10
2.0625
 20
0.0625
 30
0.0
 11
2.125
 21
0.125
 31
0.0
  0
LINE
  5
9B
100
AcDbEntity
100
AcDbLine
  8
layer 1
 62
256
370
-1
 48
1.0
  6
ByLayer
 10
1.8125
 20
0.0
 30
0.0
 11
1.875
 21
0.0625
 31
0.0
  0
LINE
  5
9C
100
AcDbEntity
100
AcDbLine
  8
layer 1
 62
256
370
-1
 48
1.0
  6
ByLayer
 10
1.8125
 20
0.0625
 30
0.0
 11
1.875
 21
0.125
 31
0.0
  0
LINE
  5
9D
100
AcDbEntity
100
AcDbLine
  8
layer 1
 62
256
370
-1
 48
1.0
  6
ByLayer
 10
1.5625
 20
0.0
 30
0.0
 11
1.625
 21
0.0625
 31
0.0
  0
LINE
  5
9E
100
AcDbEntity
100
AcDbLine
  8
layer 1
 62
256
370
-1
 48
1.0
  6
ByLayer
 10
1.5625
 20
0.0625
 30
0.0
 11
1.625
 21
0.125
 31
0.0
  0
LINE
  5
9F
100
AcDbEntity
100
AcDbLine
  8
layer 1
 62
256
370
-1
 48
1.0
  6
ByLayer
 10
1.3125
 20
0.0
 30
0.0
 11
1.375
 21
0.0625
 31
0.0
  0
LINE
  5
A0
100
AcDbEntity
100
AcDbLine
  8
layer 1
 62
256
370
-1
 48
1.0
  6
ByLayer
 10
1.3125
 20
0.0625
 30
0.0
 11
1.375
 21
0.125
 31
0.0
  0
LINE
  5
A1
100
AcDbEntity
100
AcDbLine
  8
layer 1
 62
256
370
-1
 48
1.0
  6
ByLayer
 10
1.0625
 20
0.0
 30
0.0
 11
1.125
 21
0.0625
 31
0.0
  0
LINE
  5
A2
100
AcDbEntity
100
AcDbLine
  8
layer 1
 62
256
370
-1
 48
1.0
  6
ByLayer
 10
1.0625
 20
0.0625
 30
0.0
 11
1.125
 21
0.125
 31
0.0
  0
LINE
  5
A3
100
AcDbEntity
100
AcDbLine
  8
layer 1
 62
256
370
-1
 48
1.0
  6
ByLayer
 10
0.5625
 20
0.0
 30
0.0
 11
0.625
 21
0.0625
 31
0.0
  0
LINE
  5
A4
100
AcDbEntity
100
AcDbLine
  8
layer 1
 62
256
370
-1
 48
1.0
  6
ByLayer
 10
0.3125
 20
0.0
 30
0.0
 11
0.375
 21
0.0625
 31
0.0
  0
LINE
  5
A5
100
AcDbEntity
100
AcDbLine
  8
layer 1
 62
256
370
-1
 48
1.0
  6
ByLayer
 10
0.875
 20
0.125
 30
0.0
 11
0.8125
 21
0.1875
 31
0.0
  0
LINE
  5
A6
100
AcDbEntity
100
AcDbLine
  8
layer 1
 62
256
370
-1
 48
1.0
  6
ByLayer
 10
0.875
 20
0.0625
 30
0.0
 11
0.84375
 21
0.09375
 31
0.0
  0
LINE
  5
A7
100
AcDbEntity
100
AcDbLine
  8
layer 1
 62
256
370
-1
 48
1.0
  6
ByLayer
 10
0.125
 20
0.0625
 30
0.0
 11
0.0625
 21
0.125
 31
0.0
  0
LINE
  5
A8
100
AcDbEntity
100
AcDbLine
  8
layer 1
 62
256
370
-1
 48
1.0
  6
ByLayer
 10
2.125
 20
0.0625
 30
0.0
 11
2.09375
 21
0.09375
 31
0.0
  0
LINE
  5
A9
100
AcDbEntity
100
AcDbLine
  8
layer 1
 62
256
370
-1
 48
1.0
  6
ByLayer
 10
2.125
 20
0.125
 30
0.0
 11
2.1066941738241591
 21
0.1433058261758408
 31
0.0
  0
LINE
  5
AA
100
AcDbEntity
100
AcDbLine
  8
layer 1
 62
256
370
-1
 48
1.0
  6
ByLayer
 10
1.875
 20
0.0625
 30
0.0
 11
1.84375
 21
0.09375
 31
0.0
  0
LINE
  5
AB
100
AcDbEntity
100
AcDbLine
  8
layer 1
 62
256
370
-1
 48
1.0
  6
ByLayer
 10
1.875
 20
0.125
 30
0.0
 11
1.8566941738241591
 21
0.1433058261758408
 31
0.0
  0
LINE
  5
AC
100
AcDbEntity
100
AcDbLine
  8
layer 1
 62
256
370
-1
 48
1.0
  6
ByLayer
 10
1.625
 20
0.0625
 30
0.0
 11
1.59375
 21
0.09375
 31
0.0
  0
LINE
  5
AD
100
AcDbEntity
100
AcDbLine
  8
layer 1
 62
256
370
-1
 48
1.0
  6
ByLayer
 10
1.625
 20
0.125
 30
0.0
 11
1.6066941738241591
 21
0.1433058261758408
 31
0.0
  0
LINE
  5
AE
100
AcDbEntity
100
AcDbLine
  8
layer 1
 62
256
370
-1
 48
1.0
  6
ByLayer
 10
1.375
 20
0.0625
 30
0.0
 11
1.34375
 21
0.09375
 31
0.0
  0
LINE
  5
AF
100
AcDbEntity
100
AcDbLine
  8
layer 1
 62
256
370
-1
 48
1.0
  6
ByLayer
 10
1.375
 20
0.125
 30
0.0
 11
1.34375
 21
0.15625
 31
0.0
  0
LINE
  5
B0
100
AcDbEntity
100
AcDbLine
  8
layer 1
 62
256
370
-1
 48
1.0
  6
ByLayer
 10
1.125
 20
0.0625
 30
0.0
 11
1.09375
 21
0.09375
 31
0.0
  0
LINE
  5
B1
100
AcDbEntity
100
AcDbLine
  8
layer 1
 62
256
370
-1
 48
1.0
  6
ByLayer
 10
1.125
 20
0.125
 30
0.0
 11
1.0625
 21
0.1875
 31
0.0
  0
LINE
  5
B2
100
AcDbEntity
100
AcDbLine
  8
layer 1
 62
256
370
-1
 48
1.0
  6
ByLayer
 10
0.625
 20
0.0625
 30
0.0
 11
0.5625
 21
0.125
 31
0.0
  0
LINE
  5
B3
100
AcDbEntity
100
AcDbLine
  8
layer 1
 62
256
370
-1
 48
1.0
  6
ByLayer
 10
0.375
 20
0.0625
 30
0.0
 11
0.3125
 21
0.125
 31
0.0
  0
XLINE
  5
B4
100
AcDbEntity
100
AcDbLine
  8
0
 62
256
370
-1
 48
1.0
  6
ByLayer
 10
0.0
 20
0.0
 30
0.0
 11
0.0
 21
0.0
 31
1.0
  0
XLINE
  5
B5
100
AcDbEntity
100
AcDbLine
  8
0
 62
256
370
-1
 48
1.0
  6
ByLayer
 10
0.0
 20
0.0
 30
0.0
 11
0.0
 21
0.0
 31
1.0
  0
XLINE
  5
B6
100
AcDbEntity
100
AcDbLine
  8
0
 62
256
370
-1
 48
1.0
  6
ByLayer
 10
0.0
 20
0.0
 30
0.0
 11
0.0
 21
0.0
 31
1.0
  0
XLINE
  5
B7
100
AcDbEntity
100
AcDbLine
  8
0
 62
256
370
-1
 48
1.0
  6
ByLayer
 10
0.0
 20
0.0
 30
0.0
 11
0.0
 21
0.0
 31
1.0
  0
XLINE
  5
B8
100
AcDbEntity
100
AcDbLine
  8
0
 62
256
370
-1
 48
1.0
  6
ByLayer
 10
0.0
 20
0.0
 30
0.0
 11
0.0
 21
0.0
 31
1.0
  0
XLINE
  5
B9
100
AcDbEntity
100
AcDbLine
  8
0
 62
256
370
-1
 48
1.0
  6
ByLayer
 10
0.0
 20
0.0
 30
0.0
 11
0.0
 21
0.0
 31
1.0
  0
XLINE
  5
BA
100
AcDbEntity
100
AcDbLine
  8
0
 62
256
370
-1
 48
1.0
  6
ByLayer
 10
0.0
 20
0.0
 30
0.0
 11
0.0
 21
0.0
 31
1.0
  0
XLINE
  5
BB
100
AcDbEntity
100
AcDbLine
  8
0
 62
256
370
-1
 48
1.0
  6
ByLayer
 10
0.0
 20
0.0
 30
0.0
 11
0.0
 21
0.0
 31
1.0
  0
XLINE
  5
BC
100
AcDbEntity
100
AcDbLine
  8
0
 62
256
370
-1
 48
1.0
  6
ByLayer
 10
0.0
 20
0.0
 30
0.0
 11
0.0
 21
0.0
 31
1.0
  0
XLINE
  5
BD
100
AcDbEntity
100
AcDbLine
  8
0
 62
256
370
-1
 48
1.0
  6
ByLayer
 10
0.0
 20
0.0
 30
0.0
 11
0.0
 21
0.0
 31
1.0
  0
XLINE
  5
BE
100
AcDbEntity
100
AcDbLine
  8
0
 62
256
370
-1
 48
1.0
  6
ByLayer
 10
0.0
 20
0.0
 30
0.0
 11
0.0
 21
0.0
 31
1.0
  0
XLINE
  5
BF
100
AcDbEntity
100
AcDbLine
  8
0
 62
256
370
-1
 48
1.0
  6
ByLayer
 10
0.0
 20
0.0
 30
0.0
 11
0.0
 21
0.0
 31
1.0
  0
XLINE
  5
C0
100
AcDbEntity
100
AcDbLine
  8
0
 62
256
370
-1
 48
1.0
  6
ByLayer
 10
0.0
 20
0.0
 30
0.0
 11
0.0
 21
0.0
 31
1.0
  0
XLINE
  5
C1
100
AcDbEntity
100
AcDbLine
  8
0
 62
256
370
-1
 48
1.0
  6
ByLayer
 10
0.0
 20
0.0
 30
0.0
 11
0.0
 21
0.0
 31
1.0
  0
LINE
  5
C2
100
AcDbEntity
100
AcDbLine
  8
layer 1
 62
256
370
-1
 48
1.0
  6
ByLayer
 10
1.3125
 20
0.265625
 30
0.0
 11
1.28125
 21
0.234375
 31
0.0
  0
LINE
  5
C3
100
AcDbEntity
100
AcDbLine
  8
layer 1
 62
256
370
-1
 48
1.0
  6
ByLayer
 10
2.0625
 20
0.2728765877365275
 30
0.0
 11
2.03125
 21
0.2416265877365274
 31
0.0
  0
LINE
  5
C4
100
AcDbEntity
100
AcDbLine
  8
layer 1
 62
256
370
-1
 48
1.0
  6
ByLayer
 10
1.8125
 20
0.2728765877365275
 30
0.0
 11
1.78125
 21
0.2416265877365274
 31
0.0
  0
LINE
  5
C5
100
AcDbEntity
100
AcDbLine
  8
layer 1
 62
256
370
-1
 48
1.0
  6
ByLayer
 10
1.0625
 20
0.265625
 30
0.0
 11
1.03125
 21
0.234375
 31
0.0
  0
LINE
  5
C6
100
AcDbEntity
100
AcDbLine
  8
layer 1
 62
256
370
-1
 48
1.0
  6
ByLayer
 10
2.1478765877365276
 20
0.1875
 30
0.0
 11
2.1166265877365276
 21
0.21875
 31
0.0
  0
LINE
  5
C7
100
AcDbEntity
100
AcDbLine
  8
layer 1
 62
256
370
-1
 48
1.0
  6
ByLayer
 10
1.9771234122634724
 20
0.1875
 30
0.0
 11
2.0083734122634724
 21
0.15625
 31
0.0
  0
LINE
  5
C8
100
AcDbEntity
100
AcDbLine
  8
layer 1
 62
256
370
-1
 48
1.0
  6
ByLayer
 10
0.5625
 20
0.234375
 30
0.0
 11
0.53125
 21
0.203125
 31
0.0
  0
LINE
  5
C9
100
AcDbEntity
100
AcDbLine
  8
layer 1
 62
256
370
-1
 48
1.0
  6
ByLayer
 10
0.546875
 20
0.1875
 30
0.0
 11
0.53125
 21
0.171875
 31
0.0
  0
LINE
  5
CA
100
AcDbEntity
100
AcDbLine
  8
layer 1
 62
256
370
-1
 48
1.0
  6
ByLayer
 10
0.3125
 20
0.203125
 30
0.0
 11
0.28125
 21
0.171875
 31
0.0
  0
LINE
  5
CB
100
AcDbEntity
100
AcDbLine
  8
layer 1
 62
256
370
-1
 48
1.0
  6
ByLayer
 10
1.28125
 20
0.15625
 30
0.0
 11
1.3125
 21
0.125
 31
0.0
  0
LINE
  5
CC
100
AcDbEntity
100
AcDbLine
  8
layer 1
 62
256
370
-1
 48
1.0
  6
ByLayer
 10
2.03125
 20
0.2416265877365274
 30
0.0
 11
2.0625
 21
0.2103765877365274
 31
0.0
  0
LINE
  5
CD
100
AcDbEntity
100
AcDbLine
  8
layer 1
 62
256
370
-1
 48
1.0
  6
ByLayer
 10
1.78125
 20
0.2416265877365274
 30
0.0
 11
1.8125
 21
0.2103765877365274
 31
0.0
  0
LINE
  5
CE
100
AcDbEntity
100
AcDbLine
  8
layer 1
 62
256
370
-1
 48
1.0
  6
ByLayer
 10
1.03125
 20
0.234375
 30
0.0
 11
1.0625
 21
0.203125
 31
0.0
  0
LINE
  5
CF
100
AcDbEntity
100
AcDbLine
  8
layer 1
 62
256
370
-1
 48
1.0
  6
ByLayer
 10
2.1166265877365276
 20
0.21875
 30
0.0
 11
2.0853765877365276
 21
0.1875
 31
0.0
  0
LINE
  5
D0
100
AcDbEntity
100
AcDbLine
  8
layer 1
 62
256
370
-1
 48
1.0
  6
ByLayer
 10
2.0083734122634724
 20
0.15625
 30
0.0
 11
2.0396234122634724
 21
0.1875
 31
0.0
  0
LINE
  5
D1
100
AcDbEntity
100
AcDbLine
  8
layer 1
 62
256
370
-1
 48
1.0
  6
ByLayer
 10
0.53125
 20
0.203125
 30
0.0
 11
0.5625
 21
0.171875
 31
0.0
  0
LINE
  5
D2
100
AcDbEntity
100
AcDbLine
  8
layer 1
 62
256
370
-1
 48
1.0
  6
ByLayer
 10
0.53125
 20
0.171875
 30
0.0
 11
0.5625
 21
0.140625
 31
0.0
  0
LINE
  5
D3
100
AcDbEntity
100
AcDbLine
  8
layer 1
 62
256
370
-1
 48
1.0
  6
ByLayer
 10
0.28125
 20
0.171875
 30
0.0
 11
0.3125
 21
0.140625
 31
0.0
  0
LINE
  5
D4
100
AcDbEntity
100
AcDbLine
  8
layer 1
 62
256
370
-1
 48
1.0
  6
ByLayer
 10
1.3125
 20
0.125
 30
0.0
 11
1.34375
 21
0.15625
 31
0.0
  0
LINE
  5
D5
100
AcDbEntity
100
AcDbLine
  8
layer 1
 62
256
370
-1
 48
1.0
  6
ByLayer
 10
2.0625
 20
0.2103765877365274
 30
0.0
 11
2.09375
 21
0.2416265877365274
 31
0.0
  0
LINE
  5
D6
100
AcDbEntity
100
AcDbLine
  8
layer 1
 62
256
370
-1
 48
1.0
  6
ByLayer
 10
1.8125
 20
0.2103765877365274
 30
0.0
 11
1.84375
 21
0.2416265877365274
 31
0.0
  0
LINE
  5
D7
100
AcDbEntity
100
AcDbLine
  8
layer 1
 62
256
370
-1
 48
1.0
  6
ByLayer
 10
1.0625
 20
0.203125
 30
0.0
 11
1.09375
 21
0.234375
 31
0.0
  0
LINE
  5
D8
100
AcDbEntity
100
AcDbLine
  8
layer 1
 62
256
370
-1
 48
1.0
  6
ByLayer
 10
2.0853765877365276
 20
0.1875
 30
0.0
 11
2.1166265877365276
 21
0.15625
 31
0.0
  0
LINE
  5
D9
100
AcDbEntity
100
AcDbLine
  8
layer 1
 62
256
370
-1
 48
1.0
  6
ByLayer
 10
2.0396234122634724
 20
0.1875
 30
0.0
 11
2.0083734122634724
 21
0.21875
 31
0.0
  0
LINE
  5
DA
100
AcDbEntity
100
AcDbLine
  8
layer 1
 62
256
370
-1
 48
1.0
  6
ByLayer
 10
0.5625
 20
0.171875
 30
0.0
 11
0.59375
 21
0.203125
 31
0.0
  0
LINE
  5
DB
100
AcDbEntity
100
AcDbLine
  8
layer 1
 62
256
370
-1
 48
1.0
  6
ByLayer
 10
0.5625
 20
0.140625
 30
0.0
 11
0.59375
 21
0.171875
 31
0.0
  0
LINE
  5
DC
100
AcDbEntity
100
AcDbLine
  8
layer 1
 62
256
370
-1
 48
1.0
  6
ByLayer
 10
0.3125
 20
0.140625
 30
0.0
 11
0.34375
 21
0.171875
 31
0.0
  0
LINE
  5
DD
100
AcDbEntity
100
AcDbLine
  8
layer 1
 62
256
370
-1
 48
1.0
  6
ByLayer
 10
1.34375
 20
0.234375
 30
0.0
 11
1.3125
 21
0.265625
 31
0.0
  0
LINE
  5
DE
100
AcDbEntity
100
AcDbLine
  8
layer 1
 62
256
370
-1
 48
1.0
  6
ByLayer
 10
2.09375
 20
0.2416265877365274
 30
0.0
 11
2.0625
 21
0.2728765877365275
 31
0.0
  0
LINE
  5
DF
100
AcDbEntity
100
AcDbLine
  8
layer 1
 62
256
370
-1
 48
1.0
  6
ByLayer
 10
1.84375
 20
0.2416265877365274
 30
0.0
 11
1.8125
 21
0.2728765877365275
 31
0.0
  0
LINE
  5
E0
100
AcDbEntity
100
AcDbLine
  8
layer 1
 62
256
370
-1
 48
1.0
  6
ByLayer
 10
1.09375
 20
0.234375
 30
0.0
 11
1.0625
 21
0.265625
 31
0.0
  0
LINE
  5
E1
100
AcDbEntity
100
AcDbLine
  8
layer 1
 62
256
370
-1
 48
1.0
  6
ByLayer
 10
2.1166265877365276
 20
0.15625
 30
0.0
 11
2.1478765877365276
 21
0.1875
 31
0.0
  0
LINE
  5
E2
100
AcDbEntity
100
AcDbLine
  8
layer 1
 62
256
370
-1
 48
1.0
  6
ByLayer
 10
2.0083734122634724
 20
0.21875
 30
0.0
 11
1.9771234122634724
 21
0.1875
 31
0.0
  0
LINE
  5
E3
100
AcDbEntity
100
AcDbLine
  8
layer 1
 62
256
370
-1
 48
1.0
  6
ByLayer
 10
0.59375
 20
0.203125
 30
0.0
 11
0.5625
 21
0.234375
 31
0.0
  0
LINE
  5
E4
100
AcDbEntity
100
AcDbLine
  8
layer 1
 62
256
370
-1
 48
1.0
  6
ByLayer
 10
0.59375
 20
0.171875
 30
0.0
 11
0.578125
 21
0.1875
 31
0.0
  0
LINE
  5
E5
100
AcDbEntity
100
AcDbLine
  8
layer 1
 62
256
370
-1
 48
1.0
  6
ByLayer
 10
0.34375
 20
0.171875
 30
0.0
 11
0.3125
 21
0.203125
 31
0.0
  0
XLINE
  5
E6
100
AcDbEntity
100
AcDbLine
  8
0
 62
256
370
-1
 48
1.0
  6
ByLayer
 10
0.0
 20
0.0
 30
0.0
 11
0.0
 21
0.0
 31
1.0
  0
XLINE
  5
E7
100
AcDbEntity
100
AcDbLine
  8
0
 62
256
370
-1
 48
1.0
  6
ByLayer
 10
0.0
 20
0.0
 30
0.0
 11
0.0
 21
0.0
 31
1.0
  0
XLINE
  5
E8
100
AcDbEntity
100
AcDbLine
  8
0
 62
256
370
-1
 48
1.0
  6
ByLayer
 10
0.0
 20
0.0
 30
0.0
 11
0.0
 21
0.0
 31
1.0
  0
XLINE
  5
E9
100
AcDbEntity
100
AcDbLine
  8
0
 62
256
370
-1
 48
1.0
  6
ByLayer
 10
0.0
 20
0.0
 30
0.0
 11
0.0
 21
0.0
 31
1.0
  0
XLINE
  5
EA
100
AcDbEntity
100
AcDbLine
  8
0
 62
256
370
-1
 48
1.0
  6
ByLayer
 10
0.0
 20
0.0
 30
0.0
 11
0.0
 21
0.0
 31
1.0
  0
XLINE
  5
EB
100
AcDbEntity
100
AcDbLine
  8
0
 62
256
370
-1
 48
1.0
  6
ByLayer
 10
0.0
 20
0.0
 30
0.0
 11
0.0
 21
0.0
 31
1.0
  0
XLINE
  5
EC
100
AcDbEntity
100
AcDbLine
  8
0
 62
256
370
-1
 48
1.0
  6
ByLayer
 10
0.0
 20
0.0
 30
0.0
 11
0.0
 21
0.0
 31
1.0
  0
XLINE
  5
ED
100
AcDbEntity
100
AcDbLine
  8
0
 62
256
370
-1
 48
1.0
  6
ByLayer
 10
0.0
 20
0.0
 30
0.0
 11
0.0
 21
0.0
 31
1.0
  0
XLINE
  5
EE
100
AcDbEntity
100
AcDbLine
  8
0
 62
256
370
-1
 48
1.0
  6
ByLayer
 10
0.0
 20
0.0
 30
0.0
 11
0.0
 21
0.0
 31
1.0
  0
XLINE
  5
EF
100
AcDbEntity
100
AcDbLine
  8
0
 62
256
370
-1
 48
1.0
  6
ByLayer
 10
0.0
 20
0.0
 30
0.0
 11
0.0
 21
0.0
 31
1.0
  0
XLINE
  5
F0
100
AcDbEntity
100
AcDbLine
  8
0
 62
256
370
-1
 48
1.0
  6
ByLayer
 10
0.0
 20
0.0
 30
0.0
 11
0.0
 21
0.0
 31
1.0
  0
XLINE
  5
F1
100
AcDbEntity
100
AcDbLine
  8
0
 62
256
370
-1
 48
1.0
  6
ByLayer
 10
0.0
 20
0.0
 30
0.0
 11
0.0
 21
0.0
 31
1.0
  0
XLINE
  5
F2
100
AcDbEntity
100
AcDbLine
  8
0
 62
256
370
-1
 48
1.0
  6
ByLayer
 10
0.0
 20
0.0
 30
0.0
 11
0.0
 21
0.0
 31
1.0
  0
XLINE
  5
F3
100
AcDbEntity
100
AcDbLine
  8
0
 62
256
370
-1
 48
1.0
  6
ByLayer
 10
0.0
 20
0.0
 30
0.0
 11
0.0
 21
0.0
 31
1.0
  0
XLINE
  5
F4
100
AcDbEntity
100
AcDbLine
  8
0
 62
256
370
-1
 48
1.0
  6
ByLayer
 10
0.0
 20
0.0
 30
0.0
 11
0.0
 21
0.0
 31
1.0
  0
XLINE
  5
F5
100
AcDbEntity
100
AcDbLine
  8
0
 62
256
370
-1
 48
1.0
  6
ByLayer
 10
0.0
 20
0.0
 30
0.0
 11
0.0
 21
0.0
 31
1.0
  0
XLINE
  5
F6
100
AcDbEntity
100
AcDbLine
  8
0
 62
256
370
-1
 48
1.0
  6
ByLayer
 10
0.0
 20
0.0
 30
0.0
 11
0.0
 21
0.0
 31
1.0
  0
XLINE
  5
F7
100
AcDbEntity
100
AcDbLine
  8
0
 62
256
370
-1
 48
1.0
  6
ByLayer
 10
0.0
 20
0.0
 30
0.0
 11
0.0
 21
0.0
 31
1.0
  0
XLINE
  5
F8
100
AcDbEntity
100
AcDbLine
  8
0
 62
256
370
-1
 48
1.0
  6
ByLayer
 10
0.0
 20
0.0
 30
0.0
 11
0.0
 21
0.0
 31
1.0
  0
XLINE
  5
F9
100
AcDbEntity
100
AcDbLine
  8
0
 62
256
370
-1
 48
1.0
  6
ByLayer
 10
0.0
 20
0.0
 30
0.0
 11
0.0
 21
0.0
 31
1.0
  0
XLINE
  5
FA
100
AcDbEntity
100
AcDbLine
  8
0
 62
256
370
-1
 48
1.0
  6
ByLayer
 10
0.0
 20
0.0
 30
0.0
 11
0.0
 21
0.0
 31
1.0
  0
XLINE
  5
FB
100
AcDbEntity
100
AcDbLine
  8
0
 62
256
370
-1
 48
1.0
  6
ByLayer
 10
0.0
 20
0.0
 30
0.0
 11
0.0
 21
0.0
 31
1.0
  0
XLINE
  5
FC
100
AcDbEntity
100
AcDbLine
  8
0
 62
256
370
-1
 48
1.0
  6
ByLayer
 10
0.0
 20
0.0
 30
0.0
 11
0.0
 21
0.0
 31
1.0
  0
XLINE
  5
FD
100
AcDbEntity
100
AcDbLine
  8
0
 62
256
370
-1
 48
1.0
  6
ByLayer
 10
0.0
 20
0.0
 30
0.0
 11
0.0
 21
0.0
 31
1.0
  0
XLINE
  5
FE
100
AcDbEntity
100
AcDbLine
  8
0
 62
256
370
-1
 48
1.0
  6
ByLayer
 10
0.0
 20
0.0
 30
0.0
 11
0.0
 21
0.0
 31
1.0
  0
XLINE
  5
FF
100
AcDbEntity
100
AcDbLine
  8
0
 62
256
370
-1
 48
1.0
  6
ByLayer
 10
0.0
 20
0.0
 30
0.0
 11
0.0
 21
0.0
 31
1.0
  0
LINE
  5
100
100
AcDbEntity
100
AcDbLine
  8
layer 1
 62
256
370
-1
 48
1.0
  6
ByLayer
 10
1.28125
 20
0.234375
 30
0.0
 11
1.28125
 21
0.15625
 31
0.0
  0
LINE
  5
101
100
AcDbEntity
100
AcDbLine
  8
layer 1
 62
256
370
-1
 48
1.0
  6
ByLayer
 10
1.34375
 20
0.234375
 30
0.0
 11
1.34375
 21
0.15625
 31
0.0
  0
XLINE
  5
102
100
AcDbEntity
100
AcDbLine
  8
0
 62
256
370
-1
 48
1.0
  6
ByLayer
 10
0.0
 20
0.0
 30
0.0
 11
0.0
 21
0.0
 31
1.0
  0
XLINE
  5
103
100
AcDbEntity
100
AcDbLine
  8
0
 62
256
370
-1
 48
1.0
  6
ByLayer
 10
0.0
 20
0.0
 30
0.0
 11
0.0
 21
0.0
 31
1.0
  0
XLINE
  5
104
100
AcDbEntity
100
AcDbLine
  8
0
 62
256
370
-1
 48
1.0
  6
ByLayer
 10
0.0
 20
0.0
 30
0.0
 11
0.0
 21
0.0
 31
1.0
  0
XLINE
  5
105
100
AcDbEntity
100
AcDbLine
  8
0
 62
256
370
-1
 48
1.0
  6
ByLayer
 10
0.0
 20
0.0
 30
0.0
 11
0.0
 21
0.0
 31
1.0
  0
XLINE
  5
106
100
AcDbEntity
100
AcDbLine
  8
0
 62
256
370
-1
 48
1.0
  6
ByLayer
 10
0.0
 20
0.0
 30
0.0
 11
0.0
 21
0.0
 31
1.0
  0
XLINE
  5
107
100
AcDbEntity
100
AcDbLine
  8
0
 62
256
370
-1
 48
1.0
  6
ByLayer
 10
0.0
 20
0.0
 30
0.0
 11
0.0
 21
0.0
 31
1.0
  0
XLINE
  5
108
100
AcDbEntity
100
AcDbLine
  8
0
 62
256
370
-1
 48
1.0
  6
ByLayer
 10
0.0
 20
0.0
 30
0.0
 11
0.0
 21
0.0
 31
1.0
  0
XLINE
  5
109
100
AcDbEntity
100
AcDbLine
  8
0
 62
256
370
-1
 48
1.0
  6
ByLayer
 10
0.0
 20
0.0
 30
0.0
 11
0.0
 21
0.0
 31
1.0
  0
XLINE
  5
10A
100
AcDbEntity
100
AcDbLine
  8
0
 62
256
370
-1
 48
1.0
  6
ByLayer
 10
0.0
 20
0.0
 30
0.0
 11
0.0
 21
0.0
 31
1.0
  0
XLINE
  5
10B
100
AcDbEntity
100
AcDbLine
  8
0
 62
256
370
-1
 48
1.0
  6
ByLayer
 10
0.0
 20
0.0
 30
0.0
 11
0.0
 21
0.0
 31
1.0
  0
XLINE
  5
10C
100
AcDbEntity
100
AcDbLine
  8
0
 62
256
370
-1
 48
1.0
  6
ByLayer
 10
0.0
 20
0.0
 30
0.0
 11
0.0
 21
0.0
 31
1.0
  0
XLINE
  5
10D
100
AcDbEntity
100
AcDbLine
  8
0
 62
256
370
-1
 48
1.0
  6
ByLayer
 10
0.0
 20
0.0
 30
0.0
 11
0.0
 21
0.0
 31
1.0
  0
XLINE
  5
10E
100
AcDbEntity
100
AcDbLine
  8
0
 62
256
370
-1
 48
1.0
  6
ByLayer
 10
0.0
 20
0.0
 30
0.0
 11
0.0
 21
0.0
 31
1.0
  0
XLINE
  5
10F
100
AcDbEntity
100
AcDbLine
  8
0
 62
256
370
-1
 48
1.0
  6
ByLayer
 10
0.0
 20
0.0
 30
0.0
 11
0.0
 21
0.0
 31
1.0
  0
XLINE
  5
110
100
AcDbEntity
100
AcDbLine
  8
0
 62
256
370
-1
 48
1.0
  6
ByLayer
 10
0.0
 20
0.0
 30
0.0
 11
0.0
 21
0.0
 31
1.0
  0
XLINE
  5
111
100
AcDbEntity
100
AcDbLine
  8
0
 62
256
370
-1
 48
1.0
  6
ByLayer
 10
0.0
 20
0.0
 30
0.0
 11
0.0
 21
0.0
 31
1.0
  0
XLINE
  5
112
100
AcDbEntity
100
AcDbLine
  8
0
 62
256
370
-1
 48
1.0
  6
ByLayer
 10
0.0
 20
0.0
 30
0.0
 11
0.0
 21
0.0
 31
1.0
  0
XLINE
  5
113
100
AcDbEntity
100
AcDbLine
  8
0
 62
256
370
-1
 48
1.0
  6
ByLayer
 10
0.0
 20
0.0
 30
0.0
 11
0.0
 21
0.0
 31
1.0
  0
XLINE
  5
114
100
AcDbEntity
100
AcDbLine
  8
0
 62
256
370
-1
 48
1.0
  6
ByLayer
 10
0.0
 20
0.0
 30
0.0
 11
0.0
 21
0.0
 31
1.0
  0
XLINE
  5
115
100
AcDbEntity
100
AcDbLine
  8
0
 62
256
370
-1
 48
1.0
  6
ByLayer
 10
0.0
 20
0.0
 30
0.0
 11
0.0
 21
0.0
 31
1.0
  0
XLINE
  5
116
100
AcDbEntity
100
AcDbLine
  8
0
 62
256
370
-1
 48
1.0
  6
ByLayer
 10
0.0
 20
0.0
 30
0.0
 11
0.0
 21
0.0
 31
1.0
  0
XLINE
  5
117
100
AcDbEntity
100
AcDbLine
  8
0
 62
256
370
-1
 48
1.0
  6
ByLayer
 10
0.0
 20
0.0
 30
0.0
 11
0.0
 21
0.0
 31
1.0
  0
XLINE
  5
118
100
AcDbEntity
100
AcDbLine
  8
0
 62
256
370
-1
 48
1.0
  6
ByLayer
 10
0.0
 20
0.0
 30
0.0
 11
0.0
 21
0.0
 31
1.0
  0
XLINE
  5
119
100
AcDbEntity
100
AcDbLine
  8
0
 62
256
370
-1
 48
1.0
  6
ByLayer
 10
0.0
 20
0.0
 30
0.0
 11
0.0
 21
0.0
 31
1.0
  0
XLINE
  5
11A
100
AcDbEntity
100
AcDbLine
  8
0
 62
256
370
-1
 48
1.0
  6
ByLayer
 10
0.0
 20
0.0
 30
0.0
 11
0.0
 21
0.0
 31
1.0
  0
ARC
  5
11B
100
AcDbEntity
  8
layer 1
 62
256
370
-1
 48
1.0
  6
ByLayer
100
AcDbCircle
 10
1.8125
 20
0.1875
 30
0.0
 40
0.0625
100
AcDbArc
 50
119.9999999999999858
 51
59.9999999999999929
  0
CIRCLE
  5
11C
100
AcDbEntity
100
AcDbCircle
  8
layer 1
 62
256
370
-1
 48
1.0
  6
ByLayer
 10
1.5625
 20
0.1875
 30
0.0
 40
0.0625
  0
ARC
  5
11D
100
AcDbEntity
  8
layer 1
 62
256
370
-1
 48
1.0
  6
ByLayer
100
AcDbCircle
 10
2.0625
 20
0.1875
 30
0.0
 40
0.0625
100
AcDbArc
 50
120.0000000000000142
 51
150.0000000000001705
  0
ARC
  5
11E
100
AcDbEntity
  8
layer 1
 62
256
370
-1
 48
1.0
  6
ByLayer
100
AcDbCircle
 10
2.0625
 20
0.1875
 30
0.0
 40
0.0625
100
AcDbArc
 50
29.9999999999998508
 51
59.9999999999999929
  0
ARC
  5
11F
100
AcDbEntity
  8
layer 1
 62
256
370
-1
 48
1.0
  6
ByLayer
100
AcDbCircle
 10
2.0625
 20
0.1875
 30
0.0
 40
0.0625
100
AcDbArc
 50
209.9999999999998295
 51
330.0000000000001137
  0
LINE
  5
120
100
AcDbEntity
100
AcDbLine
  8
layer 2
 62
256
370
-1
 48
1.0
  6
ByLayer
 10
1.25
 20
0.125
 30
0.0
 11
1.375
 21
0.125
 31
0.0
  0
XLINE
  5
121
100
AcDbEntity
100
AcDbLine
  8
0
 62
256
370
-1
 48
1.0
  6
ByLayer
 10
1.78125
 20
0.265625
 30
0.0
 11
0.0
 21
1.0
 31
0.0
  0
XLINE
  5
122
100
AcDbEntity
100
AcDbLine
  8
0
 62
256
370
-1
 48
1.0
  6
ByLayer
 10
1.84375
 20
0.265625
 30
0.0
 11
0.0
 21
1.0
 31
0.0
  0
ENDSEC
  0
SECTION
  2
OBJECTS
  0
DICTIONARY
  5
C
100
AcDbDictionary
280
0
281
1
  3
ACAD_GROUP
350
D
  3
ACAD_LAYOUT
350
1A
  3
ACAD_MLINESTYLE
350
17
  3
ACAD_PLOTSETTINGS
350
19
  3
ACAD_PLOTSTYLENAME
350
E
  3
AcDbVariableDictionary
350
123
  3
QCAD_OBJECTS
350
124
  0
DICTIONARY
  5
D
100
AcDbDictionary
280
0
281
1
  0
ACDBDICTIONARYWDFLT
  5
E
100
AcDbDictionary
281
1
  3
Normal
350
F
100
AcDbDictionaryWithDefault
340
F
  0
ACDBPLACEHOLDER
  5
F
  0
DICTIONARY
  5
17
100
AcDbDictionary
280
0
281
1
  3
Standard
350
18
  0
MLINESTYLE
  5
18
100
AcDbMlineStyle
  2
STANDARD
 70
0
  3

 62
256
 51
90.0
 52
90.0
 71
2
 49
0.5
 62
256
  6
BYLAYER
 49
-0.5
 62
256
  6
BYLAYER
  0
DICTIONARY
  5
19
100
AcDbDictionary
280
0
281
1
  0
DICTIONARY
  5
1A
100
AcDbDictionary
281
1
  3
Layout1
350
1E
  3
Layout2
350
26
  3
Model
350
22
  0
LAYOUT
  5
1E
100
AcDbPlotSettings
  1

  2
none_device
  4

  6

 40
0.0
 41
0.0
 42
0.0
 43
0.0
 44
0.0
 45
0.0
 46
0.0
 47
0.0
 48
0.0
 49
0.0
140
0.0
141
0.0
142
1.0
143
1.0
 70
688
 72
0
 73
0
 74
5
  7

 75
16
147
1.0
148
0.0
149
0.0
100
AcDbLayout
  1
Layout1
 70
1
 71
1
 10
0.0
 20
0.0
 11
420.0
 21
297.0
 12
0.0
 22
0.0
 32
0.0
 14
100000000000000000000.0
 24
100000000000000000000.0
 34
100000000000000000000.0
 15
-100000000000000000000.0
 25
-100000000000000000000.0
 35
-100000000000000000000.0
146
0.0
 13
0.0
 23
0.0
 33
0.0
 16
1.0
 26
0.0
 36
0.0
 17
0.0
 27
1.0
 37
0.0
 76
0
330
1B
  0
LAYOUT
  5
22
100
AcDbPlotSettings
  1

  2
none_device
  4

  6

 40
0.0
 41
0.0
 42
0.0
 43
0.0
 44
0.0
 45
0.0
 46
0.0
 47
0.0
 48
0.0
 49
0.0
140
0.0
141
0.0
142
1.0
143
1.0
 70
1712
 72
0
 73
0
 74
0
  7

 75
0
147
1.0
148
0.0
149
0.0
100
AcDbLayout
  1
Model
 70
1
 71
0
 10
0.0
 20
0.0
 11
12.0
 21
9.0
 12
0.0
 22
0.0
 32
0.0
 14
0.0
 24
0.0
 34
0.0
 15
0.0
 25
0.0
 35
0.0
146
0.0
 13
0.0
 23
0.0
 33
0.0
 16
1.0
 26
0.0
 36
0.0
 17
0.0
 27
1.0
 37
0.0
 76
0
330
1F
  0
LAYOUT
  5
26
100
AcDbPlotSettings
  1

  2
none_device
  4

  6

 40
0.0
 41
0.0
 42
0.0
 43
0.0
 44
0.0
 45
0.0
 46
0.0
 47
0.0
 48
0.0
 49
0.0
140
0.0
141
0.0
142
1.0
143
1.0
 70
688
 72
0
 73
0
 74
5
  7

 75
16
147
1.0
148
0.0
149
0.0
100
AcDbLayout
  1
Layout2
 70
1
 71
2
 10
0.0
 20
0.0
 11
12.0
 21
9.0
 12
0.0
 22
0.0
 32
0.0
 14
0.0
 24
0.0
 34
0.0
 15
0.0
 25
0.0
 35
0.0
146
0.0
 13
0.0
 23
0.0
 33
0.0
 16
1.0
 26
0.0
 36
0.0
 17
0.0
 27
1.0
 37
0.0
 76
0
330
23
  0
DICTIONARY
  5
123
100
AcDbDictionary
281
1
  3
DIMASSOC
350
126
  3
HIDETEXT
350
125
  0
DICTIONARYVAR
  5
125
100
DictionaryVariables
280
0
  1
2
  0
DICTIONARYVAR
  5
126
100
DictionaryVariables
280
0
  1
1
  0
DICTIONARY
  5
124
100
AcDbDictionary
281
1
  3
ColorSettings/BackgroundColor
350
127
  3
ColorSettings/ColorMode
350
128
  3
Grid/DisplayGrid00
350
129
  3
Grid/DisplayGrid01
350
12A
  3
Grid/DisplayGrid02
350
12B
  3
Grid/DisplayGrid03
350
12C
  3
Grid/GridSpacingX00
350
12D
  3
Grid/GridSpacingX01
350
12E
  3
Grid/GridSpacingX02
350
12F
  3
Grid/GridSpacingX03
350
130
  3
Grid/GridSpacingY00
350
131
  3
Grid/GridSpacingY01
350
132
  3
Grid/GridSpacingY02
350
133
  3
Grid/GridSpacingY03
350
134
  3
Grid/IsometricGrid00
350
135
  3
Grid/IsometricGrid01
350
136
  3
Grid/IsometricGrid02
350
137
  3
Grid/IsometricGrid03
350
138
  3
Grid/IsometricProjection00
350
139
  3
Grid/IsometricProjection01
350
13A
  3
Grid/IsometricProjection02
350
13B
  3
Grid/IsometricProjection03
350
13C
  3
Grid/MetaGridSpacingX00
350
13D
  3
Grid/MetaGridSpacingX01
350
13E
  3
Grid/MetaGridSpacingX02
350
13F
  3
Grid/MetaGridSpacingX03
350
140
  3
Grid/MetaGridSpacingY00
350
141
  3
Grid/MetaGridSpacingY01
350
142
  3
Grid/MetaGridSpacingY02
350
143
  3
Grid/MetaGridSpacingY03
350
144
  3
MultiPageSettings/Columns
350
145
  3
MultiPageSettings/GlueMarginsBottom
350
146
  3
MultiPageSettings/GlueMarginsLeft
350
147
  3
MultiPageSettings/GlueMarginsRight
350
148
  3
MultiPageSettings/GlueMarginsTop
350
149
  3
MultiPageSettings/PrintCropMarks
350
14A
  3
MultiPageSettings/Rows
350
14B
  3
PageSettings/OffsetX
350
14C
  3
PageSettings/OffsetY
350
14D
  3
PageSettings/PageOrientation
350
14E
  3
PageSettings/PaperHeight
350
14F
  3
PageSettings/PaperWidth
350
150
  3
PageSettings/Scale
350
151
  3
PageSettings/ShowPaperBorders
350
152
  3
QCADVersion
350
153
  3
UnitSettings/PaperUnit
350
154
  3
ViewportCenter
350
155
  3
ViewportHeight
350
156
  3
ViewportWidth
350
157
  0
XRECORD
  5
127
330
124
100
AcDbXrecord
280
1
1000
White
  0
XRECORD
  5
128
330
124
100
AcDbXrecord
280
1
1000
FullColor
  0
XRECORD
  5
129
330
124
100
AcDbXrecord
280
1
290
1
  0
XRECORD
  5
12A
330
124
100
AcDbXrecord
280
1
290
1
  0
XRECORD
  5
12B
330
124
100
AcDbXrecord
280
1
290
1
  0
XRECORD
  5
12C
330
124
100
AcDbXrecord
280
1
290
1
  0
XRECORD
  5
12D
330
124
100
AcDbXrecord
280
1
1000
auto
  0
XRECORD
  5
12E
330
124
100
AcDbXrecord
280
1
1000
auto
  0
XRECORD
  5
12F
330
124
100
AcDbXrecord
280
1
1000
auto
  0
XRECORD
  5
130
330
124
100
AcDbXrecord
280
1
1000
auto
  0
XRECORD
  5
131
330
124
100
AcDbXrecord
280
1
1000
auto
  0
XRECORD
  5
132
330
124
100
AcDbXrecord
280
1
1000
auto
  0
XRECORD
  5
133
330
124
100
AcDbXrecord
280
1
1000
auto
  0
XRECORD
  5
134
330
124
100
AcDbXrecord
280
1
1000
auto
  0
XRECORD
  5
135
330
124
100
AcDbXrecord
280
1
290
0
  0
XRECORD
  5
136
330
124
100
AcDbXrecord
280
1
290
0
  0
XRECORD
  5
137
330
124
100
AcDbXrecord
280
1
290
0
  0
XRECORD
  5
138
330
124
100
AcDbXrecord
280
1
290
0
  0
XRECORD
  5
139
330
124
100
AcDbXrecord
280
1
 90
0
  0
XRECORD
  5
13A
330
124
100
AcDbXrecord
280
1
 90
0
  0
XRECORD
  5
13B
330
124
100
AcDbXrecord
280
1
 90
0
  0
XRECORD
  5
13C
330
124
100
AcDbXrecord
280
1
 90
0
  0
XRECORD
  5
13D
330
124
100
AcDbXrecord
280
1
1000
auto
  0
XRECORD
  5
13E
330
124
100
AcDbXrecord
280
1
1000
auto
  0
XRECORD
  5
13F
330
124
100
AcDbXrecord
280
1
1000
auto
  0
XRECORD
  5
140
330
124
100
AcDbXrecord
280
1
1000
auto
  0
XRECORD
  5
141
330
124
100
AcDbXrecord
280
1
1000
auto
  0
XRECORD
  5
142
330
124
100
AcDbXrecord
280
1
1000
auto
  0
XRECORD
  5
143
330
124
100
AcDbXrecord
280
1
1000
auto
  0
XRECORD
  5
144
330
124
100
AcDbXrecord
280
1
1000
auto
  0
XRECORD
  5
145
330
124
100
AcDbXrecord
280
1
 90
1
  0
XRECORD
  5
146
330
124
100
AcDbXrecord
280
1
 40
0.5
  0
XRECORD
  5
147
330
124
100
AcDbXrecord
280
1
 40
0.5
  0
XRECORD
  5
148
330
124
100
AcDbXrecord
280
1
 40
0.5
  0
XRECORD
  5
149
330
124
100
AcDbXrecord
280
1
 40
0.5
  0
XRECORD
  5
14A
330
124
100
AcDbXrecord
280
1
290
0
  0
XRECORD
  5
14B
330
124
100
AcDbXrecord
280
1
 90
1
  0
XRECORD
  5
14C
330
124
100
AcDbXrecord
280
1
 40
0.0
  0
XRECORD
  5
14D
330
124
100
AcDbXrecord
280
1
 40
0.0
  0
XRECORD
  5
14E
330
124
100
AcDbXrecord
280
1
1000
Portrait
  0
XRECORD
  5
14F
330
124
100
AcDbXrecord
280
1
 40
11.0
  0
XRECORD
  5
150
330
124
100
AcDbXrecord
280
1
 40
8.5
  0
XRECORD
  5
151
330
124
100
AcDbXrecord
280
1
1000
1:1
  0
XRECORD
  5
152
330
124
100
AcDbXrecord
280
1
290
1
  0
XRECORD
  5
153
330
124
100
AcDbXrecord
280
1
1000
3.15.4
  0
XRECORD
  5
154
330
124
100
AcDbXrecord
280
1
 90
1
  0
XRECORD
  5
156
330
124
100
AcDbXrecord
280
1
 40
1.8849229023363225
  0
XRECORD
  5
157
330
124
100
AcDbXrecord
280
1
 40
3.2684951770409221
  0
ENDSEC
  0
EOF
