999
dxflib 3.12.2.0
  0
SECTION
  2
HEADER
  9
$ACADVER
  1
AC1015
  9
$HANDSEED
  5
FFFF
  9
$ANGBASE
 50
0.0
  9
$ATTMODE
 70
1
  9
$AUNITS
 70
0
  9
$AUPREC
 70
0
  9
$CELTSCALE
 40
1.0
  9
$CHAMFERA
 40
0.0
  9
$CHAMFERB
 40
0.0
  9
$CHAMFERC
 40
0.0
  9
$CHAMFERD
 40
0.0
  9
$CMLJUST
 70
0
  9
$CMLSCALE
 40
1.0
  9
$DIMADEC
 70
0
  9
$DIMALTD
 70
2
  9
$DIMALTF
 40
25.3999999999999986
  9
$DIMALTRND
 40
0.0
  9
$DIMALTTD
 70
2
  9
$DIMALTTZ
 70
0
  9
$DIMALTU
 70
2
  9
$DIMALTZ
 70
0
  9
$DIMAPOST
  1

  9
$DIMASZ
 40
0.125
  9
$DIMATFIT
 70
3
  9
$DIMAUNIT
 70
0
  9
$DIMAZIN
 70
2
  9
$DIMCEN
 40
0.09
  9
$DIMDEC
 70
4
  9
$DIMDLE
 40
0.0
  9
$DIMDLI
 40
0.38
  9
$DIMDSEP
 70
46
  9
$DIMEXE
 40
0.0625
  9
$DIMEXO
 40
0.03125
  9
$DIMFRAC
 70
0
  9
$DIMGAP
 40
0.03125
  9
$DIMJUST
 70
0
  9
$DIMLFAC
 40
1.0
  9
$DIMLUNIT
 70
3
  9
$DIMLWD
 70
-2
  9
$DIMLWE
 70
-2
  9
$DIMPOST
  1

  9
$DIMRND
 40
0.0
  9
$DIMSCALE
 40
1.0
  9
$DIMTAD
 70
0
  9
$DIMTDEC
 70
4
  9
$DIMTFAC
 40
1.0
  9
$DIMTM
 40
0.0
  9
$DIMTOLJ
 70
1
  9
$DIMTP
 40
0.0
  9
$DIMTSZ
 40
0.0
  9
$DIMTVP
 40
0.0
  9
$DIMTXT
 40
0.125
  9
$DIMTZIN
 70
0
  9
$DIMZIN
 70
8
  9
$DWGCODEPAGE
  3
ANSI_1252
  9
$ELEVATION
 40
0.0
  9
$EXTMAX
 10
-100000000000000000000.0
 20
-100000000000000000000.0
 30
-100000000000000000000.0
  9
$EXTMIN
 10
100000000000000000000.0
 20
100000000000000000000.0
 30
100000000000000000000.0
  9
$FILLETRAD
 40
0.5
  9
$INSBASE
 10
0.0
 20
0.0
 30
0.0
  9
$INSUNITS
 70
1
  9
$LIMMAX
 10
12.0
 20
9.0
  9
$LIMMIN
 10
0.0
 20
0.0
  9
$LTSCALE
 40
1.0
  9
$LUNITS
 70
2
  9
$LUPREC
 70
4
  9
$MAXACTVP
 70
2
  9
$MEASUREMENT
 70
0
  9
$PDMODE
 70
0
  9
$PDSIZE
 40
0.0
  9
$PELEVATION
 40
0.0
  9
$PEXTMAX
 10
-100000000000000000000.0
 20
-100000000000000000000.0
 30
-100000000000000000000.0
  9
$PEXTMIN
 10
100000000000000000000.0
 20
100000000000000000000.0
 30
100000000000000000000.0
  9
$PINSBASE
 10
0.0
 20
0.0
 30
0.0
  9
$PLIMMAX
 10
12.0
 20
9.0
  9
$PLIMMIN
 10
0.0
 20
0.0
  9
$PLINEWID
 40
0.0
  9
$PROXYGRAPHICS
 70
1
  9
$PUCSORG
 10
0.0
 20
0.0
 30
0.0
  9
$PUCSXDIR
 10
1.0
 20
0.0
 30
0.0
  9
$PUCSYDIR
 10
0.0
 20
1.0
 30
0.0
  9
$SHADEDGE
 70
3
  9
$SHADEDIF
 70
70
  9
$SKETCHINC
 40
0.1
  9
$SPLINESEGS
 70
8
  9
$SPLINETYPE
 70
6
  9
$SURFTAB1
 70
6
  9
$SURFTAB2
 70
6
  9
$SURFTYPE
 70
6
  9
$SURFU
 70
6
  9
$SURFV
 70
6
  9
$TEXTSIZE
 40
2.5
  9
$THICKNESS
 40
0.0
  9
$TRACEWID
 40
0.05
  9
$TREEDEPTH
 70
3020
  9
$UCSORG
 10
0.0
 20
0.0
 30
0.0
  9
$UCSXDIR
 10
1.0
 20
0.0
 30
0.0
  9
$UCSYDIR
 10
0.0
 20
1.0
 30
0.0
  9
$UNITMODE
 70
0
  9
$USERI1
 70
0
  9
$USERI2
 70
0
  9
$USERI3
 70
0
  9
$USERI4
 70
0
  9
$USERI5
 70
0
  9
$USERR1
 40
0.0
  9
$USERR2
 40
0.0
  9
$USERR3
 40
0.0
  9
$USERR4
 40
0.0
  9
$USERR5
 40
0.0
  0
ENDSEC
  0
SECTION
  2
TABLES
  0
TABLE
  2
VPORT
  5
8
100
AcDbSymbolTable
 70
1
  0
VPORT
  5
30
100
AcDbSymbolTableRecord
100
AcDbViewportTableRecord
  2
*Active
 70
0
 10
0.0
 20
0.0
 11
1.0
 21
1.0
 12
286.3055555555554861
 22
148.5
 13
0.0
 23
0.0
 14
10.0
 24
10.0
 15
10.0
 25
10.0
 16
0.0
 26
0.0
 36
1.0
 17
0.0
 27
0.0
 37
0.0
 40
297.0
 41
1.92798353909465
 42
50.0
 43
0.0
 44
0.0
 50
0.0
 51
0.0
 71
0
 72
100
 73
1
 74
3
 75
1
 76
1
 77
0
 78
0
281
0
 65
1
110
0.0
120
0.0
130
0.0
111
1.0
121
0.0
131
0.0
112
0.0
122
1.0
132
0.0
 79
0
146
0.0
  0
ENDTAB
  0
TABLE
  2
LTYPE
  5
5
100
AcDbSymbolTable
 70
54
  0
LTYPE
  5
16
100
AcDbSymbolTableRecord
100
AcDbLinetypeTableRecord
  2
Continuous
 70
0
  3
Solid line
 72
65
 73
0
 40
0.0
  0
LTYPE
  5
31
100
AcDbSymbolTableRecord
100
AcDbLinetypeTableRecord
  2
ACAD_ISO15W100
 70
0
  3
ISO double-dash triple-dot __ __ . . . __ __ . .
 72
65
 73
10
 40
39.0
 49
12.0
 74
0
 49
-3.0
 74
0
 49
12.0
 74
0
 49
-3.0
 74
0
 49
0.0
 74
0
 49
-3.0
 74
0
 49
0.0
 74
0
 49
-3.0
 74
0
 49
0.0
 74
0
 49
-3.0
 74
0
  0
LTYPE
  5
32
100
AcDbSymbolTableRecord
100
AcDbLinetypeTableRecord
  2
CUTRIGHT2
 70
0
  3
G42 reversed----\----\----\----
 72
65
 73
2
 40
10.1600000000000001
 49
5.0800000000000001
 74
0
 49
5.0800000000000001
 74
0
  0
LTYPE
  5
33
100
AcDbSymbolTableRecord
100
AcDbLinetypeTableRecord
  2
HOT_WATER_SUPPLY
 70
0
  3
Hot water supply ---- HW ---- HW ---- HW ----
 72
65
 73
3
 40
22.8599999999999994
 49
12.6999999999999993
 74
0
 49
-5.0800000000000001
 74
0
 49
-5.0800000000000001
 74
0
  0
LTYPE
  5
34
100
AcDbSymbolTableRecord
100
AcDbLinetypeTableRecord
  2
DIVIDE
 70
0
  3
Divide ____ . . ____ . . ____ . . ____ . . ____
 72
65
 73
6
 40
31.75
 49
12.6999999999999993
 74
0
 49
-6.3499999999999996
 74
0
 49
0.0
 74
0
 49
-6.3499999999999996
 74
0
 49
0.0
 74
0
 49
-6.3499999999999996
 74
0
  0
LTYPE
  5
35
100
AcDbSymbolTableRecord
100
AcDbLinetypeTableRecord
  2
CUTRIGHT
 70
0
  3
G42 ----/----/-----/---
 72
65
 73
2
 40
10.1600000000000001
 49
5.0800000000000001
 74
0
 49
5.0800000000000001
 74
0
  0
LTYPE
  5
36
100
AcDbSymbolTableRecord
100
AcDbLinetypeTableRecord
  2
ACAD_ISO10W100
 70
0
  3
ISO dash dot __ . __ . __ . __ . __ . __ . __ . 
 72
65
 73
4
 40
18.0
 49
12.0
 74
0
 49
-3.0
 74
0
 49
0.0
 74
0
 49
-3.0
 74
0
  0
LTYPE
  5
37
100
AcDbSymbolTableRecord
100
AcDbLinetypeTableRecord
  2
CUTLEFT
 70
0
  3
G41 ----\----\----\----
 72
65
 73
2
 40
10.1600000000000001
 49
5.0800000000000001
 74
0
 49
5.0800000000000001
 74
0
  0
LTYPE
  5
38
100
AcDbSymbolTableRecord
100
AcDbLinetypeTableRecord
  2
GAS_LINE
 70
0
  3
Gas line ----GAS----GAS----GAS----GAS----GAS----GAS--
 72
65
 73
3
 40
24.129999999999999
 49
12.6999999999999993
 74
0
 49
-5.0800000000000001
 74
0
 49
-6.3499999999999996
 74
0
  0
LTYPE
  5
39
100
AcDbSymbolTableRecord
100
AcDbLinetypeTableRecord
  2
ACAD_ISO04W100
 70
0
  3
ISO long-dash dot ____ . ____ . ____ . ____ . _
 72
65
 73
4
 40
30.0
 49
24.0
 74
0
 49
-3.0
 74
0
 49
0.0
 74
0
 49
-3.0
 74
0
  0
LTYPE
  5
3A
100
AcDbSymbolTableRecord
100
AcDbLinetypeTableRecord
  2
CUTLEFT2
 70
0
  3
G41 reversed----/----/----/----
 72
65
 73
2
 40
10.1600000000000001
 49
5.0800000000000001
 74
0
 49
5.0800000000000001
 74
0
  0
LTYPE
  5
3B
100
AcDbSymbolTableRecord
100
AcDbLinetypeTableRecord
  2
CENTER2
 70
0
  3
Center (.5x) ___ _ ___ _ ___ _ ___ _ ___ _ ___
 72
65
 73
4
 40
28.5749999999999993
 49
19.0500000000000007
 74
0
 49
-3.1749999999999998
 74
0
 49
3.1749999999999998
 74
0
 49
-3.1749999999999998
 74
0
  0
LTYPE
  5
3C
100
AcDbSymbolTableRecord
100
AcDbLinetypeTableRecord
  2
ACAD_ISO11W100
 70
0
  3
ISO double-dash dot __ __ . __ __ . __ __ . __ _
 72
65
 73
6
 40
33.0
 49
12.0
 74
0
 49
-3.0
 74
0
 49
12.0
 74
0
 49
-3.0
 74
0
 49
0.0
 74
0
 49
-3.0
 74
0
  0
LTYPE
  5
3D
100
AcDbSymbolTableRecord
100
AcDbLinetypeTableRecord
  2
HIDDEN2
 70
0
  3
Hidden (.5x) _ _ _ _ _ _ _ _ _ _ _ _ _ _ _ _ _ 
 72
65
 73
2
 40
4.7624999999999993
 49
3.1749999999999998
 74
0
 49
-1.5874999999999999
 74
0
  0
LTYPE
  5
3E
100
AcDbSymbolTableRecord
100
AcDbLinetypeTableRecord
  2
BORDERX2
 70
0
  3
Border (2x) ____  ____  .  ____  ____  .  ___
 72
65
 73
6
 40
88.8999999999999915
 49
25.3999999999999986
 74
0
 49
-12.6999999999999993
 74
0
 49
25.3999999999999986
 74
0
 49
-12.6999999999999993
 74
0
 49
0.0
 74
0
 49
-12.6999999999999993
 74
0
  0
LTYPE
  5
3F
100
AcDbSymbolTableRecord
100
AcDbLinetypeTableRecord
  2
ACAD_ISO05W100
 70
0
  3
ISO long-dash double-dot ____ .. ____ .. ____ . 
 72
65
 73
6
 40
33.0
 49
24.0
 74
0
 49
-3.0
 74
0
 49
0.0
 74
0
 49
-3.0
 74
0
 49
0.0
 74
0
 49
-3.0
 74
0
  0
LTYPE
  5
40
100
AcDbSymbolTableRecord
100
AcDbLinetypeTableRecord
  2
DASHDOTX2
 70
0
  3
Dash dot (2x) ____  .  ____  .  ____  .  ___
 72
65
 73
4
 40
50.7999999999999972
 49
25.3999999999999986
 74
0
 49
-12.6999999999999993
 74
0
 49
0.0
 74
0
 49
-12.6999999999999993
 74
0
  0
LTYPE
  5
41
100
AcDbSymbolTableRecord
100
AcDbLinetypeTableRecord
  2
HIDDENX2
 70
0
  3
Hidden (2x) ____ ____ ____ ____ ____ ____ ____ 
 72
65
 73
2
 40
19.0499999999999972
 49
12.6999999999999993
 74
0
 49
-6.3499999999999996
 74
0
  0
LTYPE
  5
42
100
AcDbSymbolTableRecord
100
AcDbLinetypeTableRecord
  2
CENTERX2
 70
0
  3
Center (2x) ________  __  ________  __  _____
 72
65
 73
4
 40
101.5999999999999943
 49
63.5
 74
0
 49
-12.6999999999999993
 74
0
 49
12.6999999999999993
 74
0
 49
-12.6999999999999993
 74
0
  0
LTYPE
  5
43
100
AcDbSymbolTableRecord
100
AcDbLinetypeTableRecord
  2
BORDER2
 70
0
  3
Border (.5x) __.__.__.__.__.__.__.__.__.__.__.
 72
65
 73
6
 40
22.2249999999999979
 49
6.3499999999999996
 74
0
 49
-3.1749999999999998
 74
0
 49
6.3499999999999996
 74
0
 49
-3.1749999999999998
 74
0
 49
0.0
 74
0
 49
-3.1749999999999998
 74
0
  0
LTYPE
  5
44
100
AcDbSymbolTableRecord
100
AcDbLinetypeTableRecord
  2
DASHDOT2
 70
0
  3
Dash dot (.5x) _._._._._._._._._._._._._._._.
 72
65
 73
4
 40
12.6999999999999993
 49
6.3499999999999996
 74
0
 49
-3.1749999999999998
 74
0
 49
0.0
 74
0
 49
-3.1749999999999998
 74
0
  0
LTYPE
  5
45
100
AcDbSymbolTableRecord
100
AcDbLinetypeTableRecord
  2
ACAD_ISO12W100
 70
0
  3
ISO dash double-dot __ . . __ . . __ . . __ . . 
 72
65
 73
6
 40
21.0
 49
12.0
 74
0
 49
-3.0
 74
0
 49
0.0
 74
0
 49
-3.0
 74
0
 49
0.0
 74
0
 49
-3.0
 74
0
  0
LTYPE
  5
46
100
AcDbSymbolTableRecord
100
AcDbLinetypeTableRecord
  2
ACAD_ISO07W100
 70
0
  3
ISO dot . . . . . . . . . . . . . . . . . . . . 
 72
65
 73
2
 40
3.0
 49
0.0
 74
0
 49
-3.0
 74
0
  0
LTYPE
  5
47
100
AcDbSymbolTableRecord
100
AcDbLinetypeTableRecord
  2
ACAD_ISO06W100
 70
0
  3
ISO long-dash triple-dot ____ ... ____ ... ____
 72
65
 73
8
 40
36.0
 49
24.0
 74
0
 49
-3.0
 74
0
 49
0.0
 74
0
 49
-3.0
 74
0
 49
0.0
 74
0
 49
-3.0
 74
0
 49
0.0
 74
0
 49
-3.0
 74
0
  0
LTYPE
  5
48
100
AcDbSymbolTableRecord
100
AcDbLinetypeTableRecord
  2
CENTER
 70
0
  3
Center ____ _ ____ _ ____ _ ____ _ ____ _ ____
 72
65
 73
4
 40
50.7999999999999972
 49
31.75
 74
0
 49
-6.3499999999999996
 74
0
 49
6.3499999999999996
 74
0
 49
-6.3499999999999996
 74
0
  0
LTYPE
  5
49
100
AcDbSymbolTableRecord
100
AcDbLinetypeTableRecord
  2
HIDDEN
 70
0
  3
Hidden __ __ __ __ __ __ __ __ __ __ __ __ __ __
 72
65
 73
2
 40
9.5249999999999986
 49
6.3499999999999996
 74
0
 49
-3.1749999999999998
 74
0
  0
LTYPE
  5
4A
100
AcDbSymbolTableRecord
100
AcDbLinetypeTableRecord
  2
DOTX2
 70
0
  3
Dot (2x) .  .  .  .  .  .  .  .  .  .  .  .  .  .
 72
65
 73
2
 40
12.6999999999999993
 49
0.0
 74
0
 49
-12.6999999999999993
 74
0
  0
LTYPE
  5
4B
100
AcDbSymbolTableRecord
100
AcDbLinetypeTableRecord
  2
PHANTOM
 70
0
  3
Phantom ______  __  __  ______  __  __  ______ 
 72
65
 73
6
 40
63.5
 49
31.75
 74
0
 49
-6.3499999999999996
 74
0
 49
6.3499999999999996
 74
0
 49
-6.3499999999999996
 74
0
 49
6.3499999999999996
 74
0
 49
-6.3499999999999996
 74
0
  0
LTYPE
  5
4C
100
AcDbSymbolTableRecord
100
AcDbLinetypeTableRecord
  2
ACAD_ISO08W100
 70
0
  3
ISO long-dash short-dash ____ __ ____ __ ____ _
 72
65
 73
4
 40
36.0
 49
24.0
 74
0
 49
-3.0
 74
0
 49
6.0
 74
0
 49
-3.0
 74
0
  0
LTYPE
  5
4D
100
AcDbSymbolTableRecord
100
AcDbLinetypeTableRecord
  2
DASHEDX2
 70
0
  3
Dashed (2x) ____  ____  ____  ____  ____  ___
 72
65
 73
2
 40
38.0999999999999943
 49
25.3999999999999986
 74
0
 49
-12.6999999999999993
 74
0
  0
LTYPE
  5
4E
100
AcDbSymbolTableRecord
100
AcDbLinetypeTableRecord
  2
DRAINAGE
 70
0
  3
Drainage ---->---->---->----
 72
65
 73
2
 40
10.1600000000000001
 49
5.0800000000000001
 74
0
 49
5.0800000000000001
 74
0
  0
LTYPE
  5
4F
100
AcDbSymbolTableRecord
100
AcDbLinetypeTableRecord
  2
ACAD_ISO02W100
 70
0
  3
ISO dash __ __ __ __ __ __ __ __ __ __ __ __ __
 72
65
 73
2
 40
15.0
 49
12.0
 74
0
 49
-3.0
 74
0
  0
LTYPE
  5
50
100
AcDbSymbolTableRecord
100
AcDbLinetypeTableRecord
  2
PHANTOM2
 70
0
  3
Phantom (.5x) ___ _ _ ___ _ _ ___ _ _ ___ _ _
 72
65
 73
6
 40
31.75
 49
15.875
 74
0
 49
-3.1749999999999998
 74
0
 49
3.1749999999999998
 74
0
 49
-3.1749999999999998
 74
0
 49
3.1749999999999998
 74
0
 49
-3.1749999999999998
 74
0
  0
LTYPE
  5
51
100
AcDbSymbolTableRecord
100
AcDbLinetypeTableRecord
  2
DASHED2
 70
0
  3
Dashed (.5x) _ _ _ _ _ _ _ _ _ _ _ _ _ _ _ _ _ 
 72
65
 73
2
 40
9.5249999999999986
 49
6.3499999999999996
 74
0
 49
-3.1749999999999998
 74
0
  0
LTYPE
  5
52
100
AcDbSymbolTableRecord
100
AcDbLinetypeTableRecord
  2
ACAD_ISO09W100
 70
0
  3
ISO long-dash double-short-dash ____ __ __ ____
 72
65
 73
6
 40
45.0
 49
24.0
 74
0
 49
-3.0
 74
0
 49
6.0
 74
0
 49
-3.0
 74
0
 49
6.0
 74
0
 49
-3.0
 74
0
  0
LTYPE
  5
53
100
AcDbSymbolTableRecord
100
AcDbLinetypeTableRecord
  2
ACAD_ISO13W100
 70
0
  3
ISO double-dash double-dot __ __ . . __ __ . . _
 72
65
 73
8
 40
36.0
 49
12.0
 74
0
 49
-3.0
 74
0
 49
12.0
 74
0
 49
-3.0
 74
0
 49
0.0
 74
0
 49
-3.0
 74
0
 49
0.0
 74
0
 49
-3.0
 74
0
  0
LTYPE
  5
54
100
AcDbSymbolTableRecord
100
AcDbLinetypeTableRecord
  2
TRACKS
 70
0
  3
Tracks -|-|-|-|-|-|-|-|-|-|-|-|-|-|-|-|-|-|-|-|-|-|-|-|-
 72
65
 73
2
 40
7.6200000000000001
 49
3.8100000000000001
 74
0
 49
3.8100000000000001
 74
0
  0
LTYPE
  5
55
100
AcDbSymbolTableRecord
100
AcDbLinetypeTableRecord
  2
DRAINAGE2
 70
0
  3
Drainage reversed----<----<----<----
 72
65
 73
2
 40
10.1600000000000001
 49
5.0800000000000001
 74
0
 49
5.0800000000000001
 74
0
  0
LTYPE
  5
56
100
AcDbSymbolTableRecord
100
AcDbLinetypeTableRecord
  2
DOT2
 70
0
  3
Dot (.5x) ........................................
 72
65
 73
2
 40
3.1749999999999998
 49
0.0
 74
0
 49
-3.1749999999999998
 74
0
  0
LTYPE
  5
57
100
AcDbSymbolTableRecord
100
AcDbLinetypeTableRecord
  2
ZIGZAG
 70
0
  3
Zig zag /\/\/\/\/\/\/\/\/\/\/\/\/\/\/\/\/\/\/\/\/\/\/\/
 72
65
 73
4
 40
20.32254
 49
0.00254
 74
0
 49
-5.0800000000000001
 74
0
 49
-10.1600000000000001
 74
0
 49
-5.0800000000000001
 74
0
  0
LTYPE
  5
58
100
AcDbSymbolTableRecord
100
AcDbLinetypeTableRecord
  2
DASHED
 70
0
  3
Dashed __ __ __ __ __ __ __ __ __ __ __ __ __ _
 72
65
 73
2
 40
19.0499999999999972
 49
12.6999999999999993
 74
0
 49
-6.3499999999999996
 74
0
  0
LTYPE
  5
59
100
AcDbSymbolTableRecord
100
AcDbLinetypeTableRecord
  2
ACAD_ISO14W100
 70
0
  3
ISO dash triple-dot __ . . . __ . . . __ . . . _
 72
65
 73
8
 40
24.0
 49
12.0
 74
0
 49
-3.0
 74
0
 49
0.0
 74
0
 49
-3.0
 74
0
 49
0.0
 74
0
 49
-3.0
 74
0
 49
0.0
 74
0
 49
-3.0
 74
0
  0
LTYPE
  5
15
100
AcDbSymbolTableRecord
100
AcDbLinetypeTableRecord
  2
BYLAYER
 70
0
  3

 72
65
 73
0
 40
0.0
  0
LTYPE
  5
5A
100
AcDbSymbolTableRecord
100
AcDbLinetypeTableRecord
  2
PHANTOMX2
 70
0
  3
Phantom (2x) ____________    ____    ____   _
 72
65
 73
6
 40
127.0
 49
63.5
 74
0
 49
-12.6999999999999993
 74
0
 49
12.6999999999999993
 74
0
 49
-12.6999999999999993
 74
0
 49
12.6999999999999993
 74
0
 49
-12.6999999999999993
 74
0
  0
LTYPE
  5
14
100
AcDbSymbolTableRecord
100
AcDbLinetypeTableRecord
  2
BYBLOCK
 70
0
  3

 72
65
 73
0
 40
0.0
  0
LTYPE
  5
5B
100
AcDbSymbolTableRecord
100
AcDbLinetypeTableRecord
  2
DIVIDEX2
 70
0
  3
Divide (2x) ________  .  .  ________  .  .  _
 72
65
 73
6
 40
63.5
 49
25.3999999999999986
 74
0
 49
-12.6999999999999993
 74
0
 49
0.0
 74
0
 49
-12.6999999999999993
 74
0
 49
0.0
 74
0
 49
-12.6999999999999993
 74
0
  0
LTYPE
  5
5C
100
AcDbSymbolTableRecord
100
AcDbLinetypeTableRecord
  2
BORDER
 70
0
  3
Border __ __ . __ __ . __ __ . __ __ . __ __ .
 72
65
 73
6
 40
44.4499999999999957
 49
12.6999999999999993
 74
0
 49
-6.3499999999999996
 74
0
 49
12.6999999999999993
 74
0
 49
-6.3499999999999996
 74
0
 49
0.0
 74
0
 49
-6.3499999999999996
 74
0
  0
LTYPE
  5
5D
100
AcDbSymbolTableRecord
100
AcDbLinetypeTableRecord
  2
DIVIDE2
 70
0
  3
Divide (.5x) __..__..__..__..__..__..__..__.._
 72
65
 73
6
 40
15.875
 49
6.3499999999999996
 74
0
 49
-3.1749999999999998
 74
0
 49
0.0
 74
0
 49
-3.1749999999999998
 74
0
 49
0.0
 74
0
 49
-3.1749999999999998
 74
0
  0
LTYPE
  5
5E
100
AcDbSymbolTableRecord
100
AcDbLinetypeTableRecord
  2
DOT
 70
0
  3
Dot . . . . . . . . . . . . . . . . . . . . . . . .
 72
65
 73
2
 40
6.3499999999999996
 49
0.0
 74
0
 49
-6.3499999999999996
 74
0
  0
LTYPE
  5
5F
100
AcDbSymbolTableRecord
100
AcDbLinetypeTableRecord
  2
DASHDOT
 70
0
  3
Dash dot __ . __ . __ . __ . __ . __ . __ . __
 72
65
 73
4
 40
25.3999999999999986
 49
12.6999999999999993
 74
0
 49
-6.3499999999999996
 74
0
 49
0.0
 74
0
 49
-6.3499999999999996
 74
0
  0
LTYPE
  5
60
100
AcDbSymbolTableRecord
100
AcDbLinetypeTableRecord
  2
FENCELINE1
 70
0
  3
Fenceline circle ----0-----0----0-----0----0-----0--
 72
65
 73
4
 40
36.8299999999999983
 49
6.3499999999999996
 74
0
 49
-2.54
 74
0
 49
-2.54
 74
0
 49
25.3999999999999986
 74
0
  0
LTYPE
  5
61
100
AcDbSymbolTableRecord
100
AcDbLinetypeTableRecord
  2
BATTING
 70
0
  3
Batting SSSSSSSSSSSSSSSSSSSSSSSSSSSSSSSSSSSSSSSSSSSSSSS
 72
65
 73
4
 40
10.1625399999999999
 49
0.00254
 74
0
 49
-2.54
 74
0
 49
-5.0800000000000001
 74
0
 49
-2.54
 74
0
  0
LTYPE
  5
62
100
AcDbSymbolTableRecord
100
AcDbLinetypeTableRecord
  2
ACAD_ISO03W100
 70
0
  3
ISO dash space __    __    __    __    __    __
 72
65
 73
2
 40
30.0
 49
12.0
 74
0
 49
-18.0
 74
0
  0
LTYPE
  5
63
100
AcDbSymbolTableRecord
100
AcDbLinetypeTableRecord
  2
FENCELINE2
 70
0
  3
Fenceline square ----[]-----[]----[]-----[]----[]---
 72
65
 73
4
 40
36.8299999999999983
 49
6.3499999999999996
 74
0
 49
-2.54
 74
0
 49
-2.54
 74
0
 49
25.3999999999999986
 74
0
  0
ENDTAB
  0
TABLE
  2
LAYER
  5
2
100
AcDbSymbolTable
 70
3
  0
LAYER
  5
64
100
AcDbSymbolTableRecord
100
AcDbLayerTableRecord
  2
TimingBelt
 70
0
 62
7
420
16777215
  6
Continuous
370
25
390
F
  0
LAYER
  5
10
100
AcDbSymbolTableRecord
100
AcDbLayerTableRecord
  2
0
 70
0
 62
7
420
16777215
  6
Continuous
370
25
390
F
  0
LAYER
  5
65
100
AcDbSymbolTableRecord
100
AcDbLayerTableRecord
  2
Pipe
 70
0
 62
7
420
16777215
  6
Continuous
370
25
390
F
  0
ENDTAB
  0
TABLE
  2
STYLE
  5
3
100
AcDbSymbolTable
 70
1
  0
STYLE
  5
66
100
AcDbSymbolTableRecord
100
AcDbTextStyleTableRecord
  2
Standard
 70
0
 40
0.0
 41
1.0
 50
0.0
 71
0
 42
2.5
  3

  4

1001
ACAD
1000
txt
1071
0
  0
ENDTAB
  0
TABLE
  2
VIEW
  5
6
100
AcDbSymbolTable
 70
0
  0
ENDTAB
  0
TABLE
  2
UCS
  5
7
100
AcDbSymbolTable
 70
0
  0
ENDTAB
  0
TABLE
  2
APPID
  5
9
100
AcDbSymbolTable
 70
1
  0
APPID
  5
12
100
AcDbSymbolTableRecord
100
AcDbRegAppTableRecord
  2
ACAD
 70
0
  0
APPID
  5
67
100
AcDbSymbolTableRecord
100
AcDbRegAppTableRecord
  2
QCAD
 70
0
  0
ENDTAB
  0
TABLE
  2
DIMSTYLE
  5
A
100
AcDbSymbolTable
 70
1
100
AcDbDimStyleTable
 71
0
  0
DIMSTYLE
105
27
100
AcDbSymbolTableRecord
100
AcDbDimStyleTableRecord
  2
Standard
 41
0.125
 42
0.03125
 43
3.75
 44
0.0625
 70
0
 73
0
 74
0
 77
1
 78
8
140
0.125
141
2.5
143
0.03937007874016
147
0.03125
171
3
172
1
271
2
272
2
274
3
278
44
283
0
284
8
340
66
  0
ENDTAB
  0
TABLE
  2
BLOCK_RECORD
  5
1
100
AcDbSymbolTable
 70
1
  0
BLOCK_RECORD
  5
1F
100
AcDbSymbolTableRecord
100
AcDbBlockTableRecord
  2
*Model_Space
340
22
  0
BLOCK_RECORD
  5
1B
100
AcDbSymbolTableRecord
100
AcDbBlockTableRecord
  2
*Paper_Space
340
1E
  0
BLOCK_RECORD
  5
23
100
AcDbSymbolTableRecord
100
AcDbBlockTableRecord
  2
*Paper_Space0
340
26
  0
ENDTAB
  0
ENDSEC
  0
SECTION
  2
BLOCKS
  0
BLOCK
  5
20
100
AcDbEntity
  8
0
100
AcDbBlockBegin
  2
*Model_Space
 70
0
 10
0.0
 20
0.0
 30
0.0
  3
*Model_Space
  1

  0
ENDBLK
  5
21
100
AcDbEntity
  8
0
100
AcDbBlockEnd
  0
BLOCK
  5
1C
100
AcDbEntity
 67
1
  8
0
100
AcDbBlockBegin
  2
*Paper_Space
 70
0
 10
0.0
 20
0.0
 30
0.0
  3
*Paper_Space
  1

  0
ENDBLK
  5
1D
100
AcDbEntity
 67
1
  8
0
100
AcDbBlockEnd
  0
BLOCK
  5
24
100
AcDbEntity
  8
0
100
AcDbBlockBegin
  2
*Paper_Space0
 70
0
 10
0.0
 20
0.0
 30
0.0
  3
*Paper_Space0
  1

  0
ENDBLK
  5
25
100
AcDbEntity
  8
0
100
AcDbBlockEnd
  0
ENDSEC
  0
SECTION
  2
ENTITIES
  0
LINE
  5
68
100
AcDbEntity
100
AcDbLine
  8
0
 62
256
370
-1
 48
1.0
  6
BYLAYER
 10
0.0
 20
0.0
 30
0.0
 11
0.0000000000000007
 21
11.0
 31
0.0
  0
LINE
  5
69
100
AcDbEntity
100
AcDbLine
  8
0
 62
256
370
-1
 48
1.0
  6
BYLAYER
 10
8.5
 20
0.0
 30
0.0
 11
0.0
 21
0.0
 31
0.0
  0
LINE
  5
6A
100
AcDbEntity
100
AcDbLine
  8
0
 62
256
370
-1
 48
1.0
  6
BYLAYER
 10
8.5
 20
11.0
 30
0.0
 11
0.0
 21
11.0
 31
0.0
  0
LINE
  5
6B
100
AcDbEntity
100
AcDbLine
  8
0
 62
256
370
-1
 48
1.0
  6
BYLAYER
 10
8.5
 20
11.0
 30
0.0
 11
8.5
 21
0.0
 31
0.0
  0
LINE
  5
6C
100
AcDbEntity
100
AcDbLine
  8
0
 62
256
370
-1
 48
1.0
  6
BYLAYER
 10
8.5
 20
1.7777700000000001
 30
0.0
 11
0.0000000000000001
 21
1.7777700000000001
 31
0.0
  0
LINE
  5
6D
100
AcDbEntity
100
AcDbLine
  8
0
 62
256
370
-1
 48
1.0
  6
BYLAYER
 10
1.7777700000000001
 20
0.0
 30
0.0
 11
1.7777700000000007
 21
11.0
 31
0.0
  0
LINE
  5
6E
100
AcDbEntity
100
AcDbLine
  8
0
 62
256
370
-1
 48
1.0
  6
BYLAYER
 10
3.5555400000000001
 20
0.0
 30
0.0
 11
3.5555400000000006
 21
11.0
 31
0.0
  0
LINE
  5
6F
100
AcDbEntity
100
AcDbLine
  8
0
 62
256
370
-1
 48
1.0
  6
BYLAYER
 10
5.33331
 20
0.0
 30
0.0
 11
5.3333100000000009
 21
11.0
 31
0.0
  0
LINE
  5
70
100
AcDbEntity
100
AcDbLine
  8
0
 62
256
370
-1
 48
1.0
  6
BYLAYER
 10
7.1110800000000003
 20
0.0
 30
0.0
 11
7.1110800000000012
 21
11.0
 31
0.0
  0
LINE
  5
71
100
AcDbEntity
100
AcDbLine
  8
0
 62
256
370
-1
 48
1.0
  6
BYLAYER
 10
8.5
 20
3.5555400000000001
 30
0.0
 11
0.0000000000000002
 21
3.5555400000000001
 31
0.0
  0
LINE
  5
72
100
AcDbEntity
100
AcDbLine
  8
0
 62
256
370
-1
 48
1.0
  6
BYLAYER
 10
8.5
 20
5.33331
 30
0.0
 11
0.0000000000000003
 21
5.33331
 31
0.0
  0
LINE
  5
73
100
AcDbEntity
100
AcDbLine
  8
0
 62
256
370
-1
 48
1.0
  6
BYLAYER
 10
8.5
 20
7.1110800000000003
 30
0.0
 11
0.0000000000000004
 21
7.1110800000000003
 31
0.0
  0
LINE
  5
74
100
AcDbEntity
100
AcDbLine
  8
0
 62
256
370
-1
 48
1.0
  6
BYLAYER
 10
8.5
 20
8.8888499999999997
 30
0.0
 11
0.0000000000000005
 21
8.8888499999999997
 31
0.0
  0
LINE
  5
75
100
AcDbEntity
100
AcDbLine
  8
0
 62
256
370
-1
 48
1.0
  6
BYLAYER
 10
8.5
 20
10.66662
 30
0.0
 11
0.0000000000000007
 21
10.66662
 31
0.0
  0
ELLIPSE
  5
76
100
AcDbEntity
100
AcDbEllipse
  8
TimingBelt
 62
256
370
-1
 48
1.0
  6
BYLAYER
 10
1.9999999999999998
 20
5.9400000000000004
 30
0.0
 11
-0.0
 21
-0.2000000000000002
 31
0.0
 40
0.3750000000000005
 41
4.9951099741818128
 42
7.5712606401773543
  0
ELLIPSE
  5
77
100
AcDbEntity
100
AcDbEllipse
  8
0
 62
256
370
-1
 48
1.0
  6
BYLAYER
 10
1.9999999999999998
 20
5.9400000000000004
 30
0.0
 11
-0.0
 21
-0.2000000000000002
 31
0.0
 40
0.3750000000000005
 41
0.0
 42
6.2831853071795862
  0
ELLIPSE
  5
78
100
AcDbEntity
100
AcDbEllipse
  8
TimingBelt
 62
256
370
-1
 48
1.0
  6
BYLAYER
 10
4.3999999999999995
 20
5.7400000000000002
 30
0.0
 11
-0.0
 21
-0.2000000000000002
 31
0.0
 40
0.3750000000000005
 41
4.9951099741818128
 42
7.5712606401773543
  0
ELLIPSE
  5
79
100
AcDbEntity
100
AcDbEllipse
  8
TimingBelt
 62
256
370
-1
 48
1.0
  6
BYLAYER
 10
1.9999999999999998
 20
6.5999999999999988
 30
0.0
 11
0.0
 21
0.4000000000000004
 31
0.0
 40
0.3749999999999996
 41
4.7123889803846897
 42
7.8539816339744828
  0
ELLIPSE
  5
7A
100
AcDbEntity
100
AcDbEllipse
  8
0
 62
256
370
-1
 48
1.0
  6
BYLAYER
 10
1.9999999999999998
 20
6.5999999999999988
 30
0.0
 11
0.0
 21
0.4000000000000004
 31
0.0
 40
0.3749999999999996
 41
0.0
 42
6.2831853071795862
  0
ELLIPSE
  5
7B
100
AcDbEntity
100
AcDbEllipse
  8
TimingBelt
 62
256
370
-1
 48
1.0
  6
BYLAYER
 10
4.3999999999999995
 20
6.3999999999999986
 30
0.0
 11
0.0
 21
0.4000000000000004
 31
0.0
 40
0.3749999999999996
 41
4.7123889803846897
 42
7.8539816339744828
  0
LINE
  5
7C
100
AcDbEntity
100
AcDbLine
  8
0
 62
256
370
-1
 48
1.0
  6
BYLAYER
 10
2.9149999999999991
 20
5.7650000000000006
 30
0.0
 11
2.7999999999999998
 21
5.7650000000000006
 31
0.0
  0
LINE
  5
7D
100
AcDbEntity
100
AcDbLine
  8
0
 62
256
370
-1
 48
1.0
  6
BYLAYER
 10
2.1149999999999993
 20
5.9650000000000007
 30
0.0
 11
2.0
 21
5.9650000000000007
 31
0.0
  0
LINE
  5
7E
100
AcDbEntity
100
AcDbLine
  8
0
 62
256
370
-1
 48
1.0
  6
BYLAYER
 10
3.3999999999999986
 20
5.7650000000000006
 30
0.0
 11
3.2999999999999998
 21
5.7650000000000006
 31
0.0
  0
LINE
  5
7F
100
AcDbEntity
100
AcDbLine
  8
0
 62
256
370
-1
 48
1.0
  6
BYLAYER
 10
2.5999999999999988
 20
5.9650000000000007
 30
0.0
 11
2.5
 21
5.9650000000000007
 31
0.0
  0
LINE
  5
80
100
AcDbEntity
100
AcDbLine
  8
0
 62
256
370
-1
 48
1.0
  6
BYLAYER
 10
2.8999999999999995
 20
5.7149999999999999
 30
0.0
 11
2.7999999999999998
 21
5.7149999999999999
 31
0.0
  0
LINE
  5
81
100
AcDbEntity
100
AcDbLine
  8
0
 62
256
370
-1
 48
1.0
  6
BYLAYER
 10
2.0999999999999996
 20
5.915
 30
0.0
 11
2.0
 21
5.915
 31
0.0
  0
LINE
  5
82
100
AcDbEntity
100
AcDbLine
  8
0
 62
256
370
-1
 48
1.0
  6
BYLAYER
 10
3.3999999999999986
 20
5.7149999999999999
 30
0.0
 11
3.2849999999999993
 21
5.7149999999999999
 31
0.0
  0
LINE
  5
83
100
AcDbEntity
100
AcDbLine
  8
0
 62
256
370
-1
 48
1.0
  6
BYLAYER
 10
2.5999999999999988
 20
5.915
 30
0.0
 11
2.4849999999999994
 21
5.915
 31
0.0
  0
LINE
  5
84
100
AcDbEntity
100
AcDbLine
  8
0
 62
256
370
-1
 48
1.0
  6
BYLAYER
 10
2.1349999999999998
 20
6.6249999999999991
 30
0.0
 11
2.0
 21
6.6249999999999991
 31
0.0
  0
LINE
  5
85
100
AcDbEntity
100
AcDbLine
  8
0
 62
256
370
-1
 48
1.0
  6
BYLAYER
 10
2.3849999999999998
 20
6.6249999999999991
 30
0.0
 11
2.165
 21
6.6249999999999991
 31
0.0
  0
LINE
  5
86
100
AcDbEntity
100
AcDbLine
  8
0
 62
256
370
-1
 48
1.0
  6
BYLAYER
 10
2.4349999999999996
 20
6.6249999999999991
 30
0.0
 11
2.415
 21
6.6249999999999991
 31
0.0
  0
LINE
  5
87
100
AcDbEntity
100
AcDbLine
  8
0
 62
256
370
-1
 48
1.0
  6
BYLAYER
 10
2.9999999999999996
 20
6.9249999999999989
 30
0.0
 11
2.3999999999999995
 21
6.9249999999999989
 31
0.0
  0
LINE
  5
88
100
AcDbEntity
100
AcDbLine
  8
0
 62
256
370
-1
 48
1.0
  6
BYLAYER
 10
2.5999999999999996
 20
6.6249999999999991
 30
0.0
 11
2.4649999999999999
 21
6.6249999999999991
 31
0.0
  0
LINE
  5
89
100
AcDbEntity
100
AcDbLine
  8
0
 62
256
370
-1
 48
1.0
  6
BYLAYER
 10
2.2349999999999994
 20
6.5749999999999984
 30
0.0
 11
2.2149999999999999
 21
6.5749999999999984
 31
0.0
  0
LINE
  5
8A
100
AcDbEntity
100
AcDbLine
  8
0
 62
256
370
-1
 48
1.0
  6
BYLAYER
 10
2.335
 20
6.5749999999999984
 30
0.0
 11
2.2649999999999997
 21
6.5749999999999984
 31
0.0
  0
LINE
  5
8B
100
AcDbEntity
100
AcDbLine
  8
0
 62
256
370
-1
 48
1.0
  6
BYLAYER
 10
2.5999999999999996
 20
6.5749999999999984
 30
0.0
 11
2.3650000000000002
 21
6.5749999999999984
 31
0.0
  0
LINE
  5
8C
100
AcDbEntity
100
AcDbLine
  8
0
 62
256
370
-1
 48
1.0
  6
BYLAYER
 10
3.0
 20
6.8749999999999982
 30
0.0
 11
2.3999999999999999
 21
6.8749999999999982
 31
0.0
  0
LINE
  5
8D
100
AcDbEntity
100
AcDbLine
  8
0
 62
256
370
-1
 48
1.0
  6
BYLAYER
 10
2.1849999999999996
 20
6.5749999999999984
 30
0.0
 11
2.0
 21
6.5749999999999984
 31
0.0
  0
LINE
  5
8E
100
AcDbEntity
100
AcDbLine
  8
0
 62
256
370
-1
 48
1.0
  6
BYLAYER
 10
3.5468083553926664
 20
0.0
 30
0.0
 11
3.5468083553926668
 21
11.0
 31
0.0
  0
LINE
  5
8F
100
AcDbEntity
100
AcDbLine
  8
0
 62
256
370
-1
 48
1.0
  6
BYLAYER
 10
2.3999999999999995
 20
6.8749999999999991
 30
0.0
 11
2.3999999999999995
 21
6.9249999999999989
 31
0.0
  0
LINE
  5
90
100
AcDbEntity
100
AcDbLine
  8
0
 62
256
370
-1
 48
1.0
  6
BYLAYER
 10
1.9999999999999998
 20
6.5749999999999993
 30
0.0
 11
1.9999999999999998
 21
6.6249999999999991
 31
0.0
  0
LINE
  5
91
100
AcDbEntity
100
AcDbLine
  8
0
 62
256
370
-1
 48
1.0
  6
BYLAYER
 10
2.8999999999999995
 20
5.6049999999999995
 30
0.0
 11
2.8999999999999995
 21
5.7149999999999999
 31
0.0
  0
LINE
  5
92
100
AcDbEntity
100
AcDbLine
  8
0
 62
256
370
-1
 48
1.0
  6
BYLAYER
 10
2.0999999999999996
 20
5.8049999999999997
 30
0.0
 11
2.0999999999999996
 21
5.915
 31
0.0
  0
LINE
  5
93
100
AcDbEntity
100
AcDbLine
  8
0
 62
256
370
-1
 48
1.0
  6
BYLAYER
 10
3.0999999999999996
 20
5.6550000000000002
 30
0.0
 11
3.0999999999999996
 21
5.8750000000000009
 31
0.0
  0
LINE
  5
94
100
AcDbEntity
100
AcDbLine
  8
0
 62
256
370
-1
 48
1.0
  6
BYLAYER
 10
2.2999999999999998
 20
5.8550000000000004
 30
0.0
 11
2.2999999999999998
 21
6.0750000000000011
 31
0.0
  0
LINE
  5
95
100
AcDbEntity
100
AcDbLine
  8
0
 62
256
370
-1
 48
1.0
  6
BYLAYER
 10
2.5
 20
5.9650000000000007
 30
0.0
 11
2.5
 21
6.0750000000000011
 31
0.0
  0
LINE
  5
96
100
AcDbEntity
100
AcDbLine
  8
0
 62
256
370
-1
 48
1.0
  6
BYLAYER
 10
3.2999999999999998
 20
5.7650000000000006
 30
0.0
 11
3.2999999999999998
 21
5.8750000000000009
 31
0.0
  0
LINE
  5
97
100
AcDbEntity
100
AcDbLine
  8
0
 62
256
370
-1
 48
1.0
  6
BYLAYER
 10
3.0
 20
6.8749999999999982
 30
0.0
 11
3.0
 21
6.9249999999999989
 31
0.0
  0
LINE
  5
98
100
AcDbEntity
100
AcDbLine
  8
0
 62
256
370
-1
 48
1.0
  6
BYLAYER
 10
2.6000000000000001
 20
6.5749999999999984
 30
0.0
 11
2.6000000000000001
 21
6.6249999999999991
 31
0.0
  0
LINE
  5
99
100
AcDbEntity
100
AcDbLine
  8
0
 62
256
370
-1
 48
1.0
  6
BYLAYER
 10
2.5999999999999996
 20
5.9149999999999991
 30
0.0
 11
2.5999999999999996
 21
5.9650000000000007
 31
0.0
  0
LINE
  5
9A
100
AcDbEntity
100
AcDbLine
  8
0
 62
256
370
-1
 48
1.0
  6
BYLAYER
 10
3.3999999999999995
 20
5.714999999999999
 30
0.0
 11
3.3999999999999995
 21
5.7650000000000006
 31
0.0
  0
LINE
  5
9B
100
AcDbEntity
100
AcDbLine
  8
0
 62
256
370
-1
 48
1.0
  6
BYLAYER
 10
2.1149999999999993
 20
5.8550000000000004
 30
0.0
 11
2.1149999999999993
 21
5.9650000000000007
 31
0.0
  0
LINE
  5
9C
100
AcDbEntity
100
AcDbLine
  8
0
 62
256
370
-1
 48
1.0
  6
BYLAYER
 10
2.9149999999999991
 20
5.6550000000000002
 30
0.0
 11
2.9149999999999991
 21
5.7650000000000006
 31
0.0
  0
LINE
  5
9D
100
AcDbEntity
100
AcDbLine
  8
0
 62
256
370
-1
 48
1.0
  6
BYLAYER
 10
2.3149999999999995
 20
5.8049999999999997
 30
0.0
 11
2.3149999999999995
 21
6.0250000000000004
 31
0.0
  0
LINE
  5
9E
100
AcDbEntity
100
AcDbLine
  8
0
 62
256
370
-1
 48
1.0
  6
BYLAYER
 10
3.1149999999999993
 20
5.6049999999999995
 30
0.0
 11
3.1149999999999993
 21
5.8250000000000002
 31
0.0
  0
LINE
  5
9F
100
AcDbEntity
100
AcDbLine
  8
0
 62
256
370
-1
 48
1.0
  6
BYLAYER
 10
2.4849999999999994
 20
5.915
 30
0.0
 11
2.4849999999999994
 21
6.0250000000000004
 31
0.0
  0
LINE
  5
A0
100
AcDbEntity
100
AcDbLine
  8
0
 62
256
370
-1
 48
1.0
  6
BYLAYER
 10
3.2849999999999993
 20
5.7149999999999999
 30
0.0
 11
3.2849999999999993
 21
5.8250000000000002
 31
0.0
  0
LINE
  5
A1
100
AcDbEntity
100
AcDbLine
  8
0
 62
256
370
-1
 48
1.0
  6
BYLAYER
 10
2.4849999999999985
 20
6.0250000000000004
 30
0.0
 11
2.3149999999999995
 21
6.0250000000000004
 31
0.0
  0
LINE
  5
A2
100
AcDbEntity
100
AcDbLine
  8
0
 62
256
370
-1
 48
1.0
  6
BYLAYER
 10
3.2849999999999984
 20
5.8250000000000002
 30
0.0
 11
3.1149999999999993
 21
5.8250000000000002
 31
0.0
  0
LINE
  5
A3
100
AcDbEntity
100
AcDbLine
  8
0
 62
256
370
-1
 48
1.0
  6
BYLAYER
 10
2.5
 20
6.0750000000000011
 30
0.0
 11
2.2999999999999998
 21
6.0750000000000011
 31
0.0
  0
LINE
  5
A4
100
AcDbEntity
100
AcDbLine
  8
0
 62
256
370
-1
 48
1.0
  6
BYLAYER
 10
3.2999999999999998
 20
5.8750000000000009
 30
0.0
 11
3.0999999999999996
 21
5.8750000000000009
 31
0.0
  0
LINE
  5
A5
100
AcDbEntity
100
AcDbLine
  8
0
 62
256
370
-1
 48
1.0
  6
BYLAYER
 10
2.2999999999999989
 20
5.8550000000000004
 30
0.0
 11
2.1149999999999993
 21
5.8550000000000004
 31
0.0
  0
LINE
  5
A6
100
AcDbEntity
100
AcDbLine
  8
0
 62
256
370
-1
 48
1.0
  6
BYLAYER
 10
3.0999999999999988
 20
5.6550000000000002
 30
0.0
 11
2.9149999999999991
 21
5.6550000000000002
 31
0.0
  0
LINE
  5
A7
100
AcDbEntity
100
AcDbLine
  8
0
 62
256
370
-1
 48
1.0
  6
BYLAYER
 10
2.3149999999999995
 20
5.8049999999999997
 30
0.0
 11
2.0999999999999996
 21
5.8049999999999997
 31
0.0
  0
LINE
  5
A8
100
AcDbEntity
100
AcDbLine
  8
0
 62
256
370
-1
 48
1.0
  6
BYLAYER
 10
3.1149999999999993
 20
5.6049999999999995
 30
0.0
 11
2.8999999999999995
 21
5.6049999999999995
 31
0.0
  0
LINE
  5
A9
100
AcDbEntity
100
AcDbLine
  8
0
 62
256
370
-1
 48
1.0
  6
BYLAYER
 10
3.0999999999999996
 20
6.5749999999999993
 30
0.0
 11
3.0999999999999996
 21
6.7749999999999995
 31
0.0
  0
LINE
  5
AA
100
AcDbEntity
100
AcDbLine
  8
0
 62
256
370
-1
 48
1.0
  6
BYLAYER
 10
2.2999999999999998
 20
6.2749999999999986
 30
0.0
 11
2.2999999999999998
 21
6.4749999999999988
 31
0.0
  0
LINE
  5
AB
100
AcDbEntity
100
AcDbLine
  8
0
 62
256
370
-1
 48
1.0
  6
BYLAYER
 10
2.5
 20
6.2749999999999986
 30
0.0
 11
2.5
 21
6.4749999999999988
 31
0.0
  0
LINE
  5
AC
100
AcDbEntity
100
AcDbLine
  8
0
 62
256
370
-1
 48
1.0
  6
BYLAYER
 10
2.8999999999999995
 20
6.5749999999999993
 30
0.0
 11
2.8999999999999995
 21
6.7749999999999995
 31
0.0
  0
LINE
  5
AD
100
AcDbEntity
100
AcDbLine
  8
0
 62
256
370
-1
 48
1.0
  6
BYLAYER
 10
2.0999999999999996
 20
6.2749999999999986
 30
0.0
 11
2.0999999999999996
 21
6.4749999999999988
 31
0.0
  0
LINE
  5
AE
100
AcDbEntity
100
AcDbLine
  8
0
 62
256
370
-1
 48
1.0
  6
BYLAYER
 10
2.165
 20
6.5749999999999984
 30
0.0
 11
2.165
 21
6.6449999999999987
 31
0.0
  0
LINE
  5
AF
100
AcDbEntity
100
AcDbLine
  8
0
 62
256
370
-1
 48
1.0
  6
BYLAYER
 10
2.1349999999999998
 20
6.5749999999999984
 30
0.0
 11
2.1349999999999998
 21
6.6449999999999987
 31
0.0
  0
LINE
  5
B0
100
AcDbEntity
100
AcDbLine
  8
0
 62
256
370
-1
 48
1.0
  6
BYLAYER
 10
2.2149999999999999
 20
6.5599999999999987
 30
0.0
 11
2.2149999999999999
 21
6.6249999999999991
 31
0.0
  0
LINE
  5
B1
100
AcDbEntity
100
AcDbLine
  8
0
 62
256
370
-1
 48
1.0
  6
BYLAYER
 10
2.1849999999999996
 20
6.5599999999999987
 30
0.0
 11
2.1849999999999996
 21
6.6249999999999991
 31
0.0
  0
LINE
  5
B2
100
AcDbEntity
100
AcDbLine
  8
0
 62
256
370
-1
 48
1.0
  6
BYLAYER
 10
2.2349999999999994
 20
6.5549999999999988
 30
0.0
 11
2.2349999999999994
 21
6.6249999999999991
 31
0.0
  0
LINE
  5
B3
100
AcDbEntity
100
AcDbLine
  8
0
 62
256
370
-1
 48
1.0
  6
BYLAYER
 10
2.2649999999999997
 20
6.5549999999999988
 30
0.0
 11
2.2649999999999997
 21
6.6249999999999991
 31
0.0
  0
LINE
  5
B4
100
AcDbEntity
100
AcDbLine
  8
0
 62
256
370
-1
 48
1.0
  6
BYLAYER
 10
2.335
 20
6.5549999999999988
 30
0.0
 11
2.335
 21
6.6249999999999991
 31
0.0
  0
LINE
  5
B5
100
AcDbEntity
100
AcDbLine
  8
0
 62
256
370
-1
 48
1.0
  6
BYLAYER
 10
2.3650000000000002
 20
6.5549999999999988
 30
0.0
 11
2.3650000000000002
 21
6.6249999999999991
 31
0.0
  0
LINE
  5
B6
100
AcDbEntity
100
AcDbLine
  8
0
 62
256
370
-1
 48
1.0
  6
BYLAYER
 10
2.3849999999999998
 20
6.5749999999999984
 30
0.0
 11
2.3849999999999998
 21
6.6399999999999988
 31
0.0
  0
LINE
  5
B7
100
AcDbEntity
100
AcDbLine
  8
0
 62
256
370
-1
 48
1.0
  6
BYLAYER
 10
2.415
 20
6.5749999999999984
 30
0.0
 11
2.415
 21
6.6399999999999988
 31
0.0
  0
LINE
  5
B8
100
AcDbEntity
100
AcDbLine
  8
0
 62
256
370
-1
 48
1.0
  6
BYLAYER
 10
2.7349999999999994
 20
6.6749999999999989
 30
0.0
 11
2.7349999999999994
 21
6.7449999999999992
 31
0.0
  0
LINE
  5
B9
100
AcDbEntity
100
AcDbLine
  8
0
 62
256
370
-1
 48
1.0
  6
BYLAYER
 10
2.4349999999999996
 20
6.5749999999999984
 30
0.0
 11
2.4349999999999996
 21
6.6449999999999987
 31
0.0
  0
LINE
  5
BA
100
AcDbEntity
100
AcDbLine
  8
0
 62
256
370
-1
 48
1.0
  6
BYLAYER
 10
2.7649999999999997
 20
6.6749999999999989
 30
0.0
 11
2.7649999999999997
 21
6.7449999999999992
 31
0.0
  0
LINE
  5
BB
100
AcDbEntity
100
AcDbLine
  8
0
 62
256
370
-1
 48
1.0
  6
BYLAYER
 10
2.4649999999999999
 20
6.5749999999999984
 30
0.0
 11
2.4649999999999999
 21
6.6449999999999987
 31
0.0
  0
LINE
  5
BC
100
AcDbEntity
100
AcDbLine
  8
0
 62
256
370
-1
 48
1.0
  6
BYLAYER
 10
2.2149999999999999
 20
6.5599999999999987
 30
0.0
 11
2.1849999999999996
 21
6.5599999999999987
 31
0.0
  0
LINE
  5
BD
100
AcDbEntity
100
AcDbLine
  8
0
 62
256
370
-1
 48
1.0
  6
BYLAYER
 10
2.165
 20
6.6449999999999987
 30
0.0
 11
2.1349999999999998
 21
6.6449999999999987
 31
0.0
  0
LINE
  5
BE
100
AcDbEntity
100
AcDbLine
  8
0
 62
256
370
-1
 48
1.0
  6
BYLAYER
 10
2.2649999999999997
 20
6.5549999999999988
 30
0.0
 11
2.2349999999999994
 21
6.5549999999999988
 31
0.0
  0
LINE
  5
BF
100
AcDbEntity
100
AcDbLine
  8
0
 62
256
370
-1
 48
1.0
  6
BYLAYER
 10
2.415
 20
6.6399999999999988
 30
0.0
 11
2.3849999999999998
 21
6.6399999999999988
 31
0.0
  0
LINE
  5
C0
100
AcDbEntity
100
AcDbLine
  8
0
 62
256
370
-1
 48
1.0
  6
BYLAYER
 10
2.3650000000000002
 20
6.5549999999999988
 30
0.0
 11
2.335
 21
6.5549999999999988
 31
0.0
  0
LINE
  5
C1
100
AcDbEntity
100
AcDbLine
  8
0
 62
256
370
-1
 48
1.0
  6
BYLAYER
 10
2.7649999999999997
 20
6.7449999999999992
 30
0.0
 11
2.7349999999999994
 21
6.7449999999999992
 31
0.0
  0
LINE
  5
C2
100
AcDbEntity
100
AcDbLine
  8
0
 62
256
370
-1
 48
1.0
  6
BYLAYER
 10
2.4649999999999999
 20
6.6449999999999987
 30
0.0
 11
2.4349999999999996
 21
6.6449999999999987
 31
0.0
  0
LINE
  5
C3
100
AcDbEntity
100
AcDbLine
  8
0
 62
256
370
-1
 48
1.0
  6
BYLAYER
 10
2.0
 20
5.915
 30
0.0
 11
2.0
 21
5.9650000000000007
 31
0.0
  0
LINE
  5
C4
100
AcDbEntity
100
AcDbLine
  8
0
 62
256
370
-1
 48
1.0
  6
BYLAYER
 10
2.7999999999999998
 20
5.7149999999999999
 30
0.0
 11
2.7999999999999998
 21
5.7650000000000006
 31
0.0
  0
LINE
  5
C5
100
AcDbEntity
100
AcDbLine
  8
0
 62
256
370
-1
 48
1.0
  6
BYLAYER
 10
2.3500000000000001
 20
6.5470037332267106
 30
0.0
 11
2.3500000000000001
 21
6.475000000000013
 31
0.0
  0
LINE
  5
C6
100
AcDbEntity
100
AcDbLine
  8
0
 62
256
370
-1
 48
1.0
  6
BYLAYER
 10
3.0499999999999994
 20
6.4470037332267118
 30
0.0
 11
3.0499999999999994
 21
6.3750000000000133
 31
0.0
  0
LINE
  5
C7
100
AcDbEntity
100
AcDbLine
  8
0
 62
256
370
-1
 48
1.0
  6
BYLAYER
 10
2.9499999999999993
 20
6.4470037332267118
 30
0.0
 11
2.9499999999999993
 21
6.3750000000000133
 31
0.0
  0
LINE
  5
C8
100
AcDbEntity
100
AcDbLine
  8
0
 62
256
370
-1
 48
1.0
  6
BYLAYER
 10
2.4499999999999997
 20
6.5470037332267115
 30
0.0
 11
2.4499999999999997
 21
6.475000000000013
 31
0.0
  0
ELLIPSE
  5
C9
100
AcDbEntity
100
AcDbEllipse
  8
0
 62
256
370
-1
 48
1.0
  6
BYLAYER
 10
2.3999999999999999
 20
6.475000000000013
 30
0.0
 11
-0.1000000000000001
 21
0.0
 31
0.0
 40
0.2496888977740317
 41
4.9137469011750232
 42
10.7942163667739415
  0
ELLIPSE
  5
CA
100
AcDbEntity
100
AcDbEllipse
  8
0
 62
256
370
-1
 48
1.0
  6
BYLAYER
 10
2.7999999999999998
 20
6.5485018666133552
 30
0.0
 11
-0.006
 21
0.0
 31
0.0
 40
0.2496888977740317
 41
0.0
 42
6.2831853071795862
  0
ELLIPSE
  5
CB
100
AcDbEntity
100
AcDbEllipse
  8
0
 62
256
370
-1
 48
1.0
  6
BYLAYER
 10
2.3999999999999999
 20
6.5485018666133552
 30
0.0
 11
-0.006
 21
0.0
 31
0.0
 40
0.2496888977740317
 41
0.0
 42
6.2831853071795862
  0
ELLIPSE
  5
CC
100
AcDbEntity
100
AcDbEllipse
  8
0
 62
256
370
-1
 48
1.0
  6
BYLAYER
 10
2.9999999999999996
 20
6.2347651475326051
 30
0.0
 11
-0.02
 21
0.0
 31
0.0
 40
0.2496888977740317
 41
1.0471975511965841
 42
2.094395102393209
  0
ELLIPSE
  5
CD
100
AcDbEntity
100
AcDbEllipse
  8
0
 62
256
370
-1
 48
1.0
  6
BYLAYER
 10
2.9999999999999996
 20
6.2750000000000128
 30
0.0
 11
-0.02
 21
0.0
 31
0.0
 40
0.2496888977740317
 41
0.0
 42
3.1415926535897931
  0
ELLIPSE
  5
CE
100
AcDbEntity
100
AcDbEllipse
  8
0
 62
256
370
-1
 48
1.0
  6
BYLAYER
 10
2.6999999999999997
 20
6.475000000000013
 30
0.0
 11
-0.02
 21
0.0
 31
0.0
 40
0.2496888977740317
 41
0.0
 42
3.1415926535897931
  0
ELLIPSE
  5
CF
100
AcDbEntity
100
AcDbEllipse
  8
0
 62
256
370
-1
 48
1.0
  6
BYLAYER
 10
2.7999999999999998
 20
6.475000000000013
 30
0.0
 11
-0.02
 21
0.0
 31
0.0
 40
0.2496888977740317
 41
0.0
 42
3.1415926535897931
  0
ELLIPSE
  5
D0
100
AcDbEntity
100
AcDbEllipse
  8
0
 62
256
370
-1
 48
1.0
  6
BYLAYER
 10
2.3999999999999999
 20
6.475000000000013
 30
0.0
 11
-0.02
 21
0.0
 31
0.0
 40
0.2496888977740317
 41
0.0
 42
3.1415926535897931
  0
ELLIPSE
  5
D1
100
AcDbEntity
100
AcDbEllipse
  8
0
 62
256
370
-1
 48
1.0
  6
BYLAYER
 10
2.9999999999999996
 20
6.3200000000000003
 30
0.0
 11
-0.02
 21
0.0
 31
0.0
 40
0.2496888977740317
 41
0.0
 42
6.2831853071795862
  0
ELLIPSE
  5
D2
100
AcDbEntity
100
AcDbEllipse
  8
0
 62
256
370
-1
 48
1.0
  6
BYLAYER
 10
2.6999999999999997
 20
6.5200000000000005
 30
0.0
 11
-0.02
 21
0.0
 31
0.0
 40
0.2496888977740317
 41
0.0
 42
6.2831853071795862
  0
ELLIPSE
  5
D3
100
AcDbEntity
100
AcDbEllipse
  8
0
 62
256
370
-1
 48
1.0
  6
BYLAYER
 10
2.7999999999999998
 20
6.5200000000000005
 30
0.0
 11
-0.02
 21
0.0
 31
0.0
 40
0.2496888977740317
 41
0.0
 42
6.2831853071795862
  0
ELLIPSE
  5
D4
100
AcDbEntity
100
AcDbEllipse
  8
0
 62
256
370
-1
 48
1.0
  6
BYLAYER
 10
2.3999999999999999
 20
6.5200000000000005
 30
0.0
 11
-0.02
 21
0.0
 31
0.0
 40
0.2496888977740317
 41
0.0
 42
6.2831853071795862
  0
ELLIPSE
  5
D5
100
AcDbEntity
100
AcDbEllipse
  8
0
 62
256
370
-1
 48
1.0
  6
BYLAYER
 10
3.0499999999999994
 20
6.4485018666133556
 30
0.0
 11
-0.006
 21
0.0
 31
0.0
 40
0.2496888977740317
 41
0.0
 42
6.2831853071795862
  0
ELLIPSE
  5
D6
100
AcDbEntity
100
AcDbEllipse
  8
0
 62
256
370
-1
 48
1.0
  6
BYLAYER
 10
2.9499999999999993
 20
6.4485018666133556
 30
0.0
 11
-0.006
 21
0.0
 31
0.0
 40
0.2496888977740317
 41
0.0
 42
6.2831853071795862
  0
ELLIPSE
  5
D7
100
AcDbEntity
100
AcDbEllipse
  8
0
 62
256
370
-1
 48
1.0
  6
BYLAYER
 10
2.4499999999999997
 20
6.5485018666133552
 30
0.0
 11
-0.006
 21
0.0
 31
0.0
 40
0.2496888977740317
 41
0.0
 42
6.2831853071795862
  0
ELLIPSE
  5
D8
100
AcDbEntity
100
AcDbEllipse
  8
0
 62
256
370
-1
 48
1.0
  6
BYLAYER
 10
2.3500000000000001
 20
6.5485018666133552
 30
0.0
 11
-0.006
 21
0.0
 31
0.0
 40
0.2496888977740317
 41
0.0
 42
6.2831853071795862
  0
ELLIPSE
  5
D9
100
AcDbEntity
100
AcDbEllipse
  8
0
 62
256
370
-1
 48
1.0
  6
BYLAYER
 10
2.3500000000000001
 20
6.475000000000013
 30
0.0
 11
-0.02
 21
0.0
 31
0.0
 40
0.2496888977740317
 41
0.0
 42
6.2831853071795862
  0
ELLIPSE
  5
DA
100
AcDbEntity
100
AcDbEllipse
  8
Pipe
 62
256
370
-1
 48
1.0
  6
BYLAYER
 10
2.5599999999999996
 20
6.3750000000000133
 30
0.0
 11
-0.02
 21
0.0
 31
0.0
 40
0.2496888977740317
 41
0.0
 42
3.1415926535897931
  0
ELLIPSE
  5
DB
100
AcDbEntity
100
AcDbEllipse
  8
Pipe
 62
256
370
-1
 48
1.0
  6
BYLAYER
 10
4.0599999999999987
 20
6.475000000000013
 30
0.0
 11
-0.02
 21
0.0
 31
0.0
 40
0.2496888977740317
 41
0.0
 42
3.1415926535897931
  0
ELLIPSE
  5
DC
100
AcDbEntity
100
AcDbEllipse
  8
0
 62
256
370
-1
 48
1.0
  6
BYLAYER
 10
2.9499999999999993
 20
6.3750000000000133
 30
0.0
 11
-0.02
 21
0.0
 31
0.0
 40
0.2496888977740317
 41
0.0
 42
6.2831853071795862
  0
ELLIPSE
  5
DD
100
AcDbEntity
100
AcDbEllipse
  8
0
 62
256
370
-1
 48
1.0
  6
BYLAYER
 10
2.4499999999999997
 20
6.475000000000013
 30
0.0
 11
-0.02
 21
0.0
 31
0.0
 40
0.2496888977740317
 41
0.0
 42
6.2831853071795862
  0
ELLIPSE
  5
DE
100
AcDbEntity
100
AcDbEllipse
  8
0
 62
256
370
-1
 48
1.0
  6
BYLAYER
 10
2.3999999999999999
 20
6.2731739705342893
 30
0.0
 11
-0.1000000000000001
 21
0.0
 31
0.0
 40
0.2496888977740317
 41
6.2099877758038806
 42
9.4979754921448336
  0
ELLIPSE
  5
DF
100
AcDbEntity
100
AcDbEllipse
  8
0
 62
256
370
-1
 48
1.0
  6
BYLAYER
 10
2.9999999999999996
 20
6.57317397053429
 30
0.0
 11
-0.1000000000000001
 21
0.0
 31
0.0
 40
0.2496888977740317
 41
6.2099877758038806
 42
9.4979754921448336
  0
ELLIPSE
  5
E0
100
AcDbEntity
100
AcDbEllipse
  8
0
 62
256
370
-1
 48
1.0
  6
BYLAYER
 10
2.1999999999999997
 20
6.2731739705342893
 30
0.0
 11
-0.1000000000000001
 21
0.0
 31
0.0
 40
0.2496888977740317
 41
6.2099877758038806
 42
9.4979754921448336
  0
ELLIPSE
  5
E1
100
AcDbEntity
100
AcDbEllipse
  8
0
 62
256
370
-1
 48
1.0
  6
BYLAYER
 10
2.9999999999999996
 20
6.7750000000000137
 30
0.0
 11
-0.1000000000000001
 21
0.0
 31
0.0
 40
0.2496888977740317
 41
0.0
 42
6.2831853071795862
  0
ELLIPSE
  5
E2
100
AcDbEntity
100
AcDbEllipse
  8
0
 62
256
370
-1
 48
1.0
  6
BYLAYER
 10
2.1999999999999997
 20
6.475000000000013
 30
0.0
 11
-0.1000000000000001
 21
0.0
 31
0.0
 40
0.2496888977740317
 41
0.0
 42
6.2831853071795862
  0
LINE
  5
E3
100
AcDbEntity
100
AcDbLine
  8
0
 62
256
370
-1
 48
1.0
  6
BYLAYER
 10
2.9799999999999995
 20
6.2750000000000128
 30
0.0
 11
2.9799999999999995
 21
6.3200000000000003
 31
0.0
  0
LINE
  5
E4
100
AcDbEntity
100
AcDbLine
  8
0
 62
256
370
-1
 48
1.0
  6
BYLAYER
 10
2.6799999999999997
 20
6.475000000000013
 30
0.0
 11
2.6799999999999997
 21
6.5200000000000005
 31
0.0
  0
LINE
  5
E5
100
AcDbEntity
100
AcDbLine
  8
0
 62
256
370
-1
 48
1.0
  6
BYLAYER
 10
2.7799999999999998
 20
6.475000000000013
 30
0.0
 11
2.7799999999999998
 21
6.5200000000000005
 31
0.0
  0
LINE
  5
E6
100
AcDbEntity
100
AcDbLine
  8
0
 62
256
370
-1
 48
1.0
  6
BYLAYER
 10
2.3799999999999999
 20
6.475000000000013
 30
0.0
 11
2.3799999999999999
 21
6.5200000000000005
 31
0.0
  0
LINE
  5
E7
100
AcDbEntity
100
AcDbLine
  8
0
 62
256
370
-1
 48
1.0
  6
BYLAYER
 10
3.0199999999999996
 20
6.2750000000000128
 30
0.0
 11
3.0199999999999996
 21
6.3200000000000003
 31
0.0
  0
LINE
  5
E8
100
AcDbEntity
100
AcDbLine
  8
0
 62
256
370
-1
 48
1.0
  6
BYLAYER
 10
2.7199999999999998
 20
6.475000000000013
 30
0.0
 11
2.7199999999999998
 21
6.5200000000000005
 31
0.0
  0
LINE
  5
E9
100
AcDbEntity
100
AcDbLine
  8
0
 62
256
370
-1
 48
1.0
  6
BYLAYER
 10
2.8199999999999998
 20
6.475000000000013
 30
0.0
 11
2.8199999999999998
 21
6.5200000000000005
 31
0.0
  0
LINE
  5
EA
100
AcDbEntity
100
AcDbLine
  8
0
 62
256
370
-1
 48
1.0
  6
BYLAYER
 10
2.4199999999999999
 20
6.475000000000013
 30
0.0
 11
2.4199999999999999
 21
6.5200000000000005
 31
0.0
  0
LINE
  5
EB
100
AcDbEntity
100
AcDbLine
  8
0
 62
256
370
-1
 48
1.0
  6
BYLAYER
 10
2.7999999999999998
 20
6.5249937779554807
 30
0.0
 11
2.7999999999999998
 21
6.5470037332267115
 31
0.0
  0
LINE
  5
EC
100
AcDbEntity
100
AcDbLine
  8
0
 62
256
370
-1
 48
1.0
  6
BYLAYER
 10
2.3999999999999999
 20
6.5249937779554807
 30
0.0
 11
2.3999999999999999
 21
6.5470037332267115
 31
0.0
  0
LINE
  5
ED
100
AcDbEntity
100
AcDbLine
  8
0
 62
256
370
-1
 48
1.0
  6
BYLAYER
 10
3.3199999999999998
 20
6.4749999999999757
 30
0.0
 11
3.3199999999999998
 21
6.0750000000000002
 31
0.0
  0
LINE
  5
EE
100
AcDbEntity
100
AcDbLine
  8
0
 62
256
370
-1
 48
1.0
  6
BYLAYER
 10
2.2199999999999998
 20
6.2749999999999755
 30
0.0
 11
2.2199999999999998
 21
5.875
 31
0.0
  0
LINE
  5
EF
100
AcDbEntity
100
AcDbLine
  8
0
 62
256
370
-1
 48
1.0
  6
BYLAYER
 10
4.8200000000000003
 20
6.5634439126755959
 30
0.0
 11
4.8200000000000003
 21
6.4634439126755954
 31
0.0
  0
LINE
  5
F0
100
AcDbEntity
100
AcDbLine
  8
0
 62
256
370
-1
 48
1.0
  6
BYLAYER
 10
2.4199999999999999
 20
6.4299999999999997
 30
0.0
 11
2.4199999999999999
 21
6.0950000000000006
 31
0.0
  0
LINE
  5
F1
100
AcDbEntity
100
AcDbLine
  8
0
 62
256
370
-1
 48
1.0
  6
BYLAYER
 10
3.2799999999999998
 20
6.4749999999999757
 30
0.0
 11
3.2799999999999998
 21
6.0750000000000002
 31
0.0
  0
LINE
  5
F2
100
AcDbEntity
100
AcDbLine
  8
0
 62
256
370
-1
 48
1.0
  6
BYLAYER
 10
2.1799999999999997
 20
6.2749999999999755
 30
0.0
 11
2.1799999999999997
 21
5.875
 31
0.0
  0
LINE
  5
F3
100
AcDbEntity
100
AcDbLine
  8
0
 62
256
370
-1
 48
1.0
  6
BYLAYER
 10
4.7799999999999994
 20
6.5634439126755959
 30
0.0
 11
4.7799999999999994
 21
6.4634439126755954
 31
0.0
  0
LINE
  5
F4
100
AcDbEntity
100
AcDbLine
  8
0
 62
256
370
-1
 48
1.0
  6
BYLAYER
 10
2.3799999999999999
 20
6.4299999999999997
 30
0.0
 11
2.3799999999999999
 21
6.0950000000000006
 31
0.0
  0
LINE
  5
F5
100
AcDbEntity
100
AcDbLine
  8
0
 62
256
370
-1
 48
1.0
  6
BYLAYER
 10
2.3799999999999999
 20
6.4299999999999997
 30
0.0
 11
2.4199999999999999
 21
6.4299999999999997
 31
0.0
  0
LINE
  5
F6
100
AcDbEntity
100
AcDbLine
  8
0
 62
256
370
-1
 48
1.0
  6
BYLAYER
 10
3.335
 20
6.0750000000000002
 30
0.0
 11
3.335
 21
5.9850000000000003
 31
0.0
  0
LINE
  5
F7
100
AcDbEntity
100
AcDbLine
  8
0
 62
256
370
-1
 48
1.0
  6
BYLAYER
 10
2.2349999999999999
 20
5.875
 30
0.0
 11
2.2349999999999999
 21
5.7850000000000001
 31
0.0
  0
LINE
  5
F8
100
AcDbEntity
100
AcDbLine
  8
0
 62
256
370
-1
 48
1.0
  6
BYLAYER
 10
4.835
 20
6.0750000000000002
 30
0.0
 11
4.835
 21
5.9850000000000003
 31
0.0
  0
LINE
  5
F9
100
AcDbEntity
100
AcDbLine
  8
0
 62
256
370
-1
 48
1.0
  6
BYLAYER
 10
2.4350000000000001
 20
6.0950000000000006
 30
0.0
 11
2.4350000000000001
 21
6.0050000000000008
 31
0.0
  0
LINE
  5
FA
100
AcDbEntity
100
AcDbLine
  8
0
 62
256
370
-1
 48
1.0
  6
BYLAYER
 10
3.2649999999999997
 20
6.0750000000000002
 30
0.0
 11
3.2649999999999997
 21
5.9850000000000003
 31
0.0
  0
LINE
  5
FB
100
AcDbEntity
100
AcDbLine
  8
0
 62
256
370
-1
 48
1.0
  6
BYLAYER
 10
2.1649999999999996
 20
5.875
 30
0.0
 11
2.1649999999999996
 21
5.7850000000000001
 31
0.0
  0
LINE
  5
FC
100
AcDbEntity
100
AcDbLine
  8
0
 62
256
370
-1
 48
1.0
  6
BYLAYER
 10
4.7649999999999997
 20
6.0750000000000002
 30
0.0
 11
4.7649999999999997
 21
5.9850000000000003
 31
0.0
  0
LINE
  5
FD
100
AcDbEntity
100
AcDbLine
  8
0
 62
256
370
-1
 48
1.0
  6
BYLAYER
 10
2.3649999999999998
 20
6.0950000000000006
 30
0.0
 11
2.3649999999999998
 21
6.0050000000000008
 31
0.0
  0
LINE
  5
FE
100
AcDbEntity
100
AcDbLine
  8
0
 62
256
370
-1
 48
1.0
  6
BYLAYER
 10
3.2799999999999998
 20
6.0750000000000002
 30
0.0
 11
3.2649999999999997
 21
6.0750000000000002
 31
0.0
  0
LINE
  5
FF
100
AcDbEntity
100
AcDbLine
  8
0
 62
256
370
-1
 48
1.0
  6
BYLAYER
 10
2.1799999999999997
 20
5.875
 30
0.0
 11
2.1649999999999996
 21
5.875
 31
0.0
  0
LINE
  5
100
100
AcDbEntity
100
AcDbLine
  8
0
 62
256
370
-1
 48
1.0
  6
BYLAYER
 10
4.7799999999999994
 20
6.0750000000000002
 30
0.0
 11
4.7649999999999997
 21
6.0750000000000002
 31
0.0
  0
LINE
  5
101
100
AcDbEntity
100
AcDbLine
  8
0
 62
256
370
-1
 48
1.0
  6
BYLAYER
 10
2.3799999999999999
 20
6.0950000000000006
 30
0.0
 11
2.3649999999999998
 21
6.0950000000000006
 31
0.0
  0
LINE
  5
102
100
AcDbEntity
100
AcDbLine
  8
0
 62
256
370
-1
 48
1.0
  6
BYLAYER
 10
3.335
 20
5.9850000000000003
 30
0.0
 11
3.2649999999999997
 21
5.9850000000000003
 31
0.0
  0
LINE
  5
103
100
AcDbEntity
100
AcDbLine
  8
0
 62
256
370
-1
 48
1.0
  6
BYLAYER
 10
2.2349999999999999
 20
5.7850000000000001
 30
0.0
 11
2.1649999999999996
 21
5.7850000000000001
 31
0.0
  0
LINE
  5
104
100
AcDbEntity
100
AcDbLine
  8
0
 62
256
370
-1
 48
1.0
  6
BYLAYER
 10
4.835
 20
5.9850000000000003
 30
0.0
 11
4.7649999999999997
 21
5.9850000000000003
 31
0.0
  0
LINE
  5
105
100
AcDbEntity
100
AcDbLine
  8
0
 62
256
370
-1
 48
1.0
  6
BYLAYER
 10
2.4350000000000001
 20
6.0050000000000008
 30
0.0
 11
2.3649999999999998
 21
6.0050000000000008
 31
0.0
  0
LINE
  5
106
100
AcDbEntity
100
AcDbLine
  8
0
 62
256
370
-1
 48
1.0
  6
BYLAYER
 10
3.3199999999999998
 20
6.0750000000000002
 30
0.0
 11
3.335
 21
6.0750000000000002
 31
0.0
  0
LINE
  5
107
100
AcDbEntity
100
AcDbLine
  8
0
 62
256
370
-1
 48
1.0
  6
BYLAYER
 10
2.2199999999999998
 20
5.875
 30
0.0
 11
2.2349999999999999
 21
5.875
 31
0.0
  0
LINE
  5
108
100
AcDbEntity
100
AcDbLine
  8
0
 62
256
370
-1
 48
1.0
  6
BYLAYER
 10
4.8200000000000003
 20
6.0750000000000002
 30
0.0
 11
4.835
 21
6.0750000000000002
 31
0.0
  0
LINE
  5
109
100
AcDbEntity
100
AcDbLine
  8
0
 62
256
370
-1
 48
1.0
  6
BYLAYER
 10
2.4199999999999999
 20
6.0950000000000006
 30
0.0
 11
2.4350000000000001
 21
6.0950000000000006
 31
0.0
  0
LINE
  5
10A
100
AcDbEntity
100
AcDbLine
  8
0
 62
256
370
-1
 48
1.0
  6
BYLAYER
 10
3.2799999999999998
 20
6.4749999999999757
 30
0.0
 11
3.3199999999999998
 21
6.4749999999999757
 31
0.0
  0
LINE
  5
10B
100
AcDbEntity
100
AcDbLine
  8
0
 62
256
370
-1
 48
1.0
  6
BYLAYER
 10
2.1799999999999997
 20
6.2749999999999755
 30
0.0
 11
2.2199999999999998
 21
6.2749999999999755
 31
0.0
  0
CIRCLE
  5
10C
100
AcDbEntity
100
AcDbCircle
  8
Pipe
 62
256
370
-1
 48
1.0
  6
BYLAYER
 10
2.4000000000000004
 20
6.5200000000000005
 30
0.0
 40
0.0200311102225843
  0
CIRCLE
  5
10D
100
AcDbEntity
100
AcDbCircle
  8
Pipe
 62
256
370
-1
 48
1.0
  6
BYLAYER
 10
3.8999999999999999
 20
6.6200000000000001
 30
0.0
 40
0.0200311102225843
  0
CIRCLE
  5
10E
100
AcDbEntity
100
AcDbCircle
  8
Pipe
 62
256
370
-1
 48
1.0
  6
BYLAYER
 10
2.2000000000000002
 20
6.5200000000000005
 30
0.0
 40
0.0200311102225843
  0
CIRCLE
  5
10F
100
AcDbEntity
100
AcDbCircle
  8
Pipe
 62
256
370
-1
 48
1.0
  6
BYLAYER
 10
3.6999999999999997
 20
6.6200000000000001
 30
0.0
 40
0.0200311102225843
  0
ARC
  5
110
100
AcDbEntity
  8
Pipe
 62
256
370
-1
 48
1.0
  6
BYLAYER
100
AcDbCircle
 10
2.3829715444868684
 20
6.3407573495243001
 30
0.0
 40
0.2
100
AcDbArc
 50
9.9330188535729356
 51
85.1157935671993187
  0
ARC
  5
111
100
AcDbEntity
  8
Pipe
 62
256
370
-1
 48
1.0
  6
BYLAYER
100
AcDbCircle
 10
3.882971544486868
 20
6.4407573495242998
 30
0.0
 40
0.2
100
AcDbArc
 50
9.9330188535729356
 51
85.1157935671993187
  0
ARC
  5
112
100
AcDbEntity
  8
Pipe
 62
256
370
-1
 48
1.0
  6
BYLAYER
100
AcDbCircle
 10
2.3829715444868684
 20
6.3407573495243001
 30
0.0
 40
0.1601195892042329
100
AcDbArc
 50
12.3484623468065688
 51
85.1157935671993187
  0
ARC
  5
113
100
AcDbEntity
  8
Pipe
 62
256
370
-1
 48
1.0
  6
BYLAYER
100
AcDbCircle
 10
3.882971544486868
 20
6.4407573495242998
 30
0.0
 40
0.1601195892042329
100
AcDbArc
 50
12.3484623468065688
 51
85.1157935671993187
  0
LINE
  5
114
100
AcDbEntity
100
AcDbLine
  8
Pipe
 62
256
370
-1
 48
1.0
  6
BYLAYER
 10
2.2000000000000002
 20
6.5400311102225848
 30
0.0
 11
2.4000000000000004
 21
6.5400311102225848
 31
0.0
  0
LINE
  5
115
100
AcDbEntity
100
AcDbLine
  8
Pipe
 62
256
370
-1
 48
1.0
  6
BYLAYER
 10
3.6999999999999997
 20
6.6400311102225844
 30
0.0
 11
3.8999999999999999
 21
6.6400311102225844
 31
0.0
  0
LINE
  5
116
100
AcDbEntity
100
AcDbLine
  8
Pipe
 62
256
370
-1
 48
1.0
  6
BYLAYER
 10
2.3999999999999999
 20
6.4999688897774162
 30
0.0
 11
2.1999999999999997
 21
6.4999688897774162
 31
0.0
  0
LINE
  5
117
100
AcDbEntity
100
AcDbLine
  8
Pipe
 62
256
370
-1
 48
1.0
  6
BYLAYER
 10
3.8999999999999995
 20
6.5999688897774158
 30
0.0
 11
3.6999999999999993
 21
6.5999688897774158
 31
0.0
  0
LINE
  5
118
100
AcDbEntity
100
AcDbLine
  8
TimingBelt
 62
256
370
-1
 48
1.0
  6
BYLAYER
 10
1.8499999999999999
 20
6.5999999999999988
 30
0.0
 11
1.9279775060374462
 21
5.8842060703635504
 31
0.0
  0
LINE
  5
119
100
AcDbEntity
100
AcDbLine
  8
TimingBelt
 62
256
370
-1
 48
1.0
  6
BYLAYER
 10
4.2499999999999991
 20
6.3999999999999986
 30
0.0
 11
4.3279775060374455
 21
5.6842060703635502
 31
0.0
  0
LINE
  5
11A
100
AcDbEntity
100
AcDbLine
  8
TimingBelt
 62
256
370
-1
 48
1.0
  6
BYLAYER
 10
2.1499999999999999
 20
6.5999999999999988
 30
0.0
 11
2.0720224939625531
 21
5.8842060703635504
 31
0.0
  0
LINE
  5
11B
100
AcDbEntity
100
AcDbLine
  8
TimingBelt
 62
256
370
-1
 48
1.0
  6
BYLAYER
 10
4.5499999999999989
 20
6.3999999999999986
 30
0.0
 11
4.4720224939625526
 21
5.6842060703635502
 31
0.0
  0
LINE
  5
11C
100
AcDbEntity
100
AcDbLine
  8
0
 62
256
370
-1
 48
1.0
  6
BYLAYER
 10
3.2199999999999993
 20
6.5749999999999993
 30
0.0
 11
3.2199999999999993
 21
6.6850000000000138
 31
0.0
  0
LINE
  5
11D
100
AcDbEntity
100
AcDbLine
  8
0
 62
256
370
-1
 48
1.0
  6
BYLAYER
 10
2.1199999999999997
 20
6.2749999999999986
 30
0.0
 11
2.1199999999999997
 21
6.3850000000000131
 31
0.0
  0
LINE
  5
11E
100
AcDbEntity
100
AcDbLine
  8
0
 62
256
370
-1
 48
1.0
  6
BYLAYER
 10
4.7199999999999989
 20
6.5749999999999993
 30
0.0
 11
4.7199999999999989
 21
6.6850000000000138
 31
0.0
  0
LINE
  5
11F
100
AcDbEntity
100
AcDbLine
  8
0
 62
256
370
-1
 48
1.0
  6
BYLAYER
 10
3.3799999999999994
 20
6.5749999999999993
 30
0.0
 11
3.3799999999999994
 21
6.6850000000000138
 31
0.0
  0
LINE
  5
120
100
AcDbEntity
100
AcDbLine
  8
0
 62
256
370
-1
 48
1.0
  6
BYLAYER
 10
2.2799999999999998
 20
6.2749999999999986
 30
0.0
 11
2.2799999999999998
 21
6.3850000000000131
 31
0.0
  0
LINE
  5
121
100
AcDbEntity
100
AcDbLine
  8
0
 62
256
370
-1
 48
1.0
  6
BYLAYER
 10
4.879999999999999
 20
6.5749999999999993
 30
0.0
 11
4.879999999999999
 21
6.6850000000000138
 31
0.0
  0
ELLIPSE
  5
122
100
AcDbEntity
100
AcDbEllipse
  8
0
 62
256
370
-1
 48
1.0
  6
BYLAYER
 10
3.2999999999999994
 20
6.6850000000000138
 30
0.0
 11
-0.0800000000000001
 21
-0.0000000000000142
 31
0.0
 40
0.1491884458491131
 41
0.0
 42
6.2831853071795862
  0
ELLIPSE
  5
123
100
AcDbEntity
100
AcDbEllipse
  8
0
 62
256
370
-1
 48
1.0
  6
BYLAYER
 10
3.2999999999999994
 20
6.5749999999999993
 30
0.0
 11
-0.0800000000000001
 21
-0.0000000000000142
 31
0.0
 40
0.1491884458491131
 41
0.0
 42
3.1415926535897931
  0
ELLIPSE
  5
124
100
AcDbEntity
100
AcDbEllipse
  8
0
 62
256
370
-1
 48
1.0
  6
BYLAYER
 10
2.1999999999999997
 20
6.2749999999999986
 30
0.0
 11
-0.0800000000000001
 21
-0.0000000000000142
 31
0.0
 40
0.1491884458491131
 41
0.0
 42
3.1415926535897931
  0
ELLIPSE
  5
125
100
AcDbEntity
100
AcDbEllipse
  8
0
 62
256
370
-1
 48
1.0
  6
BYLAYER
 10
2.1999999999999997
 20
6.3850000000000131
 30
0.0
 11
-0.0800000000000001
 21
-0.0000000000000142
 31
0.0
 40
0.1491884458491131
 41
0.0
 42
6.2831853071795862
  0
ELLIPSE
  5
126
100
AcDbEntity
100
AcDbEllipse
  8
0
 62
256
370
-1
 48
1.0
  6
BYLAYER
 10
4.7999999999999989
 20
6.4749999999999988
 30
0.0
 11
-0.0800000000000001
 21
-0.0000000000000142
 31
0.0
 40
0.1491884458491131
 41
1.3181160716528177
 42
1.8234765819369971
  0
ELLIPSE
  5
127
100
AcDbEntity
100
AcDbEllipse
  8
0
 62
256
370
-1
 48
1.0
  6
BYLAYER
 10
4.7999999999999989
 20
6.5749999999999993
 30
0.0
 11
-0.0800000000000001
 21
-0.0000000000000142
 31
0.0
 40
0.1491884458491131
 41
0.0
 42
3.1415926535897931
  0
ELLIPSE
  5
128
100
AcDbEntity
100
AcDbEllipse
  8
0
 62
256
370
-1
 48
1.0
  6
BYLAYER
 10
4.7999999999999989
 20
6.6850000000000138
 30
0.0
 11
-0.0800000000000001
 21
-0.0000000000000142
 31
0.0
 40
0.1491884458491131
 41
0.0
 42
6.2831853071795862
  0
LINE
  5
129
100
AcDbEntity
100
AcDbLine
  8
0
 62
256
370
-1
 48
1.0
  6
BYLAYER
 10
2.7349999999999994
 20
6.6749999999999989
 30
0.0
 11
2.7649999999999997
 21
6.6749999999999989
 31
0.0
  0
LINE
  5
12A
100
AcDbEntity
100
AcDbLine
  8
0
 62
256
370
-1
 48
1.0
  6
BYLAYER
 10
2.9899999999999993
 20
6.3156752614296954
 30
0.0
 11
2.9899999999999993
 21
6.3200000000000003
 31
0.0
  0
LINE
  5
12B
100
AcDbEntity
100
AcDbLine
  8
0
 62
256
370
-1
 48
1.0
  6
BYLAYER
 10
2.9899999999999993
 20
6.2304404089623002
 30
0.0
 11
2.9899999999999993
 21
6.2706752614297079
 31
0.0
  0
LINE
  5
12C
100
AcDbEntity
100
AcDbLine
  8
0
 62
256
370
-1
 48
1.0
  6
BYLAYER
 10
3.0099999999999998
 20
6.3156752614296954
 30
0.0
 11
3.0099999999999998
 21
6.3200000000000003
 31
0.0
  0
LINE
  5
12D
100
AcDbEntity
100
AcDbLine
  8
0
 62
256
370
-1
 48
1.0
  6
BYLAYER
 10
3.0099999999999998
 20
6.2287795334064322
 30
0.0
 11
3.0099999999999998
 21
6.2706752614297079
 31
0.0
  0
LINE
  5
12E
100
AcDbEntity
100
AcDbLine
  8
0
 62
256
370
-1
 48
1.0
  6
BYLAYER
 10
3.0
 20
6.2297713695771249
 30
0.0
 11
3.0
 21
6.21
 31
0.0
  0
ENDSEC
  0
SECTION
  2
OBJECTS
  0
DICTIONARY
  5
C
100
AcDbDictionary
280
0
281
1
  3
ACAD_GROUP
350
D
  3
ACAD_LAYOUT
350
1A
  3
ACAD_MLINESTYLE
350
17
  3
ACAD_PLOTSETTINGS
350
19
  3
ACAD_PLOTSTYLENAME
350
E
  3
AcDbVariableDictionary
350
12F
  3
QCAD_OBJECTS
350
130
  0
DICTIONARY
  5
D
100
AcDbDictionary
280
0
281
1
  0
ACDBDICTIONARYWDFLT
  5
E
100
AcDbDictionary
281
1
  3
Normal
350
F
100
AcDbDictionaryWithDefault
340
F
  0
ACDBPLACEHOLDER
  5
F
  0
DICTIONARY
  5
17
100
AcDbDictionary
280
0
281
1
  3
Standard
350
18
  0
MLINESTYLE
  5
18
100
AcDbMlineStyle
  2
STANDARD
 70
0
  3

 62
256
 51
90.0
 52
90.0
 71
2
 49
0.5
 62
256
  6
BYLAYER
 49
-0.5
 62
256
  6
BYLAYER
  0
DICTIONARY
  5
19
100
AcDbDictionary
280
0
281
1
  0
DICTIONARY
  5
1A
100
AcDbDictionary
281
1
  3
Layout1
350
1E
  3
Layout2
350
26
  3
Model
350
22
  0
LAYOUT
  5
1E
100
AcDbPlotSettings
  1

  2
none_device
  4

  6

 40
0.0
 41
0.0
 42
0.0
 43
0.0
 44
0.0
 45
0.0
 46
0.0
 47
0.0
 48
0.0
 49
0.0
140
0.0
141
0.0
142
1.0
143
1.0
 70
688
 72
0
 73
0
 74
5
  7

 75
16
147
1.0
148
0.0
149
0.0
100
AcDbLayout
  1
Layout1
 70
1
 71
1
 10
0.0
 20
0.0
 11
420.0
 21
297.0
 12
0.0
 22
0.0
 32
0.0
 14
100000000000000000000.0
 24
100000000000000000000.0
 34
100000000000000000000.0
 15
-100000000000000000000.0
 25
-100000000000000000000.0
 35
-100000000000000000000.0
146
0.0
 13
0.0
 23
0.0
 33
0.0
 16
1.0
 26
0.0
 36
0.0
 17
0.0
 27
1.0
 37
0.0
 76
0
330
1B
  0
LAYOUT
  5
22
100
AcDbPlotSettings
  1

  2
none_device
  4

  6

 40
0.0
 41
0.0
 42
0.0
 43
0.0
 44
0.0
 45
0.0
 46
0.0
 47
0.0
 48
0.0
 49
0.0
140
0.0
141
0.0
142
1.0
143
1.0
 70
1712
 72
0
 73
0
 74
0
  7

 75
0
147
1.0
148
0.0
149
0.0
100
AcDbLayout
  1
Model
 70
1
 71
0
 10
0.0
 20
0.0
 11
12.0
 21
9.0
 12
0.0
 22
0.0
 32
0.0
 14
0.0
 24
0.0
 34
0.0
 15
0.0
 25
0.0
 35
0.0
146
0.0
 13
0.0
 23
0.0
 33
0.0
 16
1.0
 26
0.0
 36
0.0
 17
0.0
 27
1.0
 37
0.0
 76
0
330
1F
  0
LAYOUT
  5
26
100
AcDbPlotSettings
  1

  2
none_device
  4

  6

 40
0.0
 41
0.0
 42
0.0
 43
0.0
 44
0.0
 45
0.0
 46
0.0
 47
0.0
 48
0.0
 49
0.0
140
0.0
141
0.0
142
1.0
143
1.0
 70
688
 72
0
 73
0
 74
5
  7

 75
16
147
1.0
148
0.0
149
0.0
100
AcDbLayout
  1
Layout2
 70
1
 71
2
 10
0.0
 20
0.0
 11
12.0
 21
9.0
 12
0.0
 22
0.0
 32
0.0
 14
0.0
 24
0.0
 34
0.0
 15
0.0
 25
0.0
 35
0.0
146
0.0
 13
0.0
 23
0.0
 33
0.0
 16
1.0
 26
0.0
 36
0.0
 17
0.0
 27
1.0
 37
0.0
 76
0
330
23
  0
DICTIONARY
  5
12F
100
AcDbDictionary
281
1
  3
DIMASSOC
350
132
  3
HIDETEXT
350
131
  0
DICTIONARYVAR
  5
131
100
DictionaryVariables
280
0
  1
2
  0
DICTIONARYVAR
  5
132
100
DictionaryVariables
280
0
  1
1
  0
DICTIONARY
  5
130
100
AcDbDictionary
281
1
  3
ColorSettings/BackgroundColor
350
133
  3
ColorSettings/ColorMode
350
134
  3
Grid/DisplayGrid00
350
135
  3
Grid/DisplayGrid01
350
136
  3
Grid/DisplayGrid02
350
137
  3
Grid/DisplayGrid03
350
138
  3
Grid/GridSpacingX00
350
139
  3
Grid/GridSpacingX01
350
13A
  3
Grid/GridSpacingX02
350
13B
  3
Grid/GridSpacingX03
350
13C
  3
Grid/GridSpacingY00
350
13D
  3
Grid/GridSpacingY01
350
13E
  3
Grid/GridSpacingY02
350
13F
  3
Grid/GridSpacingY03
350
140
  3
Grid/IsometricGrid00
350
141
  3
Grid/IsometricGrid01
350
142
  3
Grid/IsometricGrid02
350
143
  3
Grid/IsometricGrid03
350
144
  3
Grid/IsometricProjection00
350
145
  3
Grid/IsometricProjection01
350
146
  3
Grid/IsometricProjection02
350
147
  3
Grid/IsometricProjection03
350
148
  3
Grid/MetaGridSpacingX00
350
149
  3
Grid/MetaGridSpacingX01
350
14A
  3
Grid/MetaGridSpacingX02
350
14B
  3
Grid/MetaGridSpacingX03
350
14C
  3
Grid/MetaGridSpacingY00
350
14D
  3
Grid/MetaGridSpacingY01
350
14E
  3
Grid/MetaGridSpacingY02
350
14F
  3
Grid/MetaGridSpacingY03
350
150
  3
MultiPageSettings/Columns
350
151
  3
MultiPageSettings/GlueMarginsBottom
350
152
  3
MultiPageSettings/GlueMarginsLeft
350
153
  3
MultiPageSettings/GlueMarginsRight
350
154
  3
MultiPageSettings/GlueMarginsTop
350
155
  3
MultiPageSettings/PrintCropMarks
350
156
  3
MultiPageSettings/Rows
350
157
  3
PageSettings/OffsetX
350
158
  3
PageSettings/OffsetY
350
159
  3
PageSettings/PageOrientation
350
15A
  3
PageSettings/PaperHeight
350
15B
  3
PageSettings/PaperWidth
350
15C
  3
PageSettings/Scale
350
15D
  3
PageSettings/ShowPaperBorders
350
15E
  3
QCADVersion
350
15F
  3
UnitSettings/PaperUnit
350
160
  3
ViewportCenter
350
161
  3
ViewportHeight
350
162
  3
ViewportWidth
350
163
  0
XRECORD
  5
133
330
130
100
AcDbXrecord
280
1
1000
White
  0
XRECORD
  5
134
330
130
100
AcDbXrecord
280
1
1000
FullColor
  0
XRECORD
  5
135
330
130
100
AcDbXrecord
280
1
290
1
  0
XRECORD
  5
136
330
130
100
AcDbXrecord
280
1
290
1
  0
XRECORD
  5
137
330
130
100
AcDbXrecord
280
1
290
1
  0
XRECORD
  5
138
330
130
100
AcDbXrecord
280
1
290
1
  0
XRECORD
  5
139
330
130
100
AcDbXrecord
280
1
1000
auto
  0
XRECORD
  5
13A
330
130
100
AcDbXrecord
280
1
1000
auto
  0
XRECORD
  5
13B
330
130
100
AcDbXrecord
280
1
1000
auto
  0
XRECORD
  5
13C
330
130
100
AcDbXrecord
280
1
1000
auto
  0
XRECORD
  5
13D
330
130
100
AcDbXrecord
280
1
1000
auto
  0
XRECORD
  5
13E
330
130
100
AcDbXrecord
280
1
1000
auto
  0
XRECORD
  5
13F
330
130
100
AcDbXrecord
280
1
1000
auto
  0
XRECORD
  5
140
330
130
100
AcDbXrecord
280
1
1000
auto
  0
XRECORD
  5
141
330
130
100
AcDbXrecord
280
1
290
0
  0
XRECORD
  5
142
330
130
100
AcDbXrecord
280
1
290
0
  0
XRECORD
  5
143
330
130
100
AcDbXrecord
280
1
290
0
  0
XRECORD
  5
144
330
130
100
AcDbXrecord
280
1
290
0
  0
XRECORD
  5
145
330
130
100
AcDbXrecord
280
1
 90
0
  0
XRECORD
  5
146
330
130
100
AcDbXrecord
280
1
 90
0
  0
XRECORD
  5
147
330
130
100
AcDbXrecord
280
1
 90
0
  0
XRECORD
  5
148
330
130
100
AcDbXrecord
280
1
 90
0
  0
XRECORD
  5
149
330
130
100
AcDbXrecord
280
1
1000
auto
  0
XRECORD
  5
14A
330
130
100
AcDbXrecord
280
1
1000
auto
  0
XRECORD
  5
14B
330
130
100
AcDbXrecord
280
1
1000
auto
  0
XRECORD
  5
14C
330
130
100
AcDbXrecord
280
1
1000
auto
  0
XRECORD
  5
14D
330
130
100
AcDbXrecord
280
1
1000
auto
  0
XRECORD
  5
14E
330
130
100
AcDbXrecord
280
1
1000
auto
  0
XRECORD
  5
14F
330
130
100
AcDbXrecord
280
1
1000
auto
  0
XRECORD
  5
150
330
130
100
AcDbXrecord
280
1
1000
auto
  0
XRECORD
  5
151
330
130
100
AcDbXrecord
280
1
 90
1
  0
XRECORD
  5
152
330
130
100
AcDbXrecord
280
1
 40
0.5
  0
XRECORD
  5
153
330
130
100
AcDbXrecord
280
1
 40
0.5
  0
XRECORD
  5
154
330
130
100
AcDbXrecord
280
1
 40
0.5
  0
XRECORD
  5
155
330
130
100
AcDbXrecord
280
1
 40
0.5
  0
XRECORD
  5
156
330
130
100
AcDbXrecord
280
1
290
0
  0
XRECORD
  5
157
330
130
100
AcDbXrecord
280
1
 90
1
  0
XRECORD
  5
158
330
130
100
AcDbXrecord
280
1
 40
0.0
  0
XRECORD
  5
159
330
130
100
AcDbXrecord
280
1
 40
0.0
  0
XRECORD
  5
15A
330
130
100
AcDbXrecord
280
1
1000
Portrait
  0
XRECORD
  5
15B
330
130
100
AcDbXrecord
280
1
 40
11.0
  0
XRECORD
  5
15C
330
130
100
AcDbXrecord
280
1
 40
8.5
  0
XRECORD
  5
15D
330
130
100
AcDbXrecord
280
1
1000
1:1
  0
XRECORD
  5
15E
330
130
100
AcDbXrecord
280
1
290
1
  0
XRECORD
  5
15F
330
130
100
AcDbXrecord
280
1
1000
3.15.4
  0
XRECORD
  5
160
330
130
100
AcDbXrecord
280
1
 90
1
  0
XRECORD
  5
162
330
130
100
AcDbXrecord
280
1
 40
12.2753416598787233
  0
XRECORD
  5
163
330
130
100
AcDbXrecord
280
1
 40
21.2856955380577446
  0
ENDSEC
  0
EOF
