999
dxflib 3.12.2.0
  0
SECTION
  2
HEADER
  9
$ACADVER
  1
AC1015
  9
$HANDSEED
  5
FFFF
  9
$ANGBASE
 50
0.0
  9
$ATTMODE
 70
1
  9
$AUNITS
 70
0
  9
$AUPREC
 70
0
  9
$CELTSCALE
 40
1.0
  9
$CHAMFERA
 40
0.0
  9
$CHAMFERB
 40
0.0
  9
$CHAMFERC
 40
0.0
  9
$CHAMFERD
 40
0.0
  9
$CMLJUST
 70
0
  9
$CMLSCALE
 40
1.0
  9
$DIMADEC
 70
0
  9
$DIMALTD
 70
2
  9
$DIMALTF
 40
25.3999999999999986
  9
$DIMALTRND
 40
0.0
  9
$DIMALTTD
 70
2
  9
$DIMALTTZ
 70
0
  9
$DIMALTU
 70
2
  9
$DIMALTZ
 70
0
  9
$DIMAPOST
  1

  9
$DIMASZ
 40
0.125
  9
$DIMATFIT
 70
3
  9
$DIMAUNIT
 70
0
  9
$DIMAZIN
 70
2
  9
$DIMCEN
 40
0.09
  9
$DIMDEC
 70
4
  9
$DIMDLE
 40
0.0
  9
$DIMDLI
 40
0.38
  9
$DIMDSEP
 70
46
  9
$DIMEXE
 40
0.0625
  9
$DIMEXO
 40
0.03125
  9
$DIMFRAC
 70
0
  9
$DIMGAP
 40
0.03125
  9
$DIMJUST
 70
0
  9
$DIMLFAC
 40
1.0
  9
$DIMLUNIT
 70
3
  9
$DIMLWD
 70
-2
  9
$DIMLWE
 70
-2
  9
$DIMPOST
  1

  9
$DIMRND
 40
0.0
  9
$DIMSCALE
 40
1.0
  9
$DIMTAD
 70
0
  9
$DIMTDEC
 70
4
  9
$DIMTFAC
 40
1.0
  9
$DIMTM
 40
0.0
  9
$DIMTOLJ
 70
1
  9
$DIMTP
 40
0.0
  9
$DIMTSZ
 40
0.0
  9
$DIMTVP
 40
0.0
  9
$DIMTXT
 40
0.125
  9
$DIMTZIN
 70
0
  9
$DIMZIN
 70
8
  9
$DWGCODEPAGE
  3
ANSI_1252
  9
$ELEVATION
 40
0.0
  9
$EXTMAX
 10
-100000000000000000000.0
 20
-100000000000000000000.0
 30
-100000000000000000000.0
  9
$EXTMIN
 10
100000000000000000000.0
 20
100000000000000000000.0
 30
100000000000000000000.0
  9
$FILLETRAD
 40
0.5
  9
$INSBASE
 10
0.0
 20
0.0
 30
0.0
  9
$INSUNITS
 70
1
  9
$LIMMAX
 10
12.0
 20
9.0
  9
$LIMMIN
 10
0.0
 20
0.0
  9
$LTSCALE
 40
1.0
  9
$LUNITS
 70
2
  9
$LUPREC
 70
4
  9
$MAXACTVP
 70
2
  9
$MEASUREMENT
 70
0
  9
$PDMODE
 70
0
  9
$PDSIZE
 40
0.0
  9
$PELEVATION
 40
0.0
  9
$PEXTMAX
 10
0.0
 20
0.0
 30
0.0
  9
$PEXTMIN
 10
0.0
 20
0.0
 30
0.0
  9
$PINSBASE
 10
0.0
 20
0.0
 30
0.0
  9
$PLIMMAX
 10
10.75
 20
8.25
  9
$PLIMMIN
 10
-0.25
 20
-0.25
  9
$PLINEWID
 40
0.0
  9
$PROXYGRAPHICS
 70
1
  9
$PUCSORG
 10
0.0
 20
0.0
 30
0.0
  9
$PUCSXDIR
 10
1.0
 20
0.0
 30
0.0
  9
$PUCSYDIR
 10
0.0
 20
1.0
 30
0.0
  9
$SHADEDGE
 70
3
  9
$SHADEDIF
 70
70
  9
$SKETCHINC
 40
0.1
  9
$SPLINESEGS
 70
8
  9
$SPLINETYPE
 70
6
  9
$SURFTAB1
 70
6
  9
$SURFTAB2
 70
6
  9
$SURFTYPE
 70
6
  9
$SURFU
 70
6
  9
$SURFV
 70
6
  9
$TEXTSIZE
 40
2.5
  9
$THICKNESS
 40
0.0
  9
$TRACEWID
 40
0.05
  9
$TREEDEPTH
 70
3020
  9
$UCSORG
 10
0.0
 20
0.0
 30
0.0
  9
$UCSXDIR
 10
1.0
 20
0.0
 30
0.0
  9
$UCSYDIR
 10
0.0
 20
1.0
 30
0.0
  9
$UNITMODE
 70
0
  9
$USERI1
 70
0
  9
$USERI2
 70
0
  9
$USERI3
 70
0
  9
$USERI4
 70
0
  9
$USERI5
 70
0
  9
$USERR1
 40
0.0
  9
$USERR2
 40
0.0
  9
$USERR3
 40
0.0
  9
$USERR4
 40
0.0
  9
$USERR5
 40
0.0
  0
ENDSEC
  0
SECTION
  2
TABLES
  0
TABLE
  2
VPORT
  5
8
100
AcDbSymbolTable
 70
1
  0
VPORT
  5
30
100
AcDbSymbolTableRecord
100
AcDbViewportTableRecord
  2
*Active
 70
0
 10
0.0
 20
0.0
 11
1.0
 21
1.0
 12
286.3055555555554861
 22
148.5
 13
0.0
 23
0.0
 14
10.0
 24
10.0
 15
10.0
 25
10.0
 16
0.0
 26
0.0
 36
1.0
 17
0.0
 27
0.0
 37
0.0
 40
297.0
 41
1.92798353909465
 42
50.0
 43
0.0
 44
0.0
 50
0.0
 51
0.0
 71
0
 72
100
 73
1
 74
3
 75
1
 76
1
 77
0
 78
0
281
0
 65
1
110
0.0
120
0.0
130
0.0
111
1.0
121
0.0
131
0.0
112
0.0
122
1.0
132
0.0
 79
0
146
0.0
  0
ENDTAB
  0
TABLE
  2
LTYPE
  5
5
100
AcDbSymbolTable
 70
54
  0
LTYPE
  5
16
100
AcDbSymbolTableRecord
100
AcDbLinetypeTableRecord
  2
Continuous
 70
0
  3
Solid line
 72
65
 73
0
 40
0.0
  0
LTYPE
  5
31
100
AcDbSymbolTableRecord
100
AcDbLinetypeTableRecord
  2
ACAD_ISO15W100
 70
0
  3
ISO double-dash triple-dot __ __ . . . __ __ . .
 72
65
 73
10
 40
39.0
 49
12.0
 74
0
 49
-3.0
 74
0
 49
12.0
 74
0
 49
-3.0
 74
0
 49
0.0
 74
0
 49
-3.0
 74
0
 49
0.0
 74
0
 49
-3.0
 74
0
 49
0.0
 74
0
 49
-3.0
 74
0
  0
LTYPE
  5
32
100
AcDbSymbolTableRecord
100
AcDbLinetypeTableRecord
  2
CUTRIGHT2
 70
0
  3
G42 reversed----\----\----\----
 72
65
 73
2
 40
10.1600000000000001
 49
5.0800000000000001
 74
0
 49
5.0800000000000001
 74
0
  0
LTYPE
  5
33
100
AcDbSymbolTableRecord
100
AcDbLinetypeTableRecord
  2
HOT_WATER_SUPPLY
 70
0
  3
Hot water supply ---- HW ---- HW ---- HW ----
 72
65
 73
3
 40
22.8599999999999994
 49
12.6999999999999993
 74
0
 49
-5.0800000000000001
 74
0
 49
-5.0800000000000001
 74
0
  0
LTYPE
  5
34
100
AcDbSymbolTableRecord
100
AcDbLinetypeTableRecord
  2
DIVIDE
 70
0
  3
Divide ____ . . ____ . . ____ . . ____ . . ____
 72
65
 73
6
 40
31.75
 49
12.6999999999999993
 74
0
 49
-6.3499999999999996
 74
0
 49
0.0
 74
0
 49
-6.3499999999999996
 74
0
 49
0.0
 74
0
 49
-6.3499999999999996
 74
0
  0
LTYPE
  5
35
100
AcDbSymbolTableRecord
100
AcDbLinetypeTableRecord
  2
CUTRIGHT
 70
0
  3
G42 ----/----/-----/---
 72
65
 73
2
 40
10.1600000000000001
 49
5.0800000000000001
 74
0
 49
5.0800000000000001
 74
0
  0
LTYPE
  5
36
100
AcDbSymbolTableRecord
100
AcDbLinetypeTableRecord
  2
ACAD_ISO10W100
 70
0
  3
ISO dash dot __ . __ . __ . __ . __ . __ . __ . 
 72
65
 73
4
 40
18.0
 49
12.0
 74
0
 49
-3.0
 74
0
 49
0.0
 74
0
 49
-3.0
 74
0
  0
LTYPE
  5
37
100
AcDbSymbolTableRecord
100
AcDbLinetypeTableRecord
  2
CUTLEFT
 70
0
  3
G41 ----\----\----\----
 72
65
 73
2
 40
10.1600000000000001
 49
5.0800000000000001
 74
0
 49
5.0800000000000001
 74
0
  0
LTYPE
  5
38
100
AcDbSymbolTableRecord
100
AcDbLinetypeTableRecord
  2
GAS_LINE
 70
0
  3
Gas line ----GAS----GAS----GAS----GAS----GAS----GAS--
 72
65
 73
3
 40
24.129999999999999
 49
12.6999999999999993
 74
0
 49
-5.0800000000000001
 74
0
 49
-6.3499999999999996
 74
0
  0
LTYPE
  5
39
100
AcDbSymbolTableRecord
100
AcDbLinetypeTableRecord
  2
ACAD_ISO04W100
 70
0
  3
ISO long-dash dot ____ . ____ . ____ . ____ . _
 72
65
 73
4
 40
30.0
 49
24.0
 74
0
 49
-3.0
 74
0
 49
0.0
 74
0
 49
-3.0
 74
0
  0
LTYPE
  5
3A
100
AcDbSymbolTableRecord
100
AcDbLinetypeTableRecord
  2
CUTLEFT2
 70
0
  3
G41 reversed----/----/----/----
 72
65
 73
2
 40
10.1600000000000001
 49
5.0800000000000001
 74
0
 49
5.0800000000000001
 74
0
  0
LTYPE
  5
14
100
AcDbSymbolTableRecord
100
AcDbLinetypeTableRecord
  2
ByBlock
 70
0
  3

 72
65
 73
0
 40
0.0
  0
LTYPE
  5
3B
100
AcDbSymbolTableRecord
100
AcDbLinetypeTableRecord
  2
CENTER2
 70
0
  3
Center (.5x) ___ _ ___ _ ___ _ ___ _ ___ _ ___
 72
65
 73
4
 40
28.5749999999999993
 49
19.0500000000000007
 74
0
 49
-3.1749999999999998
 74
0
 49
3.1749999999999998
 74
0
 49
-3.1749999999999998
 74
0
  0
LTYPE
  5
3C
100
AcDbSymbolTableRecord
100
AcDbLinetypeTableRecord
  2
ACAD_ISO11W100
 70
0
  3
ISO double-dash dot __ __ . __ __ . __ __ . __ _
 72
65
 73
6
 40
33.0
 49
12.0
 74
0
 49
-3.0
 74
0
 49
12.0
 74
0
 49
-3.0
 74
0
 49
0.0
 74
0
 49
-3.0
 74
0
  0
LTYPE
  5
3D
100
AcDbSymbolTableRecord
100
AcDbLinetypeTableRecord
  2
HIDDEN2
 70
0
  3
Hidden (.5x) _ _ _ _ _ _ _ _ _ _ _ _ _ _ _ _ _ 
 72
65
 73
2
 40
4.7624999999999993
 49
3.1749999999999998
 74
0
 49
-1.5874999999999999
 74
0
  0
LTYPE
  5
3E
100
AcDbSymbolTableRecord
100
AcDbLinetypeTableRecord
  2
BORDERX2
 70
0
  3
Border (2x) ____  ____  .  ____  ____  .  ___
 72
65
 73
6
 40
88.8999999999999915
 49
25.3999999999999986
 74
0
 49
-12.6999999999999993
 74
0
 49
25.3999999999999986
 74
0
 49
-12.6999999999999993
 74
0
 49
0.0
 74
0
 49
-12.6999999999999993
 74
0
  0
LTYPE
  5
3F
100
AcDbSymbolTableRecord
100
AcDbLinetypeTableRecord
  2
ACAD_ISO05W100
 70
0
  3
ISO long-dash double-dot ____ .. ____ .. ____ . 
 72
65
 73
6
 40
33.0
 49
24.0
 74
0
 49
-3.0
 74
0
 49
0.0
 74
0
 49
-3.0
 74
0
 49
0.0
 74
0
 49
-3.0
 74
0
  0
LTYPE
  5
40
100
AcDbSymbolTableRecord
100
AcDbLinetypeTableRecord
  2
DASHDOTX2
 70
0
  3
Dash dot (2x) ____  .  ____  .  ____  .  ___
 72
65
 73
4
 40
50.7999999999999972
 49
25.3999999999999986
 74
0
 49
-12.6999999999999993
 74
0
 49
0.0
 74
0
 49
-12.6999999999999993
 74
0
  0
LTYPE
  5
41
100
AcDbSymbolTableRecord
100
AcDbLinetypeTableRecord
  2
HIDDENX2
 70
0
  3
Hidden (2x) ____ ____ ____ ____ ____ ____ ____ 
 72
65
 73
2
 40
19.0499999999999972
 49
12.6999999999999993
 74
0
 49
-6.3499999999999996
 74
0
  0
LTYPE
  5
42
100
AcDbSymbolTableRecord
100
AcDbLinetypeTableRecord
  2
CENTERX2
 70
0
  3
Center (2x) ________  __  ________  __  _____
 72
65
 73
4
 40
101.5999999999999943
 49
63.5
 74
0
 49
-12.6999999999999993
 74
0
 49
12.6999999999999993
 74
0
 49
-12.6999999999999993
 74
0
  0
LTYPE
  5
43
100
AcDbSymbolTableRecord
100
AcDbLinetypeTableRecord
  2
BORDER2
 70
0
  3
Border (.5x) __.__.__.__.__.__.__.__.__.__.__.
 72
65
 73
6
 40
22.2249999999999979
 49
6.3499999999999996
 74
0
 49
-3.1749999999999998
 74
0
 49
6.3499999999999996
 74
0
 49
-3.1749999999999998
 74
0
 49
0.0
 74
0
 49
-3.1749999999999998
 74
0
  0
LTYPE
  5
44
100
AcDbSymbolTableRecord
100
AcDbLinetypeTableRecord
  2
DASHDOT2
 70
0
  3
Dash dot (.5x) _._._._._._._._._._._._._._._.
 72
65
 73
4
 40
12.6999999999999993
 49
6.3499999999999996
 74
0
 49
-3.1749999999999998
 74
0
 49
0.0
 74
0
 49
-3.1749999999999998
 74
0
  0
LTYPE
  5
45
100
AcDbSymbolTableRecord
100
AcDbLinetypeTableRecord
  2
ACAD_ISO12W100
 70
0
  3
ISO dash double-dot __ . . __ . . __ . . __ . . 
 72
65
 73
6
 40
21.0
 49
12.0
 74
0
 49
-3.0
 74
0
 49
0.0
 74
0
 49
-3.0
 74
0
 49
0.0
 74
0
 49
-3.0
 74
0
  0
LTYPE
  5
46
100
AcDbSymbolTableRecord
100
AcDbLinetypeTableRecord
  2
ACAD_ISO07W100
 70
0
  3
ISO dot . . . . . . . . . . . . . . . . . . . . 
 72
65
 73
2
 40
3.0
 49
0.0
 74
0
 49
-3.0
 74
0
  0
LTYPE
  5
47
100
AcDbSymbolTableRecord
100
AcDbLinetypeTableRecord
  2
ACAD_ISO06W100
 70
0
  3
ISO long-dash triple-dot ____ ... ____ ... ____
 72
65
 73
8
 40
36.0
 49
24.0
 74
0
 49
-3.0
 74
0
 49
0.0
 74
0
 49
-3.0
 74
0
 49
0.0
 74
0
 49
-3.0
 74
0
 49
0.0
 74
0
 49
-3.0
 74
0
  0
LTYPE
  5
48
100
AcDbSymbolTableRecord
100
AcDbLinetypeTableRecord
  2
CENTER
 70
0
  3
Center ____ _ ____ _ ____ _ ____ _ ____ _ ____
 72
65
 73
4
 40
50.7999999999999972
 49
31.75
 74
0
 49
-6.3499999999999996
 74
0
 49
6.3499999999999996
 74
0
 49
-6.3499999999999996
 74
0
  0
LTYPE
  5
49
100
AcDbSymbolTableRecord
100
AcDbLinetypeTableRecord
  2
HIDDEN
 70
0
  3
Hidden __ __ __ __ __ __ __ __ __ __ __ __ __ __
 72
65
 73
2
 40
9.5249999999999986
 49
6.3499999999999996
 74
0
 49
-3.1749999999999998
 74
0
  0
LTYPE
  5
4A
100
AcDbSymbolTableRecord
100
AcDbLinetypeTableRecord
  2
DOTX2
 70
0
  3
Dot (2x) .  .  .  .  .  .  .  .  .  .  .  .  .  .
 72
65
 73
2
 40
12.6999999999999993
 49
0.0
 74
0
 49
-12.6999999999999993
 74
0
  0
LTYPE
  5
4B
100
AcDbSymbolTableRecord
100
AcDbLinetypeTableRecord
  2
PHANTOM
 70
0
  3
Phantom ______  __  __  ______  __  __  ______ 
 72
65
 73
6
 40
63.5
 49
31.75
 74
0
 49
-6.3499999999999996
 74
0
 49
6.3499999999999996
 74
0
 49
-6.3499999999999996
 74
0
 49
6.3499999999999996
 74
0
 49
-6.3499999999999996
 74
0
  0
LTYPE
  5
4C
100
AcDbSymbolTableRecord
100
AcDbLinetypeTableRecord
  2
ACAD_ISO08W100
 70
0
  3
ISO long-dash short-dash ____ __ ____ __ ____ _
 72
65
 73
4
 40
36.0
 49
24.0
 74
0
 49
-3.0
 74
0
 49
6.0
 74
0
 49
-3.0
 74
0
  0
LTYPE
  5
4D
100
AcDbSymbolTableRecord
100
AcDbLinetypeTableRecord
  2
DASHEDX2
 70
0
  3
Dashed (2x) ____  ____  ____  ____  ____  ___
 72
65
 73
2
 40
38.0999999999999943
 49
25.3999999999999986
 74
0
 49
-12.6999999999999993
 74
0
  0
LTYPE
  5
4E
100
AcDbSymbolTableRecord
100
AcDbLinetypeTableRecord
  2
DRAINAGE
 70
0
  3
Drainage ---->---->---->----
 72
65
 73
2
 40
10.1600000000000001
 49
5.0800000000000001
 74
0
 49
5.0800000000000001
 74
0
  0
LTYPE
  5
4F
100
AcDbSymbolTableRecord
100
AcDbLinetypeTableRecord
  2
ACAD_ISO02W100
 70
0
  3
ISO dash __ __ __ __ __ __ __ __ __ __ __ __ __
 72
65
 73
2
 40
15.0
 49
12.0
 74
0
 49
-3.0
 74
0
  0
LTYPE
  5
50
100
AcDbSymbolTableRecord
100
AcDbLinetypeTableRecord
  2
PHANTOM2
 70
0
  3
Phantom (.5x) ___ _ _ ___ _ _ ___ _ _ ___ _ _
 72
65
 73
6
 40
31.75
 49
15.875
 74
0
 49
-3.1749999999999998
 74
0
 49
3.1749999999999998
 74
0
 49
-3.1749999999999998
 74
0
 49
3.1749999999999998
 74
0
 49
-3.1749999999999998
 74
0
  0
LTYPE
  5
51
100
AcDbSymbolTableRecord
100
AcDbLinetypeTableRecord
  2
DASHED2
 70
0
  3
Dashed (.5x) _ _ _ _ _ _ _ _ _ _ _ _ _ _ _ _ _ 
 72
65
 73
2
 40
9.5249999999999986
 49
6.3499999999999996
 74
0
 49
-3.1749999999999998
 74
0
  0
LTYPE
  5
52
100
AcDbSymbolTableRecord
100
AcDbLinetypeTableRecord
  2
ACAD_ISO09W100
 70
0
  3
ISO long-dash double-short-dash ____ __ __ ____
 72
65
 73
6
 40
45.0
 49
24.0
 74
0
 49
-3.0
 74
0
 49
6.0
 74
0
 49
-3.0
 74
0
 49
6.0
 74
0
 49
-3.0
 74
0
  0
LTYPE
  5
53
100
AcDbSymbolTableRecord
100
AcDbLinetypeTableRecord
  2
ACAD_ISO13W100
 70
0
  3
ISO double-dash double-dot __ __ . . __ __ . . _
 72
65
 73
8
 40
36.0
 49
12.0
 74
0
 49
-3.0
 74
0
 49
12.0
 74
0
 49
-3.0
 74
0
 49
0.0
 74
0
 49
-3.0
 74
0
 49
0.0
 74
0
 49
-3.0
 74
0
  0
LTYPE
  5
54
100
AcDbSymbolTableRecord
100
AcDbLinetypeTableRecord
  2
TRACKS
 70
0
  3
Tracks -|-|-|-|-|-|-|-|-|-|-|-|-|-|-|-|-|-|-|-|-|-|-|-|-
 72
65
 73
2
 40
7.6200000000000001
 49
3.8100000000000001
 74
0
 49
3.8100000000000001
 74
0
  0
LTYPE
  5
55
100
AcDbSymbolTableRecord
100
AcDbLinetypeTableRecord
  2
DRAINAGE2
 70
0
  3
Drainage reversed----<----<----<----
 72
65
 73
2
 40
10.1600000000000001
 49
5.0800000000000001
 74
0
 49
5.0800000000000001
 74
0
  0
LTYPE
  5
56
100
AcDbSymbolTableRecord
100
AcDbLinetypeTableRecord
  2
DOT2
 70
0
  3
Dot (.5x) ........................................
 72
65
 73
2
 40
3.1749999999999998
 49
0.0
 74
0
 49
-3.1749999999999998
 74
0
  0
LTYPE
  5
57
100
AcDbSymbolTableRecord
100
AcDbLinetypeTableRecord
  2
ZIGZAG
 70
0
  3
Zig zag /\/\/\/\/\/\/\/\/\/\/\/\/\/\/\/\/\/\/\/\/\/\/\/
 72
65
 73
4
 40
20.32254
 49
0.00254
 74
0
 49
-5.0800000000000001
 74
0
 49
-10.1600000000000001
 74
0
 49
-5.0800000000000001
 74
0
  0
LTYPE
  5
58
100
AcDbSymbolTableRecord
100
AcDbLinetypeTableRecord
  2
DASHED
 70
0
  3
Dashed __ __ __ __ __ __ __ __ __ __ __ __ __ _
 72
65
 73
2
 40
19.0499999999999972
 49
12.6999999999999993
 74
0
 49
-6.3499999999999996
 74
0
  0
LTYPE
  5
59
100
AcDbSymbolTableRecord
100
AcDbLinetypeTableRecord
  2
ACAD_ISO14W100
 70
0
  3
ISO dash triple-dot __ . . . __ . . . __ . . . _
 72
65
 73
8
 40
24.0
 49
12.0
 74
0
 49
-3.0
 74
0
 49
0.0
 74
0
 49
-3.0
 74
0
 49
0.0
 74
0
 49
-3.0
 74
0
 49
0.0
 74
0
 49
-3.0
 74
0
  0
LTYPE
  5
5A
100
AcDbSymbolTableRecord
100
AcDbLinetypeTableRecord
  2
PHANTOMX2
 70
0
  3
Phantom (2x) ____________    ____    ____   _
 72
65
 73
6
 40
127.0
 49
63.5
 74
0
 49
-12.6999999999999993
 74
0
 49
12.6999999999999993
 74
0
 49
-12.6999999999999993
 74
0
 49
12.6999999999999993
 74
0
 49
-12.6999999999999993
 74
0
  0
LTYPE
  5
5B
100
AcDbSymbolTableRecord
100
AcDbLinetypeTableRecord
  2
DIVIDEX2
 70
0
  3
Divide (2x) ________  .  .  ________  .  .  _
 72
65
 73
6
 40
63.5
 49
25.3999999999999986
 74
0
 49
-12.6999999999999993
 74
0
 49
0.0
 74
0
 49
-12.6999999999999993
 74
0
 49
0.0
 74
0
 49
-12.6999999999999993
 74
0
  0
LTYPE
  5
5C
100
AcDbSymbolTableRecord
100
AcDbLinetypeTableRecord
  2
BORDER
 70
0
  3
Border __ __ . __ __ . __ __ . __ __ . __ __ .
 72
65
 73
6
 40
44.4499999999999957
 49
12.6999999999999993
 74
0
 49
-6.3499999999999996
 74
0
 49
12.6999999999999993
 74
0
 49
-6.3499999999999996
 74
0
 49
0.0
 74
0
 49
-6.3499999999999996
 74
0
  0
LTYPE
  5
5D
100
AcDbSymbolTableRecord
100
AcDbLinetypeTableRecord
  2
DIVIDE2
 70
0
  3
Divide (.5x) __..__..__..__..__..__..__..__.._
 72
65
 73
6
 40
15.875
 49
6.3499999999999996
 74
0
 49
-3.1749999999999998
 74
0
 49
0.0
 74
0
 49
-3.1749999999999998
 74
0
 49
0.0
 74
0
 49
-3.1749999999999998
 74
0
  0
LTYPE
  5
5E
100
AcDbSymbolTableRecord
100
AcDbLinetypeTableRecord
  2
DOT
 70
0
  3
Dot . . . . . . . . . . . . . . . . . . . . . . . .
 72
65
 73
2
 40
6.3499999999999996
 49
0.0
 74
0
 49
-6.3499999999999996
 74
0
  0
LTYPE
  5
5F
100
AcDbSymbolTableRecord
100
AcDbLinetypeTableRecord
  2
DASHDOT
 70
0
  3
Dash dot __ . __ . __ . __ . __ . __ . __ . __
 72
65
 73
4
 40
25.3999999999999986
 49
12.6999999999999993
 74
0
 49
-6.3499999999999996
 74
0
 49
0.0
 74
0
 49
-6.3499999999999996
 74
0
  0
LTYPE
  5
60
100
AcDbSymbolTableRecord
100
AcDbLinetypeTableRecord
  2
FENCELINE1
 70
0
  3
Fenceline circle ----0-----0----0-----0----0-----0--
 72
65
 73
4
 40
36.8299999999999983
 49
6.3499999999999996
 74
0
 49
-2.54
 74
0
 49
-2.54
 74
0
 49
25.3999999999999986
 74
0
  0
LTYPE
  5
61
100
AcDbSymbolTableRecord
100
AcDbLinetypeTableRecord
  2
BATTING
 70
0
  3
Batting SSSSSSSSSSSSSSSSSSSSSSSSSSSSSSSSSSSSSSSSSSSSSSS
 72
65
 73
4
 40
10.1625399999999999
 49
0.00254
 74
0
 49
-2.54
 74
0
 49
-5.0800000000000001
 74
0
 49
-2.54
 74
0
  0
LTYPE
  5
62
100
AcDbSymbolTableRecord
100
AcDbLinetypeTableRecord
  2
ACAD_ISO03W100
 70
0
  3
ISO dash space __    __    __    __    __    __
 72
65
 73
2
 40
30.0
 49
12.0
 74
0
 49
-18.0
 74
0
  0
LTYPE
  5
15
100
AcDbSymbolTableRecord
100
AcDbLinetypeTableRecord
  2
ByLayer
 70
0
  3

 72
65
 73
0
 40
0.0
  0
LTYPE
  5
63
100
AcDbSymbolTableRecord
100
AcDbLinetypeTableRecord
  2
FENCELINE2
 70
0
  3
Fenceline square ----[]-----[]----[]-----[]----[]---
 72
65
 73
4
 40
36.8299999999999983
 49
6.3499999999999996
 74
0
 49
-2.54
 74
0
 49
-2.54
 74
0
 49
25.3999999999999986
 74
0
  0
ENDTAB
  0
TABLE
  2
LAYER
  5
2
100
AcDbSymbolTable
 70
1
  0
LAYER
  5
10
100
AcDbSymbolTableRecord
100
AcDbLayerTableRecord
  2
0
 70
0
 62
7
420
16777215
  6
Continuous
370
25
390
F
  0
ENDTAB
  0
TABLE
  2
STYLE
  5
3
100
AcDbSymbolTable
 70
1
  0
STYLE
  5
64
100
AcDbSymbolTableRecord
100
AcDbTextStyleTableRecord
  2
Standard
 70
0
 40
0.0
 41
1.0
 50
0.0
 71
0
 42
2.5
  3

  4

1001
ACAD
1000
txt
1071
0
  0
ENDTAB
  0
TABLE
  2
VIEW
  5
6
100
AcDbSymbolTable
 70
0
  0
ENDTAB
  0
TABLE
  2
UCS
  5
7
100
AcDbSymbolTable
 70
0
  0
ENDTAB
  0
TABLE
  2
APPID
  5
9
100
AcDbSymbolTable
 70
1
  0
APPID
  5
12
100
AcDbSymbolTableRecord
100
AcDbRegAppTableRecord
  2
ACAD
 70
0
  0
APPID
  5
65
100
AcDbSymbolTableRecord
100
AcDbRegAppTableRecord
  2
QCAD
 70
0
  0
ENDTAB
  0
TABLE
  2
DIMSTYLE
  5
A
100
AcDbSymbolTable
 70
1
100
AcDbDimStyleTable
 71
0
  0
DIMSTYLE
105
27
100
AcDbSymbolTableRecord
100
AcDbDimStyleTableRecord
  2
Standard
 41
0.125
 42
0.03125
 43
3.75
 44
0.0625
 70
0
 73
0
 74
0
 77
1
 78
8
140
0.125
141
2.5
143
0.03937007874016
147
0.03125
171
3
172
1
271
2
272
2
274
3
278
44
283
0
284
8
340
64
  0
ENDTAB
  0
TABLE
  2
BLOCK_RECORD
  5
1
100
AcDbSymbolTable
 70
1
  0
BLOCK_RECORD
  5
1F
100
AcDbSymbolTableRecord
100
AcDbBlockTableRecord
  2
*Model_Space
340
22
  0
BLOCK_RECORD
  5
1B
100
AcDbSymbolTableRecord
100
AcDbBlockTableRecord
  2
*Paper_Space
340
1E
  0
BLOCK_RECORD
  5
23
100
AcDbSymbolTableRecord
100
AcDbBlockTableRecord
  2
*Paper_Space0
340
26
  0
ENDTAB
  0
ENDSEC
  0
SECTION
  2
BLOCKS
  0
BLOCK
  5
20
100
AcDbEntity
  8
0
100
AcDbBlockBegin
  2
*Model_Space
 70
0
 10
0.0
 20
0.0
 30
0.0
  3
*Model_Space
  1

  0
ENDBLK
  5
21
100
AcDbEntity
  8
0
100
AcDbBlockEnd
  0
BLOCK
  5
1C
100
AcDbEntity
 67
1
  8
0
100
AcDbBlockBegin
  2
*Paper_Space
 70
0
 10
0.0
 20
0.0
 30
0.0
  3
*Paper_Space
  1

  0
ENDBLK
  5
1D
100
AcDbEntity
 67
1
  8
0
100
AcDbBlockEnd
  0
BLOCK
  5
24
100
AcDbEntity
  8
0
100
AcDbBlockBegin
  2
*Paper_Space0
 70
0
 10
0.0
 20
0.0
 30
0.0
  3
*Paper_Space0
  1

  0
ENDBLK
  5
25
100
AcDbEntity
  8
0
100
AcDbBlockEnd
  0
ENDSEC
  0
SECTION
  2
ENTITIES
  0
LINE
  5
66
100
AcDbEntity
100
AcDbLine
  8
0
 62
256
370
-1
 48
1.0
  6
ByLayer
 10
0.0
 20
0.0
 30
0.0
 11
0.0000000000000061
 21
100.0
 31
0.0
  0
LINE
  5
67
100
AcDbEntity
100
AcDbLine
  8
0
 62
256
370
-1
 48
1.0
  6
ByLayer
 10
0.0
 20
0.0
 30
0.0
 11
100.0
 21
0.0
 31
0.0
  0
LINE
  5
68
100
AcDbEntity
100
AcDbLine
  8
0
 62
256
370
-1
 48
1.0
  6
ByLayer
 10
8.5
 20
0.0
 30
0.0
 11
8.5000000000000053
 21
100.0
 31
0.0
  0
LINE
  5
69
100
AcDbEntity
100
AcDbLine
  8
0
 62
256
370
-1
 48
1.0
  6
ByLayer
 10
0.0000000000000007
 20
11.0
 30
0.0
 11
100.0
 21
11.0
 31
0.0
  0
LINE
  5
6A
100
AcDbEntity
100
AcDbLine
  8
0
 62
256
370
-1
 48
1.0
  6
ByLayer
 10
1.7777000000000001
 20
0.0
 30
0.0
 11
1.7777000000000061
 21
100.0
 31
0.0
  0
LINE
  5
6B
100
AcDbEntity
100
AcDbLine
  8
0
 62
256
370
-1
 48
1.0
  6
ByLayer
 10
3.5554000000000001
 20
0.0
 30
0.0
 11
3.5554000000000059
 21
100.0
 31
0.0
  0
LINE
  5
6C
100
AcDbEntity
100
AcDbLine
  8
0
 62
256
370
-1
 48
1.0
  6
ByLayer
 10
5.3331
 20
0.0
 30
0.0
 11
5.3331000000000062
 21
100.0
 31
0.0
  0
LINE
  5
6D
100
AcDbEntity
100
AcDbLine
  8
0
 62
256
370
-1
 48
1.0
  6
ByLayer
 10
7.1108000000000002
 20
0.0
 30
0.0
 11
7.1108000000000056
 21
100.0
 31
0.0
  0
LINE
  5
6E
100
AcDbEntity
100
AcDbLine
  8
0
 62
256
370
-1
 48
1.0
  6
ByLayer
 10
0.0000000000000001
 20
1.7777000000000001
 30
0.0
 11
100.0
 21
1.7777000000000001
 31
0.0
  0
LINE
  5
6F
100
AcDbEntity
100
AcDbLine
  8
0
 62
256
370
-1
 48
1.0
  6
ByLayer
 10
0.0000000000000002
 20
3.5554000000000001
 30
0.0
 11
100.0
 21
3.5554000000000001
 31
0.0
  0
LINE
  5
70
100
AcDbEntity
100
AcDbLine
  8
0
 62
256
370
-1
 48
1.0
  6
ByLayer
 10
0.0000000000000003
 20
5.3331
 30
0.0
 11
100.0
 21
5.3331
 31
0.0
  0
LINE
  5
71
100
AcDbEntity
100
AcDbLine
  8
0
 62
256
370
-1
 48
1.0
  6
ByLayer
 10
0.0000000000000004
 20
7.1108000000000002
 30
0.0
 11
100.0
 21
7.1108000000000002
 31
0.0
  0
LINE
  5
72
100
AcDbEntity
100
AcDbLine
  8
0
 62
256
370
-1
 48
1.0
  6
ByLayer
 10
0.0000000000000005
 20
8.8885000000000005
 30
0.0
 11
100.0
 21
8.8885000000000005
 31
0.0
  0
LINE
  5
73
100
AcDbEntity
100
AcDbLine
  8
0
 62
256
370
-1
 48
1.0
  6
ByLayer
 10
0.0000000000000007
 20
10.6661999999999999
 30
0.0
 11
100.0
 21
10.6661999999999999
 31
0.0
  0
LINE
  5
74
100
AcDbEntity
100
AcDbLine
  8
0
 62
256
370
-1
 48
1.0
  6
ByLayer
 10
5.7775400000000001
 20
5.3331
 30
0.0
 11
5.7775400000000001
 21
7.1108000000000002
 31
0.0
  0
LINE
  5
75
100
AcDbEntity
100
AcDbLine
  8
0
 62
256
370
-1
 48
1.0
  6
ByLayer
 10
6.6664200000000005
 20
5.3331
 30
0.0
 11
6.6664200000000005
 21
7.1108000000000002
 31
0.0
  0
LINE
  5
76
100
AcDbEntity
100
AcDbLine
  8
0
 62
256
370
-1
 48
1.0
  6
ByLayer
 10
3.5554000000000001
 20
4.8887370000000008
 30
0.0
 11
5.3331
 21
4.8887370000000008
 31
0.0
  0
LINE
  5
77
100
AcDbEntity
100
AcDbLine
  8
0
 62
256
370
-1
 48
1.0
  6
ByLayer
 10
3.5554000000000001
 20
3.999857
 30
0.0
 11
5.3331
 21
3.999857
 31
0.0
  0
LINE
  5
78
100
AcDbEntity
100
AcDbLine
  8
0
 62
256
370
-1
 48
1.0
  6
ByLayer
 10
3.9996860000000001
 20
8.8885000000000005
 30
0.0
 11
3.9996860000000001
 21
10.1106860500000018
 31
0.0
  0
LINE
  5
79
100
AcDbEntity
100
AcDbLine
  8
0
 62
256
370
-1
 48
1.0
  6
ByLayer
 10
2.2219860000000002
 20
9.4440139499999987
 30
0.0
 11
2.2219860000000002
 21
10.6661999999999999
 31
0.0
  0
LINE
  5
7A
100
AcDbEntity
100
AcDbLine
  8
0
 62
256
370
-1
 48
1.0
  6
ByLayer
 10
2.2219860000000002
 20
5.3331
 30
0.0
 11
2.2219860000000002
 21
7.1108000000000002
 31
0.0
  0
LINE
  5
7B
100
AcDbEntity
100
AcDbLine
  8
0
 62
256
370
-1
 48
1.0
  6
ByLayer
 10
4.8885660000000009
 20
8.8885000000000005
 30
0.0
 11
4.8885660000000009
 21
10.1106860500000018
 31
0.0
  0
LINE
  5
7C
100
AcDbEntity
100
AcDbLine
  8
0
 62
256
370
-1
 48
1.0
  6
ByLayer
 10
3.1108660000000006
 20
9.4440139499999987
 30
0.0
 11
3.1108660000000006
 21
10.6661999999999999
 31
0.0
  0
LINE
  5
7D
100
AcDbEntity
100
AcDbLine
  8
0
 62
256
370
-1
 48
1.0
  6
ByLayer
 10
3.1108660000000006
 20
5.3331
 30
0.0
 11
3.1108660000000006
 21
7.1108000000000002
 31
0.0
  0
LINE
  5
7E
100
AcDbEntity
100
AcDbLine
  8
0
 62
256
370
-1
 48
1.0
  6
ByLayer
 10
7.1107999999999993
 20
3.1111909999999989
 30
0.0
 11
5.8886139499999999
 21
3.1111909999999998
 31
0.0
  0
LINE
  5
7F
100
AcDbEntity
100
AcDbLine
  8
0
 62
256
370
-1
 48
1.0
  6
ByLayer
 10
3.5554000000000001
 20
8.4442909999999998
 30
0.0
 11
5.3331
 21
8.4442909999999998
 31
0.0
  0
LINE
  5
80
100
AcDbEntity
100
AcDbLine
  8
0
 62
256
370
-1
 48
1.0
  6
ByLayer
 10
3.5554000000000001
 20
3.1111909999999998
 30
0.0
 11
4.77758605
 21
3.1111909999999998
 31
0.0
  0
LINE
  5
81
100
AcDbEntity
100
AcDbLine
  8
0
 62
256
370
-1
 48
1.0
  6
ByLayer
 10
7.1108000000000002
 20
2.2223110000000004
 30
0.0
 11
5.8886139499999999
 21
2.2223109999999995
 31
0.0
  0
LINE
  5
82
100
AcDbEntity
100
AcDbLine
  8
0
 62
256
370
-1
 48
1.0
  6
ByLayer
 10
3.5554000000000001
 20
7.5554109999999994
 30
0.0
 11
5.3331
 21
7.5554109999999994
 31
0.0
  0
LINE
  5
83
100
AcDbEntity
100
AcDbLine
  8
0
 62
256
370
-1
 48
1.0
  6
ByLayer
 10
3.5554000000000001
 20
2.2223109999999995
 30
0.0
 11
4.77758605
 21
2.2223109999999995
 31
0.0
  0
ARC
  5
84
100
AcDbEntity
  8
0
 62
256
370
-1
 48
1.0
  6
ByLayer
100
AcDbCircle
 10
3.5554385000000002
 20
7.110838499999999
 30
0.0
 40
1.3334525005557949
100
AcDbArc
 50
90.0016542677827829
 51
180.0016542676838753
  0
ARC
  5
85
100
AcDbEntity
  8
0
 62
256
370
-1
 48
1.0
  6
ByLayer
100
AcDbCircle
 10
3.5554384999999997
 20
5.3330614999999995
 30
0.0
 40
0.4445725016670505
100
AcDbArc
 50
179.9950381827470096
 51
269.9950381827357546
  0
ARC
  5
86
100
AcDbEntity
  8
0
 62
256
370
-1
 48
1.0
  6
ByLayer
100
AcDbCircle
 10
5.3330615000000003
 20
7.1108384999999998
 30
0.0
 40
0.4445725016670505
100
AcDbArc
 50
359.9950381827470096
 51
89.9950381827357546
  0
ARC
  5
87
100
AcDbEntity
  8
0
 62
256
370
-1
 48
1.0
  6
ByLayer
100
AcDbCircle
 10
3.5554384999999997
 20
7.1108384999999998
 30
0.0
 40
0.4445725016670505
100
AcDbArc
 50
90.004961817264217
 51
180.0049618172529904
  0
ARC
  5
88
100
AcDbEntity
  8
0
 62
256
370
-1
 48
1.0
  6
ByLayer
100
AcDbCircle
 10
3.5553145000000015
 20
5.333185499999999
 30
0.0
 40
1.3333285027413548
100
AcDbArc
 50
180.0036741051508784
 51
270.0036741051748095
  0
ARC
  5
89
100
AcDbEntity
  8
0
 62
256
370
-1
 48
1.0
  6
ByLayer
100
AcDbCircle
 10
5.3331385000000004
 20
5.3331385000000004
 30
0.0
 40
0.444401501667692
100
AcDbArc
 50
269.9950362734919622
 51
359.9950362735338558
  0
ARC
  5
8A
100
AcDbEntity
  8
0
 62
256
370
-1
 48
1.0
  6
ByLayer
100
AcDbCircle
 10
5.3331385000000013
 20
5.3331385000000013
 30
0.0
 40
1.3332815005558645
100
AcDbArc
 50
269.9983455200490425
 51
359.9983455201636389
  0
ARC
  5
8B
100
AcDbEntity
  8
0
 62
256
370
-1
 48
1.0
  6
ByLayer
100
AcDbCircle
 10
5.3330145000000009
 20
7.1108855000000002
 30
0.0
 40
1.3334055027411951
100
AcDbArc
 50
359.9963261069410692
 51
89.996326106993223
  0
LINE
  5
8C
100
AcDbEntity
100
AcDbLine
  8
0
 62
256
370
-1
 48
1.0
  6
ByLayer
 10
7.1107999999999993
 20
3.0000799999999996
 30
0.0
 11
5.8886134500000002
 21
3.0000800000000005
 31
0.0
  0
LINE
  5
8D
100
AcDbEntity
100
AcDbLine
  8
0
 62
256
370
-1
 48
1.0
  6
ByLayer
 10
3.5554000000000001
 20
8.3331800000000005
 30
0.0
 11
5.3331
 21
8.3331800000000005
 31
0.0
  0
LINE
  5
8E
100
AcDbEntity
100
AcDbLine
  8
0
 62
256
370
-1
 48
1.0
  6
ByLayer
 10
3.5554000000000001
 20
3.0000800000000005
 30
0.0
 11
4.7775865499999997
 21
3.0000800000000005
 31
0.0
  0
LINE
  5
8F
100
AcDbEntity
100
AcDbLine
  8
0
 62
256
370
-1
 48
1.0
  6
ByLayer
 10
7.1108000000000002
 20
2.3334220000000006
 30
0.0
 11
5.8886134499999994
 21
2.3334219999999997
 31
0.0
  0
LINE
  5
90
100
AcDbEntity
100
AcDbLine
  8
0
 62
256
370
-1
 48
1.0
  6
ByLayer
 10
3.5554000000000001
 20
7.6665219999999996
 30
0.0
 11
5.3331
 21
7.6665219999999996
 31
0.0
  0
LINE
  5
91
100
AcDbEntity
100
AcDbLine
  8
0
 62
256
370
-1
 48
1.0
  6
ByLayer
 10
3.5554000000000001
 20
2.3334219999999997
 30
0.0
 11
4.7775865499999997
 21
2.3334219999999997
 31
0.0
  0
LINE
  5
92
100
AcDbEntity
100
AcDbLine
  8
0
 62
256
370
-1
 48
1.0
  6
ByLayer
 10
4.7774549999999998
 20
8.8885000000000005
 30
0.0
 11
4.7774549999999998
 21
10.1106860500000018
 31
0.0
  0
LINE
  5
93
100
AcDbEntity
100
AcDbLine
  8
0
 62
256
370
-1
 48
1.0
  6
ByLayer
 10
2.9997550000000004
 20
5.3331
 30
0.0
 11
2.9997550000000004
 21
7.1108000000000002
 31
0.0
  0
LINE
  5
94
100
AcDbEntity
100
AcDbLine
  8
0
 62
256
370
-1
 48
1.0
  6
ByLayer
 10
2.9997550000000004
 20
9.4440139499999987
 30
0.0
 11
2.9997550000000004
 21
10.6661999999999999
 31
0.0
  0
LINE
  5
95
100
AcDbEntity
100
AcDbLine
  8
0
 62
256
370
-1
 48
1.0
  6
ByLayer
 10
4.1107969999999998
 20
8.8885000000000005
 30
0.0
 11
4.1107969999999998
 21
10.1106860500000018
 31
0.0
  0
LINE
  5
96
100
AcDbEntity
100
AcDbLine
  8
0
 62
256
370
-1
 48
1.0
  6
ByLayer
 10
2.3330970000000004
 20
5.3331
 30
0.0
 11
2.3330970000000004
 21
7.1108000000000002
 31
0.0
  0
LINE
  5
97
100
AcDbEntity
100
AcDbLine
  8
0
 62
256
370
-1
 48
1.0
  6
ByLayer
 10
2.3330970000000004
 20
9.4440139499999987
 30
0.0
 11
2.3330970000000004
 21
10.6661999999999999
 31
0.0
  0
LINE
  5
98
100
AcDbEntity
100
AcDbLine
  8
0
 62
256
370
-1
 48
1.0
  6
ByLayer
 10
5.8886510000000003
 20
5.3331
 30
0.0
 11
5.8886510000000003
 21
7.1108000000000002
 31
0.0
  0
LINE
  5
99
100
AcDbEntity
100
AcDbLine
  8
0
 62
256
370
-1
 48
1.0
  6
ByLayer
 10
6.5553090000000003
 20
5.3331
 30
0.0
 11
6.5553090000000003
 21
7.1108000000000002
 31
0.0
  0
LINE
  5
9A
100
AcDbEntity
100
AcDbLine
  8
0
 62
256
370
-1
 48
1.0
  6
ByLayer
 10
3.5554000000000001
 20
4.1109679999999997
 30
0.0
 11
5.3331
 21
4.1109679999999997
 31
0.0
  0
LINE
  5
9B
100
AcDbEntity
100
AcDbLine
  8
0
 62
256
370
-1
 48
1.0
  6
ByLayer
 10
3.5554000000000001
 20
4.7776260000000006
 30
0.0
 11
5.3331
 21
4.7776260000000006
 31
0.0
  0
ARC
  5
9C
100
AcDbEntity
  8
0
 62
256
370
-1
 48
1.0
  6
ByLayer
100
AcDbCircle
 10
3.5554385000000002
 20
5.3330614999999995
 30
0.0
 40
1.2223415006063165
100
AcDbArc
 50
179.9981953589910404
 51
269.9981953590624926
  0
ARC
  5
9D
100
AcDbEntity
  8
0
 62
256
370
-1
 48
1.0
  6
ByLayer
100
AcDbCircle
 10
5.3330615000000003
 20
7.1108384999999998
 30
0.0
 40
1.2223415006063165
100
AcDbArc
 50
359.9981953589910404
 51
89.9981953590624926
  0
ARC
  5
9E
100
AcDbEntity
  8
0
 62
256
370
-1
 48
1.0
  6
ByLayer
100
AcDbCircle
 10
3.5554385000000002
 20
7.1108384999999998
 30
0.0
 40
1.2223415006063165
100
AcDbArc
 50
90.0018046409374932
 51
180.0018046410089596
  0
ARC
  5
9F
100
AcDbEntity
  8
0
 62
256
370
-1
 48
1.0
  6
ByLayer
100
AcDbCircle
 10
3.5554384999999997
 20
5.3330615000000003
 30
0.0
 40
0.5556835013337185
100
AcDbArc
 50
179.996030316745788
 51
269.9960303167042639
  0
ARC
  5
A0
100
AcDbEntity
  8
0
 62
256
370
-1
 48
1.0
  6
ByLayer
100
AcDbCircle
 10
3.5554384999999997
 20
7.110838499999999
 30
0.0
 40
0.5556835013337185
100
AcDbArc
 50
90.0039696832957503
 51
180.003969683254212
  0
ARC
  5
A1
100
AcDbEntity
  8
0
 62
256
370
-1
 48
1.0
  6
ByLayer
100
AcDbCircle
 10
5.3331385000000004
 20
5.3331385000000004
 30
0.0
 40
1.2221705006064014
100
AcDbArc
 50
269.9981951065660724
 51
359.9981951065590806
  0
ARC
  5
A2
100
AcDbEntity
  8
0
 62
256
370
-1
 48
1.0
  6
ByLayer
100
AcDbCircle
 10
5.3331385000000004
 20
5.3331385000000004
 30
0.0
 40
0.5555125013341282
100
AcDbArc
 50
269.9960290947408907
 51
359.9960290948237684
  0
ARC
  5
A3
100
AcDbEntity
  8
0
 62
256
370
-1
 48
1.0
  6
ByLayer
100
AcDbCircle
 10
5.3330145000000009
 20
7.1108855000000002
 30
0.0
 40
0.5556365065782659
100
AcDbArc
 50
359.9911834641953305
 51
89.9911834641718116
  0
LINE
  5
A4
100
AcDbEntity
100
AcDbLine
  8
0
 62
256
370
-1
 48
1.0
  6
ByLayer
 10
6.5552445000000006
 20
3.1111909999999994
 30
0.0
 11
6.5552445000000006
 21
3.2223021000000003
 31
0.0
  0
LINE
  5
A5
100
AcDbEntity
100
AcDbLine
  8
0
 62
256
370
-1
 48
1.0
  6
ByLayer
 10
6.5552445000000006
 20
2.3334220000000006
 30
0.0
 11
6.5552445000000006
 21
3.0000800000000005
 31
0.0
  0
LINE
  5
A6
100
AcDbEntity
100
AcDbLine
  8
0
 62
256
370
-1
 48
1.0
  6
ByLayer
 10
6.5552445000000006
 20
2.0000888000000003
 30
0.0
 11
6.5552445000000006
 21
2.2223109999999999
 31
0.0
  0
LINE
  5
A7
100
AcDbEntity
100
AcDbLine
  8
0
 62
256
370
-1
 48
1.0
  6
ByLayer
 10
4.1109555000000002
 20
7.6665219999999996
 30
0.0
 11
4.1109555000000002
 21
8.3331800000000005
 31
0.0
  0
LINE
  5
A8
100
AcDbEntity
100
AcDbLine
  8
0
 62
256
370
-1
 48
1.0
  6
ByLayer
 10
4.1109555000000002
 20
7.3331888000000003
 30
0.0
 11
4.1109555000000002
 21
7.5554109999999994
 31
0.0
  0
LINE
  5
A9
100
AcDbEntity
100
AcDbLine
  8
0
 62
256
370
-1
 48
1.0
  6
ByLayer
 10
4.1109555000000002
 20
8.4442909999999998
 30
0.0
 11
4.1109555000000002
 21
8.5554021000000002
 31
0.0
  0
LINE
  5
AA
100
AcDbEntity
100
AcDbLine
  8
0
 62
256
370
-1
 48
1.0
  6
ByLayer
 10
4.1109554999999993
 20
3.1111909999999998
 30
0.0
 11
4.1109554999999993
 21
3.2223021000000003
 31
0.0
  0
LINE
  5
AB
100
AcDbEntity
100
AcDbLine
  8
0
 62
256
370
-1
 48
1.0
  6
ByLayer
 10
4.1109554999999993
 20
2.3334219999999997
 30
0.0
 11
4.1109554999999993
 21
3.0000800000000005
 31
0.0
  0
LINE
  5
AC
100
AcDbEntity
100
AcDbLine
  8
0
 62
256
370
-1
 48
1.0
  6
ByLayer
 10
4.1109554999999993
 20
2.0000888000000003
 30
0.0
 11
4.1109554999999993
 21
2.2223109999999995
 31
0.0
  0
LINE
  5
AD
100
AcDbEntity
100
AcDbLine
  8
0
 62
256
370
-1
 48
1.0
  6
ByLayer
 10
6.7774667000000006
 20
3.1111910000000007
 30
0.0
 11
6.7774667000000006
 21
3.2223021000000012
 31
0.0
  0
LINE
  5
AE
100
AcDbEntity
100
AcDbLine
  8
0
 62
256
370
-1
 48
1.0
  6
ByLayer
 10
6.7774667000000006
 20
2.3334220000000006
 30
0.0
 11
6.7774666999999997
 21
3.0000800000000005
 31
0.0
  0
LINE
  5
AF
100
AcDbEntity
100
AcDbLine
  8
0
 62
256
370
-1
 48
1.0
  6
ByLayer
 10
6.7774666999999997
 20
2.0000888000000003
 30
0.0
 11
6.7774667000000006
 21
2.2223109999999999
 31
0.0
  0
LINE
  5
B0
100
AcDbEntity
100
AcDbLine
  8
0
 62
256
370
-1
 48
1.0
  6
ByLayer
 10
3.8887333000000006
 20
7.6665219999999996
 30
0.0
 11
3.8887333000000006
 21
8.3331800000000005
 31
0.0
  0
LINE
  5
B1
100
AcDbEntity
100
AcDbLine
  8
0
 62
256
370
-1
 48
1.0
  6
ByLayer
 10
3.8887333000000006
 20
7.3331888000000003
 30
0.0
 11
3.8887333000000006
 21
7.5554109999999994
 31
0.0
  0
LINE
  5
B2
100
AcDbEntity
100
AcDbLine
  8
0
 62
256
370
-1
 48
1.0
  6
ByLayer
 10
3.8887333000000006
 20
8.4442909999999998
 30
0.0
 11
3.8887333000000006
 21
8.5554021000000002
 31
0.0
  0
LINE
  5
B3
100
AcDbEntity
100
AcDbLine
  8
0
 62
256
370
-1
 48
1.0
  6
ByLayer
 10
3.8887332999999997
 20
3.1111909999999998
 30
0.0
 11
3.8887332999999997
 21
3.2223021000000003
 31
0.0
  0
LINE
  5
B4
100
AcDbEntity
100
AcDbLine
  8
0
 62
256
370
-1
 48
1.0
  6
ByLayer
 10
3.8887332999999997
 20
2.3334219999999997
 30
0.0
 11
3.8887332999999997
 21
3.0000800000000005
 31
0.0
  0
LINE
  5
B5
100
AcDbEntity
100
AcDbLine
  8
0
 62
256
370
-1
 48
1.0
  6
ByLayer
 10
3.8887332999999997
 20
2.0000888000000003
 30
0.0
 11
3.8887332999999997
 21
2.2223109999999995
 31
0.0
  0
LINE
  5
B6
100
AcDbEntity
100
AcDbLine
  8
0
 62
256
370
-1
 48
1.0
  6
ByLayer
 10
5.6663557000000004
 20
2.4183487500548528
 30
0.0
 11
5.6663557000000004
 21
2.9151532499451469
 31
0.0
  0
LINE
  5
B7
100
AcDbEntity
100
AcDbLine
  8
0
 62
256
370
-1
 48
1.0
  6
ByLayer
 10
5.6663557000000004
 20
2.4183487500548528
 30
0.0
 11
5.6663557000000004
 21
2.9151532499451474
 31
0.0
  0
LINE
  5
B8
100
AcDbEntity
100
AcDbLine
  8
0
 62
256
370
-1
 48
1.0
  6
ByLayer
 10
5.6663557000000004
 20
3.0516196660581287
 30
0.0
 11
5.6663557000000004
 21
3.2223021000000003
 31
0.0
  0
LINE
  5
B9
100
AcDbEntity
100
AcDbLine
  8
0
 62
256
370
-1
 48
1.0
  6
ByLayer
 10
5.6663557000000004
 20
2.0000888000000003
 30
0.0
 11
5.6663557000000004
 21
2.281882333941871
 31
0.0
  0
LINE
  5
BA
100
AcDbEntity
100
AcDbLine
  8
0
 62
256
370
-1
 48
1.0
  6
ByLayer
 10
4.9998442999999995
 20
2.4183487500548528
 30
0.0
 11
4.9998442999999995
 21
2.9151532499451469
 31
0.0
  0
LINE
  5
BB
100
AcDbEntity
100
AcDbLine
  8
0
 62
256
370
-1
 48
1.0
  6
ByLayer
 10
4.9998442999999995
 20
2.4183487500548528
 30
0.0
 11
4.9998442999999995
 21
2.9151532499451474
 31
0.0
  0
LINE
  5
BC
100
AcDbEntity
100
AcDbLine
  8
0
 62
256
370
-1
 48
1.0
  6
ByLayer
 10
4.9998442999999995
 20
3.0516196660581287
 30
0.0
 11
4.9998442999999995
 21
3.2223021000000003
 31
0.0
  0
LINE
  5
BD
100
AcDbEntity
100
AcDbLine
  8
0
 62
256
370
-1
 48
1.0
  6
ByLayer
 10
4.9998442999999995
 20
7.6665219999999996
 30
0.0
 11
4.9998442999999995
 21
8.3331800000000005
 31
0.0
  0
LINE
  5
BE
100
AcDbEntity
100
AcDbLine
  8
0
 62
256
370
-1
 48
1.0
  6
ByLayer
 10
4.9998442999999995
 20
7.3331888000000003
 30
0.0
 11
4.9998442999999995
 21
7.5554109999999994
 31
0.0
  0
LINE
  5
BF
100
AcDbEntity
100
AcDbLine
  8
0
 62
256
370
-1
 48
1.0
  6
ByLayer
 10
4.9998442999999995
 20
8.4442909999999998
 30
0.0
 11
4.9998442999999995
 21
8.5554021000000002
 31
0.0
  0
LINE
  5
C0
100
AcDbEntity
100
AcDbLine
  8
0
 62
256
370
-1
 48
1.0
  6
ByLayer
 10
4.9998442999999995
 20
2.0000888000000003
 30
0.0
 11
4.9998442999999995
 21
2.281882333941871
 31
0.0
  0
LINE
  5
C1
100
AcDbEntity
100
AcDbLine
  8
0
 62
256
370
-1
 48
1.0
  6
ByLayer
 10
5.8885778999999996
 20
2.3334219999999997
 30
0.0
 11
5.8885778999999996
 21
3.0000800000000005
 31
0.0
  0
LINE
  5
C2
100
AcDbEntity
100
AcDbLine
  8
0
 62
256
370
-1
 48
1.0
  6
ByLayer
 10
5.8885778999999987
 20
2.0000888000000003
 30
0.0
 11
5.8885778999999996
 21
2.2223109999999995
 31
0.0
  0
LINE
  5
C3
100
AcDbEntity
100
AcDbLine
  8
0
 62
256
370
-1
 48
1.0
  6
ByLayer
 10
5.8885778999999996
 20
3.1111910000000003
 30
0.0
 11
5.8885778999999996
 21
3.2223021000000003
 31
0.0
  0
LINE
  5
C4
100
AcDbEntity
100
AcDbLine
  8
0
 62
256
370
-1
 48
1.0
  6
ByLayer
 10
4.7776221000000003
 20
7.6665219999999996
 30
0.0
 11
4.7776221000000003
 21
8.3331800000000005
 31
0.0
  0
LINE
  5
C5
100
AcDbEntity
100
AcDbLine
  8
0
 62
256
370
-1
 48
1.0
  6
ByLayer
 10
4.7776221000000003
 20
7.3331888000000003
 30
0.0
 11
4.7776221000000003
 21
7.5554109999999994
 31
0.0
  0
LINE
  5
C6
100
AcDbEntity
100
AcDbLine
  8
0
 62
256
370
-1
 48
1.0
  6
ByLayer
 10
4.7776221000000003
 20
8.4442909999999998
 30
0.0
 11
4.7776221000000003
 21
8.5554021000000002
 31
0.0
  0
LINE
  5
C7
100
AcDbEntity
100
AcDbLine
  8
0
 62
256
370
-1
 48
1.0
  6
ByLayer
 10
4.7776221000000003
 20
2.3334219999999997
 30
0.0
 11
4.7776221000000003
 21
3.0000800000000005
 31
0.0
  0
LINE
  5
C8
100
AcDbEntity
100
AcDbLine
  8
0
 62
256
370
-1
 48
1.0
  6
ByLayer
 10
4.7776221000000003
 20
2.0000888000000003
 30
0.0
 11
4.7776221000000003
 21
2.2223109999999995
 31
0.0
  0
LINE
  5
C9
100
AcDbEntity
100
AcDbLine
  8
0
 62
256
370
-1
 48
1.0
  6
ByLayer
 10
4.7776221000000003
 20
3.1111909999999998
 30
0.0
 11
4.7776221000000003
 21
3.2223021000000003
 31
0.0
  0
LINE
  5
CA
100
AcDbEntity
100
AcDbLine
  8
0
 62
256
370
-1
 48
1.0
  6
ByLayer
 10
5.8885778999999987
 20
2.1111998999999999
 30
0.0
 11
5.6663556999999996
 21
2.1111998999999999
 31
0.0
  0
LINE
  5
CB
100
AcDbEntity
100
AcDbLine
  8
0
 62
256
370
-1
 48
1.0
  6
ByLayer
 10
6.7774666999999997
 20
2.1111998999999995
 30
0.0
 11
6.5552445000000006
 21
2.1111998999999999
 31
0.0
  0
LINE
  5
CC
100
AcDbEntity
100
AcDbLine
  8
0
 62
256
370
-1
 48
1.0
  6
ByLayer
 10
3.2219001000000018
 20
6.4719887700000003
 30
0.0
 11
3.2219001000000018
 21
6.7497665299999987
 31
0.0
  0
LINE
  5
CD
100
AcDbEntity
100
AcDbLine
  8
0
 62
256
370
-1
 48
1.0
  6
ByLayer
 10
3.2219001000000009
 20
5.5830999700000001
 30
0.0
 11
3.2219001000000009
 21
5.8608777300000003
 31
0.0
  0
LINE
  5
CE
100
AcDbEntity
100
AcDbLine
  8
0
 62
256
370
-1
 48
1.0
  6
ByLayer
 10
4.7776221000000003
 20
7.4442998999999999
 30
0.0
 11
4.9998442999999995
 21
7.4442998999999999
 31
0.0
  0
LINE
  5
CF
100
AcDbEntity
100
AcDbLine
  8
0
 62
256
370
-1
 48
1.0
  6
ByLayer
 10
3.8887333000000006
 20
7.4442998999999999
 30
0.0
 11
4.1109555000000002
 21
7.4442998999999999
 31
0.0
  0
LINE
  5
D0
100
AcDbEntity
100
AcDbLine
  8
0
 62
256
370
-1
 48
1.0
  6
ByLayer
 10
4.9996001000000021
 20
10.02738877
 30
0.0
 11
4.9996001000000021
 21
10.3051665299999975
 31
0.0
  0
LINE
  5
D1
100
AcDbEntity
100
AcDbLine
  8
0
 62
256
370
-1
 48
1.0
  6
ByLayer
 10
4.9996001000000003
 20
9.1384999699999998
 30
0.0
 11
4.9996001000000003
 21
9.4162777300000009
 31
0.0
  0
LINE
  5
D2
100
AcDbEntity
100
AcDbLine
  8
0
 62
256
370
-1
 48
1.0
  6
ByLayer
 10
3.2219001000000009
 20
9.1384999699999998
 30
0.0
 11
3.2219001000000009
 21
9.4162777300000009
 31
0.0
  0
LINE
  5
D3
100
AcDbEntity
100
AcDbLine
  8
0
 62
256
370
-1
 48
1.0
  6
ByLayer
 10
3.2219001000000018
 20
10.02738877
 30
0.0
 11
3.2219001000000018
 21
10.3051665299999975
 31
0.0
  0
LINE
  5
D4
100
AcDbEntity
100
AcDbLine
  8
0
 62
256
370
-1
 48
1.0
  6
ByLayer
 10
4.7776221000000003
 20
2.1111998999999999
 30
0.0
 11
4.9998442999999995
 21
2.1111998999999999
 31
0.0
  0
LINE
  5
D5
100
AcDbEntity
100
AcDbLine
  8
0
 62
256
370
-1
 48
1.0
  6
ByLayer
 10
3.8887332999999997
 20
2.1111998999999999
 30
0.0
 11
4.1109554999999993
 21
2.1111998999999999
 31
0.0
  0
LINE
  5
D6
100
AcDbEntity
100
AcDbLine
  8
0
 62
256
370
-1
 48
1.0
  6
ByLayer
 10
5.8885778999999987
 20
2.0000888000000003
 30
0.0
 11
5.6663557000000004
 21
2.0000888000000003
 31
0.0
  0
LINE
  5
D7
100
AcDbEntity
100
AcDbLine
  8
0
 62
256
370
-1
 48
1.0
  6
ByLayer
 10
6.7774666999999997
 20
2.0000888000000003
 30
0.0
 11
6.5552445000000006
 21
2.0000888000000003
 31
0.0
  0
LINE
  5
D8
100
AcDbEntity
100
AcDbLine
  8
0
 62
256
370
-1
 48
1.0
  6
ByLayer
 10
4.7776221000000003
 20
7.3331888000000003
 30
0.0
 11
4.9998442999999995
 21
7.3331888000000003
 31
0.0
  0
LINE
  5
D9
100
AcDbEntity
100
AcDbLine
  8
0
 62
256
370
-1
 48
1.0
  6
ByLayer
 10
3.8887333000000006
 20
7.3331888000000003
 30
0.0
 11
4.1109555000000002
 21
7.3331888000000003
 31
0.0
  0
LINE
  5
DA
100
AcDbEntity
100
AcDbLine
  8
0
 62
256
370
-1
 48
1.0
  6
ByLayer
 10
4.7776221000000003
 20
2.0000888000000003
 30
0.0
 11
4.9998442999999995
 21
2.0000888000000003
 31
0.0
  0
LINE
  5
DB
100
AcDbEntity
100
AcDbLine
  8
0
 62
256
370
-1
 48
1.0
  6
ByLayer
 10
3.8887332999999997
 20
2.0000888000000003
 30
0.0
 11
4.1109554999999993
 21
2.0000888000000003
 31
0.0
  0
LINE
  5
DC
100
AcDbEntity
100
AcDbLine
  8
0
 62
256
370
-1
 48
1.0
  6
ByLayer
 10
5.8885778999999996
 20
3.2223021000000003
 30
0.0
 11
5.6663557000000004
 21
3.2223021000000003
 31
0.0
  0
LINE
  5
DD
100
AcDbEntity
100
AcDbLine
  8
0
 62
256
370
-1
 48
1.0
  6
ByLayer
 10
6.7774667000000006
 20
3.2223021000000012
 30
0.0
 11
6.5552445000000006
 21
3.2223021000000003
 31
0.0
  0
LINE
  5
DE
100
AcDbEntity
100
AcDbLine
  8
0
 62
256
370
-1
 48
1.0
  6
ByLayer
 10
2.110797900000001
 20
6.4719887700000003
 30
0.0
 11
2.110797900000001
 21
6.7497665299999987
 31
0.0
  0
LINE
  5
DF
100
AcDbEntity
100
AcDbLine
  8
0
 62
256
370
-1
 48
1.0
  6
ByLayer
 10
2.1107979000000006
 20
5.5830999700000001
 30
0.0
 11
2.1107979000000006
 21
5.8608777300000003
 31
0.0
  0
LINE
  5
E0
100
AcDbEntity
100
AcDbLine
  8
0
 62
256
370
-1
 48
1.0
  6
ByLayer
 10
4.7776221000000003
 20
8.5554021000000002
 30
0.0
 11
4.9998442999999995
 21
8.5554021000000002
 31
0.0
  0
LINE
  5
E1
100
AcDbEntity
100
AcDbLine
  8
0
 62
256
370
-1
 48
1.0
  6
ByLayer
 10
3.8887333000000006
 20
8.5554021000000002
 30
0.0
 11
4.1109555000000002
 21
8.5554021000000002
 31
0.0
  0
LINE
  5
E2
100
AcDbEntity
100
AcDbLine
  8
0
 62
256
370
-1
 48
1.0
  6
ByLayer
 10
3.8884979000000013
 20
10.02738877
 30
0.0
 11
3.8884979000000013
 21
10.3051665299999975
 31
0.0
  0
LINE
  5
E3
100
AcDbEntity
100
AcDbLine
  8
0
 62
256
370
-1
 48
1.0
  6
ByLayer
 10
3.8884979000000004
 20
9.1384999699999998
 30
0.0
 11
3.8884979000000004
 21
9.4162777300000009
 31
0.0
  0
LINE
  5
E4
100
AcDbEntity
100
AcDbLine
  8
0
 62
256
370
-1
 48
1.0
  6
ByLayer
 10
2.1107979000000006
 20
9.1384999699999998
 30
0.0
 11
2.1107979000000006
 21
9.4162777300000009
 31
0.0
  0
LINE
  5
E5
100
AcDbEntity
100
AcDbLine
  8
0
 62
256
370
-1
 48
1.0
  6
ByLayer
 10
2.1107979000000014
 20
10.02738877
 30
0.0
 11
2.1107979000000014
 21
10.3051665299999975
 31
0.0
  0
LINE
  5
E6
100
AcDbEntity
100
AcDbLine
  8
0
 62
256
370
-1
 48
1.0
  6
ByLayer
 10
4.7776221000000003
 20
3.2223021000000003
 30
0.0
 11
4.9998442999999995
 21
3.2223021000000003
 31
0.0
  0
LINE
  5
E7
100
AcDbEntity
100
AcDbLine
  8
0
 62
256
370
-1
 48
1.0
  6
ByLayer
 10
3.8887332999999997
 20
3.2223021000000003
 30
0.0
 11
4.1109554999999993
 21
3.2223021000000003
 31
0.0
  0
LINE
  5
E8
100
AcDbEntity
100
AcDbLine
  8
0
 62
256
370
-1
 48
1.0
  6
ByLayer
 10
2.9996780000000021
 20
6.7497665299999987
 30
0.0
 11
2.3330200000000012
 21
6.7497665299999987
 31
0.0
  0
LINE
  5
E9
100
AcDbEntity
100
AcDbLine
  8
0
 62
256
370
-1
 48
1.0
  6
ByLayer
 10
4.7147542055875942
 20
10.3051665299999975
 30
0.0
 11
4.1733437944124088
 21
10.3051665299999975
 31
0.0
  0
LINE
  5
EA
100
AcDbEntity
100
AcDbLine
  8
0
 62
256
370
-1
 48
1.0
  6
ByLayer
 10
2.9996780000000021
 20
10.3051665299999975
 30
0.0
 11
2.3330200000000012
 21
10.3051665299999975
 31
0.0
  0
LINE
  5
EB
100
AcDbEntity
100
AcDbLine
  8
0
 62
256
370
-1
 48
1.0
  6
ByLayer
 10
2.2219090000000015
 20
6.7497665299999987
 30
0.0
 11
2.110797900000001
 21
6.7497665299999987
 31
0.0
  0
LINE
  5
EC
100
AcDbEntity
100
AcDbLine
  8
0
 62
256
370
-1
 48
1.0
  6
ByLayer
 10
4.044422891347164
 20
10.3051665299999975
 30
0.0
 11
3.8884979000000013
 21
10.3051665299999975
 31
0.0
  0
LINE
  5
ED
100
AcDbEntity
100
AcDbLine
  8
0
 62
256
370
-1
 48
1.0
  6
ByLayer
 10
2.2219090000000019
 20
10.3051665299999975
 30
0.0
 11
2.1107979000000014
 21
10.3051665299999975
 31
0.0
  0
LINE
  5
EE
100
AcDbEntity
100
AcDbLine
  8
0
 62
256
370
-1
 48
1.0
  6
ByLayer
 10
3.2219001000000018
 20
6.7497665299999987
 30
0.0
 11
3.1107890000000014
 21
6.7497665299999987
 31
0.0
  0
LINE
  5
EF
100
AcDbEntity
100
AcDbLine
  8
0
 62
256
370
-1
 48
1.0
  6
ByLayer
 10
4.9996001000000021
 20
10.3051665299999975
 30
0.0
 11
4.8436751086528371
 21
10.3051665299999975
 31
0.0
  0
LINE
  5
F0
100
AcDbEntity
100
AcDbLine
  8
0
 62
256
370
-1
 48
1.0
  6
ByLayer
 10
3.2219001000000018
 20
10.3051665299999975
 30
0.0
 11
3.1107890000000014
 21
10.3051665299999975
 31
0.0
  0
LINE
  5
F1
100
AcDbEntity
100
AcDbLine
  8
0
 62
256
370
-1
 48
1.0
  6
ByLayer
 10
3.2219001000000018
 20
6.5830998699999999
 30
0.0
 11
3.1107890000000014
 21
6.5830998699999999
 31
0.0
  0
LINE
  5
F2
100
AcDbEntity
100
AcDbLine
  8
0
 62
256
370
-1
 48
1.0
  6
ByLayer
 10
4.9996001000000021
 20
10.1384998700000004
 30
0.0
 11
4.8876177584806868
 21
10.1384998700000004
 31
0.0
  0
LINE
  5
F3
100
AcDbEntity
100
AcDbLine
  8
0
 62
256
370
-1
 48
1.0
  6
ByLayer
 10
3.2219001000000018
 20
10.1384998700000004
 30
0.0
 11
3.1107890000000014
 21
10.1384998700000004
 31
0.0
  0
LINE
  5
F4
100
AcDbEntity
100
AcDbLine
  8
0
 62
256
370
-1
 48
1.0
  6
ByLayer
 10
2.9996780000000012
 20
6.5830998699999999
 30
0.0
 11
2.3330200000000012
 21
6.5830998699999999
 31
0.0
  0
LINE
  5
F5
100
AcDbEntity
100
AcDbLine
  8
0
 62
256
370
-1
 48
1.0
  6
ByLayer
 10
4.7762154644106944
 20
10.1384998700000004
 30
0.0
 11
4.1118825355893085
 21
10.1384998700000004
 31
0.0
  0
LINE
  5
F6
100
AcDbEntity
100
AcDbLine
  8
0
 62
256
370
-1
 48
1.0
  6
ByLayer
 10
2.9996780000000012
 20
10.1384998700000004
 30
0.0
 11
2.3330200000000012
 21
10.1384998700000004
 31
0.0
  0
LINE
  5
F7
100
AcDbEntity
100
AcDbLine
  8
0
 62
256
370
-1
 48
1.0
  6
ByLayer
 10
2.2219090000000019
 20
6.5830998699999999
 30
0.0
 11
2.110797900000001
 21
6.5830998699999999
 31
0.0
  0
LINE
  5
F8
100
AcDbEntity
100
AcDbLine
  8
0
 62
256
370
-1
 48
1.0
  6
ByLayer
 10
4.0004802415193144
 20
10.1384998700000004
 30
0.0
 11
3.8884979000000013
 21
10.1384998700000004
 31
0.0
  0
LINE
  5
F9
100
AcDbEntity
100
AcDbLine
  8
0
 62
256
370
-1
 48
1.0
  6
ByLayer
 10
2.2219090000000019
 20
10.1384998700000004
 30
0.0
 11
2.1107979000000014
 21
10.1384998700000004
 31
0.0
  0
LINE
  5
FA
100
AcDbEntity
100
AcDbLine
  8
0
 62
256
370
-1
 48
1.0
  6
ByLayer
 10
2.9996780000000012
 20
6.4719887700000003
 30
0.0
 11
2.3330200000000012
 21
6.4719887700000003
 31
0.0
  0
LINE
  5
FB
100
AcDbEntity
100
AcDbLine
  8
0
 62
256
370
-1
 48
1.0
  6
ByLayer
 10
4.7773780000000006
 20
10.02738877
 30
0.0
 11
4.1107200000000006
 21
10.02738877
 31
0.0
  0
LINE
  5
FC
100
AcDbEntity
100
AcDbLine
  8
0
 62
256
370
-1
 48
1.0
  6
ByLayer
 10
2.9996780000000012
 20
10.02738877
 30
0.0
 11
2.3330200000000012
 21
10.02738877
 31
0.0
  0
LINE
  5
FD
100
AcDbEntity
100
AcDbLine
  8
0
 62
256
370
-1
 48
1.0
  6
ByLayer
 10
3.2219001000000018
 20
6.4719887700000003
 30
0.0
 11
3.1107890000000014
 21
6.4719887700000003
 31
0.0
  0
LINE
  5
FE
100
AcDbEntity
100
AcDbLine
  8
0
 62
256
370
-1
 48
1.0
  6
ByLayer
 10
4.9996001000000021
 20
10.02738877
 30
0.0
 11
4.8884890000000016
 21
10.02738877
 31
0.0
  0
LINE
  5
FF
100
AcDbEntity
100
AcDbLine
  8
0
 62
256
370
-1
 48
1.0
  6
ByLayer
 10
3.2219001000000018
 20
10.02738877
 30
0.0
 11
3.1107890000000014
 21
10.02738877
 31
0.0
  0
LINE
  5
100
100
AcDbEntity
100
AcDbLine
  8
0
 62
256
370
-1
 48
1.0
  6
ByLayer
 10
2.2219090000000019
 20
6.4719887700000003
 30
0.0
 11
2.110797900000001
 21
6.4719887700000003
 31
0.0
  0
LINE
  5
101
100
AcDbEntity
100
AcDbLine
  8
0
 62
256
370
-1
 48
1.0
  6
ByLayer
 10
3.9996090000000017
 20
10.02738877
 30
0.0
 11
3.8884979000000013
 21
10.02738877
 31
0.0
  0
LINE
  5
102
100
AcDbEntity
100
AcDbLine
  8
0
 62
256
370
-1
 48
1.0
  6
ByLayer
 10
2.2219090000000019
 20
10.02738877
 30
0.0
 11
2.1107979000000014
 21
10.02738877
 31
0.0
  0
LINE
  5
103
100
AcDbEntity
100
AcDbLine
  8
0
 62
256
370
-1
 48
1.0
  6
ByLayer
 10
2.221909000000001
 20
5.8608777300000003
 30
0.0
 11
2.1107979000000006
 21
5.8608777300000003
 31
0.0
  0
LINE
  5
104
100
AcDbEntity
100
AcDbLine
  8
0
 62
256
370
-1
 48
1.0
  6
ByLayer
 10
3.9996090000000009
 20
9.4162777300000009
 30
0.0
 11
3.8884979000000004
 21
9.4162777300000009
 31
0.0
  0
LINE
  5
105
100
AcDbEntity
100
AcDbLine
  8
0
 62
256
370
-1
 48
1.0
  6
ByLayer
 10
2.221909000000001
 20
9.4162777300000009
 30
0.0
 11
2.1107979000000006
 21
9.4162777300000009
 31
0.0
  0
LINE
  5
106
100
AcDbEntity
100
AcDbLine
  8
0
 62
256
370
-1
 48
1.0
  6
ByLayer
 10
2.9996780000000012
 20
5.8608777299999986
 30
0.0
 11
2.3330200000000003
 21
5.8608777299999986
 31
0.0
  0
LINE
  5
107
100
AcDbEntity
100
AcDbLine
  8
0
 62
256
370
-1
 48
1.0
  6
ByLayer
 10
4.7773780000000006
 20
9.4162777299999973
 30
0.0
 11
4.1107200000000006
 21
9.4162777299999973
 31
0.0
  0
LINE
  5
108
100
AcDbEntity
100
AcDbLine
  8
0
 62
256
370
-1
 48
1.0
  6
ByLayer
 10
2.9996780000000012
 20
9.4162777299999973
 30
0.0
 11
2.3330200000000003
 21
9.4162777299999973
 31
0.0
  0
LINE
  5
109
100
AcDbEntity
100
AcDbLine
  8
0
 62
256
370
-1
 48
1.0
  6
ByLayer
 10
3.2219001000000009
 20
5.8608777299999995
 30
0.0
 11
3.1107890000000014
 21
5.8608777300000003
 31
0.0
  0
LINE
  5
10A
100
AcDbEntity
100
AcDbLine
  8
0
 62
256
370
-1
 48
1.0
  6
ByLayer
 10
4.9996001000000003
 20
9.4162777299999991
 30
0.0
 11
4.8884890000000016
 21
9.4162777300000009
 31
0.0
  0
LINE
  5
10B
100
AcDbEntity
100
AcDbLine
  8
0
 62
256
370
-1
 48
1.0
  6
ByLayer
 10
3.2219001000000009
 20
9.4162777299999991
 30
0.0
 11
3.1107890000000014
 21
9.4162777300000009
 31
0.0
  0
LINE
  5
10C
100
AcDbEntity
100
AcDbLine
  8
0
 62
256
370
-1
 48
1.0
  6
ByLayer
 10
2.9996780000000012
 20
5.6942110699999997
 30
0.0
 11
2.3330200000000003
 21
5.6942110699999997
 31
0.0
  0
LINE
  5
10D
100
AcDbEntity
100
AcDbLine
  8
0
 62
256
370
-1
 48
1.0
  6
ByLayer
 10
4.7773780000000006
 20
9.2496110700000003
 30
0.0
 11
4.1107200000000006
 21
9.2496110700000003
 31
0.0
  0
LINE
  5
10E
100
AcDbEntity
100
AcDbLine
  8
0
 62
256
370
-1
 48
1.0
  6
ByLayer
 10
2.9375119454231871
 20
9.2496110700000003
 30
0.0
 11
2.3959900545768131
 21
9.2496110700000003
 31
0.0
  0
LINE
  5
10F
100
AcDbEntity
100
AcDbLine
  8
0
 62
256
370
-1
 48
1.0
  6
ByLayer
 10
2.221909000000001
 20
5.6942110699999997
 30
0.0
 11
2.1107979000000006
 21
5.6942110699999997
 31
0.0
  0
LINE
  5
110
100
AcDbEntity
100
AcDbLine
  8
0
 62
256
370
-1
 48
1.0
  6
ByLayer
 10
3.9996090000000009
 20
9.2496110700000003
 30
0.0
 11
3.8884979000000004
 21
9.2496110700000003
 31
0.0
  0
LINE
  5
111
100
AcDbEntity
100
AcDbLine
  8
0
 62
256
370
-1
 48
1.0
  6
ByLayer
 10
2.2670871327463566
 20
9.2496110700000003
 30
0.0
 11
2.1107979000000006
 21
9.2496110700000003
 31
0.0
  0
LINE
  5
112
100
AcDbEntity
100
AcDbLine
  8
0
 62
256
370
-1
 48
1.0
  6
ByLayer
 10
3.2219001000000009
 20
5.6942110699999997
 30
0.0
 11
3.1107890000000014
 21
5.6942110699999997
 31
0.0
  0
LINE
  5
113
100
AcDbEntity
100
AcDbLine
  8
0
 62
256
370
-1
 48
1.0
  6
ByLayer
 10
4.9996001000000003
 20
9.2496110700000003
 30
0.0
 11
4.8884890000000016
 21
9.2496110700000003
 31
0.0
  0
LINE
  5
114
100
AcDbEntity
100
AcDbLine
  8
0
 62
256
370
-1
 48
1.0
  6
ByLayer
 10
3.2219001000000009
 20
9.2496110700000003
 30
0.0
 11
3.0664148672536449
 21
9.2496110700000003
 31
0.0
  0
LINE
  5
115
100
AcDbEntity
100
AcDbLine
  8
0
 62
256
370
-1
 48
1.0
  6
ByLayer
 10
2.9996780000000012
 20
5.5830999700000001
 30
0.0
 11
2.3330200000000003
 21
5.5830999700000001
 31
0.0
  0
LINE
  5
116
100
AcDbEntity
100
AcDbLine
  8
0
 62
256
370
-1
 48
1.0
  6
ByLayer
 10
4.7773780000000006
 20
9.1384999699999998
 30
0.0
 11
4.1107200000000006
 21
9.1384999699999998
 31
0.0
  0
LINE
  5
117
100
AcDbEntity
100
AcDbLine
  8
0
 62
256
370
-1
 48
1.0
  6
ByLayer
 10
2.8000008083021601
 20
9.1384999699999998
 30
0.0
 11
2.53350119169784
 21
9.1384999699999998
 31
0.0
  0
LINE
  5
118
100
AcDbEntity
100
AcDbLine
  8
0
 62
256
370
-1
 48
1.0
  6
ByLayer
 10
2.221909000000001
 20
5.5830999700000001
 30
0.0
 11
2.1107979000000006
 21
5.5830999700000001
 31
0.0
  0
LINE
  5
119
100
AcDbEntity
100
AcDbLine
  8
0
 62
256
370
-1
 48
1.0
  6
ByLayer
 10
3.9996090000000009
 20
9.1384999699999998
 30
0.0
 11
3.8884979000000004
 21
9.1384999699999998
 31
0.0
  0
LINE
  5
11A
100
AcDbEntity
100
AcDbLine
  8
0
 62
256
370
-1
 48
1.0
  6
ByLayer
 10
2.3439827388716945
 20
9.1384999699999998
 30
0.0
 11
2.1107979000000006
 21
9.1384999699999998
 31
0.0
  0
LINE
  5
11B
100
AcDbEntity
100
AcDbLine
  8
0
 62
256
370
-1
 48
1.0
  6
ByLayer
 10
3.2219001000000009
 20
5.5830999700000001
 30
0.0
 11
3.1107890000000014
 21
5.5830999700000001
 31
0.0
  0
LINE
  5
11C
100
AcDbEntity
100
AcDbLine
  8
0
 62
256
370
-1
 48
1.0
  6
ByLayer
 10
4.9996001000000003
 20
9.1384999699999998
 30
0.0
 11
4.8884890000000016
 21
9.1384999699999998
 31
0.0
  0
LINE
  5
11D
100
AcDbEntity
100
AcDbLine
  8
0
 62
256
370
-1
 48
1.0
  6
ByLayer
 10
3.2219001000000009
 20
9.1384999699999998
 30
0.0
 11
2.9895192611283075
 21
9.1384999699999998
 31
0.0
  0
LINE
  5
11E
100
AcDbEntity
100
AcDbLine
  8
0
 62
256
370
-1
 48
1.0
  6
ByLayer
 10
5.7389718819427324
 20
8.3810086984653918
 30
0.0
 11
5.7832652590535343
 21
8.4879423702095895
 31
0.0
  0
LINE
  5
11F
100
AcDbEntity
100
AcDbLine
  8
0
 62
256
370
-1
 48
1.0
  6
ByLayer
 10
3.1495281180572681
 20
8.3810086984653882
 30
0.0
 11
3.1052347409464658
 21
8.4879423702095931
 31
0.0
  0
LINE
  5
120
100
AcDbEntity
100
AcDbLine
  8
0
 62
256
370
-1
 48
1.0
  6
ByLayer
 10
5.9442752049506788
 20
8.2959601722847349
 30
0.0
 11
5.9885718013031646
 21
8.4029016159658685
 31
0.0
  0
LINE
  5
121
100
AcDbEntity
100
AcDbLine
  8
0
 62
256
370
-1
 48
1.0
  6
ByLayer
 10
2.9442247950493217
 20
8.2959601722847349
 30
0.0
 11
2.8999281986968364
 21
8.402901615965872
 31
0.0
  0
LINE
  5
122
100
AcDbEntity
100
AcDbLine
  8
0
 62
256
370
-1
 48
1.0
  6
ByLayer
 10
6.6331356873459155
 20
7.7470083641283205
 30
0.0
 11
6.7022313064832169
 21
7.5801967833064854
 31
0.0
  0
LINE
  5
123
100
AcDbEntity
100
AcDbLine
  8
0
 62
256
370
-1
 48
1.0
  6
ByLayer
 10
2.2553643126540845
 20
7.7470083641283214
 30
0.0
 11
2.1862686935167841
 21
7.5801967833064854
 31
0.0
  0
LINE
  5
124
100
AcDbEntity
100
AcDbLine
  8
0
 62
256
370
-1
 48
1.0
  6
ByLayer
 10
5.7832652590535343
 20
8.4879423702095895
 30
0.0
 11
5.9885718013031646
 21
8.4029016159658685
 31
0.0
  0
LINE
  5
125
100
AcDbEntity
100
AcDbLine
  8
0
 62
256
370
-1
 48
1.0
  6
ByLayer
 10
3.1052347409464658
 20
8.4879423702095931
 30
0.0
 11
2.8999281986968364
 21
8.402901615965872
 31
0.0
  0
LINE
  5
126
100
AcDbEntity
100
AcDbLine
  8
0
 62
256
370
-1
 48
1.0
  6
ByLayer
 10
5.3644806842703705
 20
7.4587602649391886
 30
0.0
 11
5.5569555867537055
 21
7.3790345499141532
 31
0.0
  0
LINE
  5
127
100
AcDbEntity
100
AcDbLine
  8
0
 62
256
370
-1
 48
1.0
  6
ByLayer
 10
3.5240193157296291
 20
7.4587602649391886
 30
0.0
 11
3.3315444132462946
 21
7.3790345499141532
 31
0.0
  0
LINE
  5
128
100
AcDbEntity
100
AcDbLine
  8
0
 62
256
370
-1
 48
1.0
  6
ByLayer
 10
5.6066111055116892
 20
7.3218079602232153
 30
0.0
 11
5.6757067246489896
 21
7.1549963794013784
 31
0.0
  0
LINE
  5
129
100
AcDbEntity
100
AcDbLine
  8
0
 62
256
370
-1
 48
1.0
  6
ByLayer
 10
3.2818888944883109
 20
7.3218079602232153
 30
0.0
 11
3.2127932753510104
 21
7.1549963794013793
 31
0.0
  0
LINE
  5
12A
100
AcDbEntity
100
AcDbLine
  8
0
 62
256
370
-1
 48
1.0
  6
ByLayer
 10
5.9885718013031646
 20
8.3127023020212487
 30
0.0
 11
5.9885718013031646
 21
8.4029016159658685
 31
0.0
  0
LINE
  5
12B
100
AcDbEntity
100
AcDbLine
  8
0
 62
256
370
-1
 48
1.0
  6
ByLayer
 10
2.8999281986968364
 20
8.3127023020212469
 30
0.0
 11
2.8999281986968364
 21
8.402901615965872
 31
0.0
  0
LINE
  5
12C
100
AcDbEntity
100
AcDbLine
  8
0
 62
256
370
-1
 48
1.0
  6
ByLayer
 10
5.3644806842703714
 20
7.3685609509945627
 30
0.0
 11
5.5569555867537064
 21
7.2888352359695272
 31
0.0
  0
LINE
  5
12D
100
AcDbEntity
100
AcDbLine
  8
0
 62
256
370
-1
 48
1.0
  6
ByLayer
 10
3.5240193157296291
 20
7.3685609509945627
 30
0.0
 11
3.3315444132462946
 21
7.2888352359695263
 31
0.0
  0
LINE
  5
12E
100
AcDbEntity
100
AcDbLine
  8
0
 62
256
370
-1
 48
1.0
  6
ByLayer
 10
5.6066111055116892
 20
7.2492213320843222
 30
0.0
 11
5.6757067246489896
 21
7.0824097512624862
 31
0.0
  0
LINE
  5
12F
100
AcDbEntity
100
AcDbLine
  8
0
 62
256
370
-1
 48
1.0
  6
ByLayer
 10
3.2818888944883109
 20
7.2492213320843222
 30
0.0
 11
3.2127932753510104
 21
7.0824097512624862
 31
0.0
  0
LINE
  5
130
100
AcDbEntity
100
AcDbLine
  8
0
 62
256
370
-1
 48
1.0
  6
ByLayer
 10
5.4457553792792721
 20
7.6549747359074134
 30
0.0
 11
5.702705564982157
 21
8.2753073590856037
 31
0.0
  0
LINE
  5
131
100
AcDbEntity
100
AcDbLine
  8
0
 62
256
370
-1
 48
1.0
  6
ByLayer
 10
5.3644806842703705
 20
7.4587602649391886
 30
0.0
 11
5.4022696996245356
 21
7.5499910183159376
 31
0.0
  0
LINE
  5
132
100
AcDbEntity
100
AcDbLine
  8
0
 62
256
370
-1
 48
1.0
  6
ByLayer
 10
3.4427446207207284
 20
7.6549747359074134
 30
0.0
 11
3.185794435017844
 21
8.2753073590856037
 31
0.0
  0
LINE
  5
133
100
AcDbEntity
100
AcDbLine
  8
0
 62
256
370
-1
 48
1.0
  6
ByLayer
 10
3.5240193157296291
 20
7.4587602649391886
 30
0.0
 11
3.4862303003754649
 21
7.5499910183159376
 31
0.0
  0
LINE
  5
134
100
AcDbEntity
100
AcDbLine
  8
0
 62
256
370
-1
 48
1.0
  6
ByLayer
 10
5.6382229329666984
 20
7.5752312793196301
 30
0.0
 11
5.8951804674654902
 21
8.1955816440605691
 31
0.0
  0
LINE
  5
135
100
AcDbEntity
100
AcDbLine
  8
0
 62
256
370
-1
 48
1.0
  6
ByLayer
 10
5.5569555867537055
 20
7.3790345499141532
 30
0.0
 11
5.5947353211169313
 21
7.4702428969967043
 31
0.0
  0
LINE
  5
136
100
AcDbEntity
100
AcDbLine
  8
0
 62
256
370
-1
 48
1.0
  6
ByLayer
 10
3.2502770670333017
 20
7.575231279319631
 30
0.0
 11
2.9933195325345099
 21
8.1955816440605691
 31
0.0
  0
LINE
  5
137
100
AcDbEntity
100
AcDbLine
  8
0
 62
256
370
-1
 48
1.0
  6
ByLayer
 10
3.3315444132462946
 20
7.3790345499141532
 30
0.0
 11
3.2937646788830697
 21
7.4702428969967043
 31
0.0
  0
LINE
  5
138
100
AcDbEntity
100
AcDbLine
  8
0
 62
256
370
-1
 48
1.0
  6
ByLayer
 10
5.5569555867537055
 20
7.2888352359695281
 30
0.0
 11
5.5569555867537055
 21
7.3790345499141532
 31
0.0
  0
LINE
  5
139
100
AcDbEntity
100
AcDbLine
  8
0
 62
256
370
-1
 48
1.0
  6
ByLayer
 10
3.3315444132462946
 20
7.288835235969529
 30
0.0
 11
3.3315444132462946
 21
7.3790345499141532
 31
0.0
  0
LINE
  5
13A
100
AcDbEntity
100
AcDbLine
  8
0
 62
256
370
-1
 48
1.0
  6
ByLayer
 10
5.3644806842703705
 20
7.3685609509945635
 30
0.0
 11
5.3644806842703705
 21
7.4587602649391886
 31
0.0
  0
LINE
  5
13B
100
AcDbEntity
100
AcDbLine
  8
0
 62
256
370
-1
 48
1.0
  6
ByLayer
 10
3.5240193157296291
 20
7.3685609509945635
 30
0.0
 11
3.5240193157296291
 21
7.4587602649391886
 31
0.0
  0
LINE
  5
13C
100
AcDbEntity
100
AcDbLine
  8
0
 62
256
370
-1
 48
1.0
  6
ByLayer
 10
5.6686339452149053
 20
7.553755295422107
 30
0.0
 11
5.9312779394018484
 21
8.1767915176015613
 31
0.0
  0
LINE
  5
13D
100
AcDbEntity
100
AcDbLine
  8
0
 62
256
370
-1
 48
1.0
  6
ByLayer
 10
5.5569555867537064
 20
7.2888352359695272
 30
0.0
 11
5.6237270561573576
 21
7.447228517245212
 31
0.0
  0
LINE
  5
13E
100
AcDbEntity
100
AcDbLine
  8
0
 62
256
370
-1
 48
1.0
  6
ByLayer
 10
5.9746903207894704
 20
8.2797730694138814
 30
0.0
 11
5.9885718013031646
 21
8.3127023020212487
 31
0.0
  0
LINE
  5
13F
100
AcDbEntity
100
AcDbLine
  8
0
 62
256
370
-1
 48
1.0
  6
ByLayer
 10
3.2198660547850948
 20
7.5537552954221079
 30
0.0
 11
2.9572220605981516
 21
8.1767915176015613
 31
0.0
  0
LINE
  5
140
100
AcDbEntity
100
AcDbLine
  8
0
 62
256
370
-1
 48
1.0
  6
ByLayer
 10
3.3315444132462946
 20
7.2888352359695263
 30
0.0
 11
3.2647729438426429
 21
7.447228517245212
 31
0.0
  0
LINE
  5
141
100
AcDbEntity
100
AcDbLine
  8
0
 62
256
370
-1
 48
1.0
  6
ByLayer
 10
2.9138096792105301
 20
8.2797730694138814
 30
0.0
 11
2.8999281986968364
 21
8.3127023020212469
 31
0.0
  0
LINE
  5
142
100
AcDbEntity
100
AcDbLine
  8
0
 62
256
370
-1
 48
1.0
  6
ByLayer
 10
5.8051047428773099
 20
7.4040267168648217
 30
0.0
 11
6.4247484413200491
 21
7.6606915405988278
 31
0.0
  0
LINE
  5
143
100
AcDbEntity
100
AcDbLine
  8
0
 62
256
370
-1
 48
1.0
  6
ByLayer
 10
5.6066111055116901
 20
7.3218079602232153
 30
0.0
 11
5.7007164068051743
 21
7.3607876523101829
 31
0.0
  0
LINE
  5
144
100
AcDbEntity
100
AcDbLine
  8
0
 62
256
370
-1
 48
1.0
  6
ByLayer
 10
6.527658946534781
 20
7.7033184675694359
 30
0.0
 11
6.6331356873459164
 21
7.7470083641283196
 31
0.0
  0
LINE
  5
145
100
AcDbEntity
100
AcDbLine
  8
0
 62
256
370
-1
 48
1.0
  6
ByLayer
 10
3.0833952571226906
 20
7.4040267168648217
 30
0.0
 11
2.463751558679951
 21
7.6606915405988287
 31
0.0
  0
LINE
  5
146
100
AcDbEntity
100
AcDbLine
  8
0
 62
256
370
-1
 48
1.0
  6
ByLayer
 10
3.2818888944883104
 20
7.3218079602232153
 30
0.0
 11
3.1877835931948266
 21
7.3607876523101829
 31
0.0
  0
LINE
  5
147
100
AcDbEntity
100
AcDbLine
  8
0
 62
256
370
-1
 48
1.0
  6
ByLayer
 10
2.3608410534652191
 20
7.7033184675694377
 30
0.0
 11
2.2553643126540841
 21
7.7470083641283214
 31
0.0
  0
LINE
  5
148
100
AcDbEntity
100
AcDbLine
  8
0
 62
256
370
-1
 48
1.0
  6
ByLayer
 10
5.8741850552114325
 20
7.2372087957575131
 30
0.0
 11
6.4938371755393298
 21
7.4938771079505715
 31
0.0
  0
LINE
  5
149
100
AcDbEntity
100
AcDbLine
  8
0
 62
256
370
-1
 48
1.0
  6
ByLayer
 10
5.6757067246489896
 20
7.1549963794013784
 30
0.0
 11
5.7697927460260976
 21
7.1939680854855022
 31
0.0
  0
LINE
  5
14A
100
AcDbEntity
100
AcDbLine
  8
0
 62
256
370
-1
 48
1.0
  6
ByLayer
 10
6.5967482572077323
 20
7.5365042736961101
 30
0.0
 11
6.7022313064832169
 21
7.5801967833064854
 31
0.0
  0
LINE
  5
14B
100
AcDbEntity
100
AcDbLine
  8
0
 62
256
370
-1
 48
1.0
  6
ByLayer
 10
3.0143149447885684
 20
7.2372087957575131
 30
0.0
 11
2.3946628244606698
 21
7.4938771079505733
 31
0.0
  0
LINE
  5
14C
100
AcDbEntity
100
AcDbLine
  8
0
 62
256
370
-1
 48
1.0
  6
ByLayer
 10
3.2127932753510104
 20
7.1549963794013793
 30
0.0
 11
3.118707253973902
 21
7.193968085485503
 31
0.0
  0
LINE
  5
14D
100
AcDbEntity
100
AcDbLine
  8
0
 62
256
370
-1
 48
1.0
  6
ByLayer
 10
2.2917517427922682
 20
7.5365042736961101
 30
0.0
 11
2.1862686935167837
 21
7.5801967833064854
 31
0.0
  0
LINE
  5
14E
100
AcDbEntity
100
AcDbLine
  8
0
 62
256
370
-1
 48
1.0
  6
ByLayer
 10
6.7022313064832169
 20
7.5076101551675976
 30
0.0
 11
6.7022313064832169
 21
7.5801967833064854
 31
0.0
  0
LINE
  5
14F
100
AcDbEntity
100
AcDbLine
  8
0
 62
256
370
-1
 48
1.0
  6
ByLayer
 10
2.1862686935167841
 20
7.5076101551675976
 30
0.0
 11
2.1862686935167841
 21
7.5801967833064854
 31
0.0
  0
LINE
  5
150
100
AcDbEntity
100
AcDbLine
  8
0
 62
256
370
-1
 48
1.0
  6
ByLayer
 10
5.6757067246489896
 20
7.0824097512624888
 30
0.0
 11
5.6757067246489896
 21
7.1549963794013784
 31
0.0
  0
LINE
  5
151
100
AcDbEntity
100
AcDbLine
  8
0
 62
256
370
-1
 48
1.0
  6
ByLayer
 10
3.2127932753510104
 20
7.0824097512624888
 30
0.0
 11
3.2127932753510104
 21
7.1549963794013793
 31
0.0
  0
LINE
  5
152
100
AcDbEntity
100
AcDbLine
  8
0
 62
256
370
-1
 48
1.0
  6
ByLayer
 10
5.6066111055116892
 20
7.2492213320843177
 30
0.0
 11
5.6066111055116892
 21
7.3218079602232153
 31
0.0
  0
LINE
  5
153
100
AcDbEntity
100
AcDbLine
  8
0
 62
256
370
-1
 48
1.0
  6
ByLayer
 10
3.2818888944883109
 20
7.2492213320843177
 30
0.0
 11
3.2818888944883109
 21
7.3218079602232153
 31
0.0
  0
LINE
  5
154
100
AcDbEntity
100
AcDbLine
  8
0
 62
256
370
-1
 48
1.0
  6
ByLayer
 10
5.7774227559252243
 20
7.1245419109278689
 30
0.0
 11
5.6757067246489896
 21
7.0824097512624862
 31
0.0
  0
LINE
  5
155
100
AcDbEntity
100
AcDbLine
  8
0
 62
256
370
-1
 48
1.0
  6
ByLayer
 10
6.5131875170496887
 20
7.4293056537018209
 30
0.0
 11
5.8856534998536318
 21
7.1693725529287438
 31
0.0
  0
LINE
  5
156
100
AcDbEntity
100
AcDbLine
  8
0
 62
256
370
-1
 48
1.0
  6
ByLayer
 10
6.702231306483216
 20
7.5076101551675904
 30
0.0
 11
6.6166297758575929
 21
7.472152840222563
 31
0.0
  0
LINE
  5
157
100
AcDbEntity
100
AcDbLine
  8
0
 62
256
370
-1
 48
1.0
  6
ByLayer
 10
3.1110772440747767
 20
7.124541910927868
 30
0.0
 11
3.2127932753510104
 21
7.0824097512624862
 31
0.0
  0
LINE
  5
158
100
AcDbEntity
100
AcDbLine
  8
0
 62
256
370
-1
 48
1.0
  6
ByLayer
 10
2.3753124829503114
 20
7.4293056537018218
 30
0.0
 11
3.0028465001463687
 21
7.1693725529287438
 31
0.0
  0
LINE
  5
159
100
AcDbEntity
100
AcDbLine
  8
0
 62
256
370
-1
 48
1.0
  6
ByLayer
 10
2.1862686935167841
 20
7.5076101551675922
 30
0.0
 11
2.2718702241424067
 21
7.4721528402225639
 31
0.0
  0
LINE
  5
15A
100
AcDbEntity
100
AcDbLine
  8
0
 62
256
370
-1
 48
1.0
  6
ByLayer
 10
2.2917944165022943
 20
4.9074133839326723
 30
0.0
 11
2.186321253273424
 21
4.8637249692568831
 31
0.0
  0
LINE
  5
15B
100
AcDbEntity
100
AcDbLine
  8
0
 62
256
370
-1
 48
1.0
  6
ByLayer
 10
3.0143149487067213
 20
5.2066911874647719
 30
0.0
 11
2.3946628298024741
 21
4.950022875861408
 31
0.0
  0
LINE
  5
15C
100
AcDbEntity
100
AcDbLine
  8
0
 62
256
370
-1
 48
1.0
  6
ByLayer
 10
3.2127932910954238
 20
5.2889036087195036
 30
0.0
 11
3.11870725722041
 21
5.2499318974585787
 31
0.0
  0
LINE
  5
15D
100
AcDbEntity
100
AcDbLine
  8
0
 62
256
370
-1
 48
1.0
  6
ByLayer
 10
6.5967055834977062
 20
4.9074133839326466
 30
0.0
 11
6.7021787467265765
 21
4.8637249692568822
 31
0.0
  0
LINE
  5
15E
100
AcDbEntity
100
AcDbLine
  8
0
 62
256
370
-1
 48
1.0
  6
ByLayer
 10
5.8741850512932796
 20
5.206691187464771
 30
0.0
 11
6.4938371701975264
 21
4.9500228758614115
 31
0.0
  0
LINE
  5
15F
100
AcDbEntity
100
AcDbLine
  8
0
 62
256
370
-1
 48
1.0
  6
ByLayer
 10
5.6757067089045767
 20
5.2889036087195036
 30
0.0
 11
5.7697927427795905
 21
5.2499318974585778
 31
0.0
  0
LINE
  5
160
100
AcDbEntity
100
AcDbLine
  8
0
 62
256
370
-1
 48
1.0
  6
ByLayer
 10
5.6066110951248449
 20
5.1220920408319799
 30
0.0
 11
5.7007164050826553
 21
5.083112345156132
 31
0.0
  0
LINE
  5
161
100
AcDbEntity
100
AcDbLine
  8
0
 62
256
370
-1
 48
1.0
  6
ByLayer
 10
2.3609040385116131
 20
4.7406076184438293
 30
0.0
 11
2.2554168670531558
 21
4.6969134013693603
 31
0.0
  0
LINE
  5
162
100
AcDbEntity
100
AcDbLine
  8
0
 62
256
370
-1
 48
1.0
  6
ByLayer
 10
3.0833952587268292
 20
5.0398732805524578
 30
0.0
 11
2.4637515600331499
 21
4.7832084567145081
 31
0.0
  0
LINE
  5
163
100
AcDbEntity
100
AcDbLine
  8
0
 62
256
370
-1
 48
1.0
  6
ByLayer
 10
3.2818889048751556
 20
5.1220920408319808
 30
0.0
 11
3.1877835949173448
 21
5.083112345156132
 31
0.0
  0
LINE
  5
164
100
AcDbEntity
100
AcDbLine
  8
0
 62
256
370
-1
 48
1.0
  6
ByLayer
 10
6.5275959614883874
 20
4.7406076184438293
 30
0.0
 11
6.6330831329468447
 21
4.6969134013693621
 31
0.0
  0
LINE
  5
165
100
AcDbEntity
100
AcDbLine
  8
0
 62
256
370
-1
 48
1.0
  6
ByLayer
 10
5.8051047412731709
 20
5.0398732805524586
 30
0.0
 11
6.4247484399668506
 21
4.7832084567145072
 31
0.0
  0
LINE
  5
166
100
AcDbEntity
100
AcDbLine
  8
0
 62
256
370
-1
 48
1.0
  6
ByLayer
 10
3.4427446300913465
 20
4.7889252621518743
 30
0.0
 11
3.185559620634308
 21
4.1680257242816392
 31
0.0
  0
LINE
  5
167
100
AcDbEntity
100
AcDbLine
  8
0
 62
256
370
-1
 48
1.0
  6
ByLayer
 10
3.5240193282409309
 20
4.9851397407023805
 30
0.0
 11
3.4862303099264809
 21
4.8939089801788702
 31
0.0
  0
LINE
  5
168
100
AcDbEntity
100
AcDbLine
  8
0
 62
256
370
-1
 48
1.0
  6
ByLayer
 10
3.1429753141307626
 20
4.0652181139765267
 30
0.0
 11
3.0988920512600444
 21
3.9587917028803803
 31
0.0
  0
LINE
  5
169
100
AcDbEntity
100
AcDbLine
  8
0
 62
256
370
-1
 48
1.0
  6
ByLayer
 10
5.4457553699086541
 20
4.7889252621518734
 30
0.0
 11
5.7029403793656925
 21
4.1680257242816392
 31
0.0
  0
LINE
  5
16A
100
AcDbEntity
100
AcDbLine
  8
0
 62
256
370
-1
 48
1.0
  6
ByLayer
 10
5.3644806717590701
 20
4.9851397407023796
 30
0.0
 11
5.4022696900735196
 21
4.8939089801788711
 31
0.0
  0
LINE
  5
16B
100
AcDbEntity
100
AcDbLine
  8
0
 62
256
370
-1
 48
1.0
  6
ByLayer
 10
5.7455246858692384
 20
4.0652181139765267
 30
0.0
 11
5.7896079487399561
 21
3.9587917028803803
 31
0.0
  0
LINE
  5
16C
100
AcDbEntity
100
AcDbLine
  8
0
 62
256
370
-1
 48
1.0
  6
ByLayer
 10
3.2502770760519062
 20
4.8686687147540706
 30
0.0
 11
2.9930880121682049
 21
4.2477593886319971
 31
0.0
  0
LINE
  5
16D
100
AcDbEntity
100
AcDbLine
  8
0
 62
256
370
-1
 48
1.0
  6
ByLayer
 10
3.3315444268662522
 20
5.0648654552681966
 30
0.0
 11
3.293764687698022
 21
4.9736570965853373
 31
0.0
  0
LINE
  5
16E
100
AcDbEntity
100
AcDbLine
  8
0
 62
256
370
-1
 48
1.0
  6
ByLayer
 10
2.9504937125656001
 20
4.1449276528516057
 30
0.0
 11
2.9064171498853657
 21
4.0385174174461964
 31
0.0
  0
LINE
  5
16F
100
AcDbEntity
100
AcDbLine
  8
0
 62
256
370
-1
 48
1.0
  6
ByLayer
 10
5.6382229239480939
 20
4.868668714754067
 30
0.0
 11
5.8954119878317952
 21
4.2477593886319962
 31
0.0
  0
LINE
  5
170
100
AcDbEntity
100
AcDbLine
  8
0
 62
256
370
-1
 48
1.0
  6
ByLayer
 10
5.5569555731337488
 20
5.0648654552681966
 30
0.0
 11
5.5947353123019781
 21
4.9736570965853364
 31
0.0
  0
LINE
  5
171
100
AcDbEntity
100
AcDbLine
  8
0
 62
256
370
-1
 48
1.0
  6
ByLayer
 10
5.9380062874344004
 20
4.1449276528516057
 30
0.0
 11
5.9820828501146348
 21
4.0385174174461973
 31
0.0
  0
LINE
  5
172
100
AcDbEntity
100
AcDbLine
  8
0
 62
256
370
-1
 48
1.0
  6
ByLayer
 10
2.1863212532734244
 20
4.8637249692568831
 30
0.0
 11
2.2554168670531562
 21
4.6969134013693603
 31
0.0
  0
LINE
  5
173
100
AcDbEntity
100
AcDbLine
  8
0
 62
256
370
-1
 48
1.0
  6
ByLayer
 10
6.7021787467265757
 20
4.8637249692568822
 30
0.0
 11
6.6330831329468438
 21
4.6969134013693621
 31
0.0
  0
LINE
  5
174
100
AcDbEntity
100
AcDbLine
  8
0
 62
256
370
-1
 48
1.0
  6
ByLayer
 10
3.2127932910954238
 20
5.2889036087195036
 30
0.0
 11
3.2818889048751561
 21
5.1220920408319808
 31
0.0
  0
LINE
  5
175
100
AcDbEntity
100
AcDbLine
  8
0
 62
256
370
-1
 48
1.0
  6
ByLayer
 10
5.6757067089045767
 20
5.2889036087195036
 30
0.0
 11
5.606611095124844
 21
5.1220920408319799
 31
0.0
  0
LINE
  5
176
100
AcDbEntity
100
AcDbLine
  8
0
 62
256
370
-1
 48
1.0
  6
ByLayer
 10
3.3315444268662522
 20
5.0648654552681966
 30
0.0
 11
3.5240193282409309
 21
4.9851397407023805
 31
0.0
  0
LINE
  5
177
100
AcDbEntity
100
AcDbLine
  8
0
 62
256
370
-1
 48
1.0
  6
ByLayer
 10
5.5569555731337488
 20
5.0648654552681966
 30
0.0
 11
5.3644806717590701
 21
4.9851397407023796
 31
0.0
  0
LINE
  5
178
100
AcDbEntity
100
AcDbLine
  8
0
 62
256
370
-1
 48
1.0
  6
ByLayer
 10
2.9064171498853657
 20
4.0385174174461964
 30
0.0
 11
3.0988920512600444
 21
3.9587917028803803
 31
0.0
  0
LINE
  5
179
100
AcDbEntity
100
AcDbLine
  8
0
 62
256
370
-1
 48
1.0
  6
ByLayer
 10
5.9820828501146348
 20
4.0385174174461973
 30
0.0
 11
5.7896079487399561
 21
3.9587917028803803
 31
0.0
  0
LINE
  5
17A
100
AcDbEntity
100
AcDbLine
  8
0
 62
256
370
-1
 48
1.0
  6
ByLayer
 10
2.1863212532734244
 20
4.7911401703061403
 30
0.0
 11
2.2554168670531562
 21
4.6243286024186174
 31
0.0
  0
LINE
  5
17B
100
AcDbEntity
100
AcDbLine
  8
0
 62
256
370
-1
 48
1.0
  6
ByLayer
 10
6.7021787467265757
 20
4.7911401703061394
 30
0.0
 11
6.6330831329468438
 21
4.6243286024186165
 31
0.0
  0
LINE
  5
17C
100
AcDbEntity
100
AcDbLine
  8
0
 62
256
370
-1
 48
1.0
  6
ByLayer
 10
2.9064171498853657
 20
3.9483181035015704
 30
0.0
 11
3.0988920512600444
 21
3.8685923889357543
 31
0.0
  0
LINE
  5
17D
100
AcDbEntity
100
AcDbLine
  8
0
 62
256
370
-1
 48
1.0
  6
ByLayer
 10
5.9820828501146348
 20
3.9483181035015695
 30
0.0
 11
5.7896079487399561
 21
3.8685923889357543
 31
0.0
  0
LINE
  5
17E
100
AcDbEntity
100
AcDbLine
  8
0
 62
256
370
-1
 48
1.0
  6
ByLayer
 10
2.1863212532734244
 20
4.7911401703061358
 30
0.0
 11
2.1863212532734244
 21
4.8637249692568831
 31
0.0
  0
LINE
  5
17F
100
AcDbEntity
100
AcDbLine
  8
0
 62
256
370
-1
 48
1.0
  6
ByLayer
 10
6.7021787467265757
 20
4.7911401703061394
 30
0.0
 11
6.7021787467265757
 21
4.8637249692568822
 31
0.0
  0
LINE
  5
180
100
AcDbEntity
100
AcDbLine
  8
0
 62
256
370
-1
 48
1.0
  6
ByLayer
 10
6.6330831329468438
 20
4.624328602418613
 30
0.0
 11
6.6330831329468438
 21
4.6969134013693621
 31
0.0
  0
LINE
  5
181
100
AcDbEntity
100
AcDbLine
  8
0
 62
256
370
-1
 48
1.0
  6
ByLayer
 10
2.2554168670531562
 20
4.6243286024186148
 30
0.0
 11
2.2554168670531562
 21
4.6969134013693603
 31
0.0
  0
LINE
  5
182
100
AcDbEntity
100
AcDbLine
  8
0
 62
256
370
-1
 48
1.0
  6
ByLayer
 10
5.9820828501146348
 20
3.9483181035015775
 30
0.0
 11
5.9820828501146348
 21
4.0385174174461973
 31
0.0
  0
LINE
  5
183
100
AcDbEntity
100
AcDbLine
  8
0
 62
256
370
-1
 48
1.0
  6
ByLayer
 10
2.9064171498853657
 20
3.9483181035015775
 30
0.0
 11
2.9064171498853657
 21
4.0385174174461964
 31
0.0
  0
LINE
  5
184
100
AcDbEntity
100
AcDbLine
  8
0
 62
256
370
-1
 48
1.0
  6
ByLayer
 10
5.7896079487399561
 20
3.8685923889357521
 30
0.0
 11
5.7896079487399561
 21
3.9587917028803803
 31
0.0
  0
LINE
  5
185
100
AcDbEntity
100
AcDbLine
  8
0
 62
256
370
-1
 48
1.0
  6
ByLayer
 10
3.0988920512600444
 20
3.8685923889357525
 30
0.0
 11
3.0988920512600444
 21
3.9587917028803803
 31
0.0
  0
LINE
  5
186
100
AcDbEntity
100
AcDbLine
  8
0
 62
256
370
-1
 48
1.0
  6
ByLayer
 10
5.6570370532623189
 20
5.0286201261250385
 30
0.0
 11
5.6066110951248449
 21
5.0495072418812379
 31
0.0
  0
LINE
  5
187
100
AcDbEntity
100
AcDbLine
  8
0
 62
256
370
-1
 48
1.0
  6
ByLayer
 10
2.4957216843966226
 20
4.72386611686587
 30
0.0
 11
3.1232400647831833
 21
4.9837927406603821
 31
0.0
  0
LINE
  5
188
100
AcDbEntity
100
AcDbLine
  8
0
 62
256
370
-1
 48
1.0
  6
ByLayer
 10
2.2554168670531562
 20
4.6243286024186174
 30
0.0
 11
2.3923516182037696
 21
4.6810488335053861
 31
0.0
  0
LINE
  5
189
100
AcDbEntity
100
AcDbLine
  8
0
 62
256
370
-1
 48
1.0
  6
ByLayer
 10
3.2314629467376816
 20
5.0286201261250385
 30
0.0
 11
3.2818889048751556
 21
5.0495072418812379
 31
0.0
  0
LINE
  5
18A
100
AcDbEntity
100
AcDbLine
  8
0
 62
256
370
-1
 48
1.0
  6
ByLayer
 10
6.3927783156033779
 20
4.7238661168658691
 30
0.0
 11
5.7652599352168172
 21
4.983792740660383
 31
0.0
  0
LINE
  5
18B
100
AcDbEntity
100
AcDbLine
  8
0
 62
256
370
-1
 48
1.0
  6
ByLayer
 10
6.6330831329468438
 20
4.6243286024186165
 30
0.0
 11
6.4961483817962309
 21
4.6810488335053844
 31
0.0
  0
LINE
  5
18C
100
AcDbEntity
100
AcDbLine
  8
0
 62
256
370
-1
 48
1.0
  6
ByLayer
 10
5.6066110951248449
 20
5.0495072418812379
 30
0.0
 11
5.606611095124844
 21
5.1220920408319799
 31
0.0
  0
LINE
  5
18D
100
AcDbEntity
100
AcDbLine
  8
0
 62
256
370
-1
 48
1.0
  6
ByLayer
 10
3.2818889048751556
 20
5.0495072418812379
 30
0.0
 11
3.2818889048751561
 21
5.1220920408319808
 31
0.0
  0
LINE
  5
18E
100
AcDbEntity
100
AcDbLine
  8
0
 62
256
370
-1
 48
1.0
  6
ByLayer
 10
3.5218726727922842
 20
4.8897579420598891
 30
0.0
 11
3.5240193282409309
 21
4.8949404267577545
 31
0.0
  0
LINE
  5
18F
100
AcDbEntity
100
AcDbLine
  8
0
 62
256
370
-1
 48
1.0
  6
ByLayer
 10
3.2187681992255461
 20
4.1579990111591121
 30
0.0
 11
3.4775931311649853
 21
4.7828576721276006
 31
0.0
  0
LINE
  5
190
100
AcDbEntity
100
AcDbLine
  8
0
 62
256
370
-1
 48
1.0
  6
ByLayer
 10
3.0988920512600444
 20
3.8685923889357543
 30
0.0
 11
3.1760748027791088
 21
4.0549280344343526
 31
0.0
  0
LINE
  5
191
100
AcDbEntity
100
AcDbLine
  8
0
 62
256
370
-1
 48
1.0
  6
ByLayer
 10
5.3666273272077163
 20
4.8897579420598687
 30
0.0
 11
5.3644806717590701
 21
4.8949404267577448
 31
0.0
  0
LINE
  5
192
100
AcDbEntity
100
AcDbLine
  8
0
 62
256
370
-1
 48
1.0
  6
ByLayer
 10
5.6697318007744535
 20
4.1579990111591112
 30
0.0
 11
5.4109068688350153
 21
4.7828576721275997
 31
0.0
  0
LINE
  5
193
100
AcDbEntity
100
AcDbLine
  8
0
 62
256
370
-1
 48
1.0
  6
ByLayer
 10
5.7896079487399561
 20
3.8685923889357543
 30
0.0
 11
5.7124251972208917
 21
4.0549280344343526
 31
0.0
  0
LINE
  5
194
100
AcDbEntity
100
AcDbLine
  8
0
 62
256
370
-1
 48
1.0
  6
ByLayer
 10
5.3644806717590701
 20
4.8949404267577448
 30
0.0
 11
5.3644806717590701
 21
4.9851397407023796
 31
0.0
  0
LINE
  5
195
100
AcDbEntity
100
AcDbLine
  8
0
 62
256
370
-1
 48
1.0
  6
ByLayer
 10
3.5240193282409309
 20
4.8949404267577545
 30
0.0
 11
3.5240193282409309
 21
4.9851397407023805
 31
0.0
  0
LINE
  5
196
100
AcDbEntity
100
AcDbLine
  8
0
 62
256
370
-1
 48
1.0
  6
ByLayer
 10
7.1107999999999993
 20
2.3334209999999995
 30
0.0
 11
5.8886134499999994
 21
2.3334209999999995
 31
0.0
  0
LINE
  5
197
100
AcDbEntity
100
AcDbLine
  8
0
 62
256
370
-1
 48
1.0
  6
ByLayer
 10
3.5554000000000001
 20
2.3334209999999995
 30
0.0
 11
4.7775865499999997
 21
2.3334209999999995
 31
0.0
  0
ARC
  5
198
100
AcDbEntity
  8
0
 62
256
370
-1
 48
1.0
  6
ByLayer
100
AcDbCircle
 10
4.4440850500000018
 20
10.1106860500000018
 30
0.0
 40
0.4444039514621859
100
AcDbArc
 50
0.0
 51
90.004647827363371
  0
ARC
  5
199
100
AcDbEntity
  8
0
 62
256
370
-1
 48
1.0
  6
ByLayer
100
AcDbCircle
 10
4.4440129499999994
 20
10.1106860500000018
 30
0.0
 40
0.4444039514621859
100
AcDbArc
 50
89.995352172636629
 51
180.0
  0
ARC
  5
19A
100
AcDbEntity
  8
0
 62
256
370
-1
 48
1.0
  6
ByLayer
100
AcDbCircle
 10
2.6667870500000017
 20
9.4440139499999987
 30
0.0
 40
0.4444039514621859
100
AcDbArc
 50
269.9953521726366148
 51
0.0
  0
ARC
  5
19B
100
AcDbEntity
  8
0
 62
256
370
-1
 48
1.0
  6
ByLayer
100
AcDbCircle
 10
2.6667149499999998
 20
9.4440139499999987
 30
0.0
 40
0.4444039514621859
100
AcDbArc
 50
180.0
 51
270.0046478273633852
  0
ARC
  5
19C
100
AcDbEntity
  8
0
 62
256
370
-1
 48
1.0
  6
ByLayer
100
AcDbCircle
 10
5.8886139499999999
 20
2.6667870500000008
 30
0.0
 40
0.4444039514621859
100
AcDbArc
 50
89.9999999999999858
 51
180.0046478273633284
  0
ARC
  5
19D
100
AcDbEntity
  8
0
 62
256
370
-1
 48
1.0
  6
ByLayer
100
AcDbCircle
 10
5.8886139499999999
 20
2.6667149499999994
 30
0.0
 40
0.4444039514621859
100
AcDbArc
 50
179.9953521726366716
 51
270.0
  0
ARC
  5
19E
100
AcDbEntity
  8
0
 62
256
370
-1
 48
1.0
  6
ByLayer
100
AcDbCircle
 10
4.77758605
 20
2.6667870500000008
 30
0.0
 40
0.4444039514621859
100
AcDbArc
 50
359.9953521726366148
 51
90.0
  0
ARC
  5
19F
100
AcDbEntity
  8
0
 62
256
370
-1
 48
1.0
  6
ByLayer
100
AcDbCircle
 10
4.77758605
 20
2.6667149499999994
 30
0.0
 40
0.4444039514621859
100
AcDbArc
 50
270.0
 51
0.0046478273633608
  0
ARC
  5
1A0
100
AcDbEntity
  8
0
 62
256
370
-1
 48
1.0
  6
ByLayer
100
AcDbCircle
 10
4.4440845500000021
 20
10.1106865500000005
 30
0.0
 40
0.3332934518959303
100
AcDbArc
 50
0.0
 51
90.0061113260758248
  0
ARC
  5
1A1
100
AcDbEntity
  8
0
 62
256
370
-1
 48
1.0
  6
ByLayer
100
AcDbCircle
 10
4.4440134500000008
 20
10.1106865500000005
 30
0.0
 40
0.3332934518959303
100
AcDbArc
 50
89.9938886739241752
 51
180.0
  0
ARC
  5
1A2
100
AcDbEntity
  8
0
 62
256
370
-1
 48
1.0
  6
ByLayer
100
AcDbCircle
 10
2.6667865500000008
 20
9.4440134499999999
 30
0.0
 40
0.3332934518959303
100
AcDbArc
 50
269.9938886739241752
 51
0.0
  0
ARC
  5
1A3
100
AcDbEntity
  8
0
 62
256
370
-1
 48
1.0
  6
ByLayer
100
AcDbCircle
 10
2.6667154499999994
 20
9.4440134499999999
 30
0.0
 40
0.3332934518959303
100
AcDbArc
 50
180.0
 51
270.0061113260758248
  0
ARC
  5
1A4
100
AcDbEntity
  8
0
 62
256
370
-1
 48
1.0
  6
ByLayer
100
AcDbCircle
 10
5.8886134500000002
 20
2.6667865500000008
 30
0.0
 40
0.3332934518959303
100
AcDbArc
 50
89.9999999999999858
 51
180.0061113260757963
  0
ARC
  5
1A5
100
AcDbEntity
  8
0
 62
256
370
-1
 48
1.0
  6
ByLayer
100
AcDbCircle
 10
5.8886134499999994
 20
2.666715449999999
 30
0.0
 40
0.3332934518959303
100
AcDbArc
 50
179.9938886739242037
 51
270.0
  0
ARC
  5
1A6
100
AcDbEntity
  8
0
 62
256
370
-1
 48
1.0
  6
ByLayer
100
AcDbCircle
 10
4.7775865499999997
 20
2.6667865500000008
 30
0.0
 40
0.3332934518959303
100
AcDbArc
 50
359.9938886739241752
 51
90.0
  0
ARC
  5
1A7
100
AcDbEntity
  8
0
 62
256
370
-1
 48
1.0
  6
ByLayer
100
AcDbCircle
 10
4.7775865499999997
 20
2.6667154499999994
 30
0.0
 40
0.3332934518959303
100
AcDbArc
 50
270.0
 51
0.0061113260758027
  0
ENDSEC
  0
SECTION
  2
OBJECTS
  0
DICTIONARY
  5
C
100
AcDbDictionary
280
0
281
1
  3
ACAD_GROUP
350
D
  3
ACAD_LAYOUT
350
1A
  3
ACAD_MLINESTYLE
350
17
  3
ACAD_PLOTSETTINGS
350
19
  3
ACAD_PLOTSTYLENAME
350
E
  3
AcDbVariableDictionary
350
1A8
  3
QCAD_OBJECTS
350
1A9
  0
DICTIONARY
  5
D
100
AcDbDictionary
280
0
281
1
  0
ACDBDICTIONARYWDFLT
  5
E
100
AcDbDictionary
281
1
  3
Normal
350
F
100
AcDbDictionaryWithDefault
340
F
  0
ACDBPLACEHOLDER
  5
F
  0
DICTIONARY
  5
17
100
AcDbDictionary
280
0
281
1
  3
Standard
350
18
  0
MLINESTYLE
  5
18
100
AcDbMlineStyle
  2
STANDARD
 70
0
  3

 62
256
 51
90.0
 52
90.0
 71
2
 49
0.5
 62
256
  6
BYLAYER
 49
-0.5
 62
256
  6
BYLAYER
  0
DICTIONARY
  5
19
100
AcDbDictionary
280
0
281
1
  0
DICTIONARY
  5
1A
100
AcDbDictionary
281
1
  3
Layout1
350
1E
  3
Layout2
350
26
  3
Model
350
22
  0
LAYOUT
  5
1E
100
AcDbPlotSettings
  1

  2
none_device
  4

  6

 40
0.0
 41
0.0
 42
0.0
 43
0.0
 44
0.0
 45
0.0
 46
0.0
 47
0.0
 48
0.0
 49
0.0
140
0.0
141
0.0
142
1.0
143
1.0
 70
688
 72
0
 73
0
 74
5
  7

 75
16
147
1.0
148
0.0
149
0.0
100
AcDbLayout
  1
Layout1
 70
1
 71
1
 10
0.0
 20
0.0
 11
420.0
 21
297.0
 12
0.0
 22
0.0
 32
0.0
 14
100000000000000000000.0
 24
100000000000000000000.0
 34
100000000000000000000.0
 15
-100000000000000000000.0
 25
-100000000000000000000.0
 35
-100000000000000000000.0
146
0.0
 13
0.0
 23
0.0
 33
0.0
 16
1.0
 26
0.0
 36
0.0
 17
0.0
 27
1.0
 37
0.0
 76
0
330
1B
  0
LAYOUT
  5
22
100
AcDbPlotSettings
  1

  2
none_device
  4

  6

 40
0.0
 41
0.0
 42
0.0
 43
0.0
 44
0.0
 45
0.0
 46
0.0
 47
0.0
 48
0.0
 49
0.0
140
0.0
141
0.0
142
1.0
143
1.0
 70
1712
 72
0
 73
0
 74
0
  7

 75
0
147
1.0
148
0.0
149
0.0
100
AcDbLayout
  1
Model
 70
1
 71
0
 10
0.0
 20
0.0
 11
12.0
 21
9.0
 12
0.0
 22
0.0
 32
0.0
 14
0.0
 24
0.0
 34
0.0
 15
0.0
 25
0.0
 35
0.0
146
0.0
 13
0.0
 23
0.0
 33
0.0
 16
1.0
 26
0.0
 36
0.0
 17
0.0
 27
1.0
 37
0.0
 76
0
330
1F
  0
LAYOUT
  5
26
100
AcDbPlotSettings
  1

  2
none_device
  4

  6

 40
0.0
 41
0.0
 42
0.0
 43
0.0
 44
0.0
 45
0.0
 46
0.0
 47
0.0
 48
0.0
 49
0.0
140
0.0
141
0.0
142
1.0
143
1.0
 70
688
 72
0
 73
0
 74
5
  7

 75
16
147
1.0
148
0.0
149
0.0
100
AcDbLayout
  1
Layout2
 70
1
 71
2
 10
0.0
 20
0.0
 11
12.0
 21
9.0
 12
0.0
 22
0.0
 32
0.0
 14
0.0
 24
0.0
 34
0.0
 15
0.0
 25
0.0
 35
0.0
146
0.0
 13
0.0
 23
0.0
 33
0.0
 16
1.0
 26
0.0
 36
0.0
 17
0.0
 27
1.0
 37
0.0
 76
0
330
23
  0
DICTIONARY
  5
1A8
100
AcDbDictionary
281
1
  3
DIMASSOC
350
1AB
  3
HIDETEXT
350
1AA
  0
DICTIONARYVAR
  5
1AA
100
DictionaryVariables
280
0
  1
2
  0
DICTIONARYVAR
  5
1AB
100
DictionaryVariables
280
0
  1
1
  0
DICTIONARY
  5
1A9
100
AcDbDictionary
281
1
  3
ColorSettings/BackgroundColor
350
1AC
  3
ColorSettings/ColorMode
350
1AD
  3
Grid/DisplayGrid00
350
1AE
  3
Grid/DisplayGrid01
350
1AF
  3
Grid/DisplayGrid02
350
1B0
  3
Grid/DisplayGrid03
350
1B1
  3
Grid/GridSpacingX00
350
1B2
  3
Grid/GridSpacingX01
350
1B3
  3
Grid/GridSpacingX02
350
1B4
  3
Grid/GridSpacingX03
350
1B5
  3
Grid/GridSpacingY00
350
1B6
  3
Grid/GridSpacingY01
350
1B7
  3
Grid/GridSpacingY02
350
1B8
  3
Grid/GridSpacingY03
350
1B9
  3
Grid/IsometricGrid00
350
1BA
  3
Grid/IsometricGrid01
350
1BB
  3
Grid/IsometricGrid02
350
1BC
  3
Grid/IsometricGrid03
350
1BD
  3
Grid/IsometricProjection00
350
1BE
  3
Grid/IsometricProjection01
350
1BF
  3
Grid/IsometricProjection02
350
1C0
  3
Grid/IsometricProjection03
350
1C1
  3
Grid/MetaGridSpacingX00
350
1C2
  3
Grid/MetaGridSpacingX01
350
1C3
  3
Grid/MetaGridSpacingX02
350
1C4
  3
Grid/MetaGridSpacingX03
350
1C5
  3
Grid/MetaGridSpacingY00
350
1C6
  3
Grid/MetaGridSpacingY01
350
1C7
  3
Grid/MetaGridSpacingY02
350
1C8
  3
Grid/MetaGridSpacingY03
350
1C9
  3
MultiPageSettings/Columns
350
1CA
  3
MultiPageSettings/GlueMarginsBottom
350
1CB
  3
MultiPageSettings/GlueMarginsLeft
350
1CC
  3
MultiPageSettings/GlueMarginsRight
350
1CD
  3
MultiPageSettings/GlueMarginsTop
350
1CE
  3
MultiPageSettings/PrintCropMarks
350
1CF
  3
MultiPageSettings/Rows
350
1D0
  3
PageSettings/OffsetX
350
1D1
  3
PageSettings/OffsetY
350
1D2
  3
PageSettings/PageOrientation
350
1D3
  3
PageSettings/PaperHeight
350
1D4
  3
PageSettings/PaperWidth
350
1D5
  3
PageSettings/Scale
350
1D6
  3
PageSettings/ShowPaperBorders
350
1D7
  3
QCADVersion
350
1D8
  3
UnitSettings/PaperUnit
350
1D9
  3
ViewportCenter
350
1DA
  3
ViewportHeight
350
1DB
  3
ViewportWidth
350
1DC
  0
XRECORD
  5
1AC
330
1A9
100
AcDbXrecord
280
1
1000
#ffffff
  0
XRECORD
  5
1AD
330
1A9
100
AcDbXrecord
280
1
1000
FullColor
  0
XRECORD
  5
1AE
330
1A9
100
AcDbXrecord
280
1
290
1
  0
XRECORD
  5
1AF
330
1A9
100
AcDbXrecord
280
1
290
1
  0
XRECORD
  5
1B0
330
1A9
100
AcDbXrecord
280
1
290
1
  0
XRECORD
  5
1B1
330
1A9
100
AcDbXrecord
280
1
290
1
  0
XRECORD
  5
1B2
330
1A9
100
AcDbXrecord
280
1
1000
auto
  0
XRECORD
  5
1B3
330
1A9
100
AcDbXrecord
280
1
1000
auto
  0
XRECORD
  5
1B4
330
1A9
100
AcDbXrecord
280
1
1000
auto
  0
XRECORD
  5
1B5
330
1A9
100
AcDbXrecord
280
1
1000
auto
  0
XRECORD
  5
1B6
330
1A9
100
AcDbXrecord
280
1
1000
auto
  0
XRECORD
  5
1B7
330
1A9
100
AcDbXrecord
280
1
1000
auto
  0
XRECORD
  5
1B8
330
1A9
100
AcDbXrecord
280
1
1000
auto
  0
XRECORD
  5
1B9
330
1A9
100
AcDbXrecord
280
1
1000
auto
  0
XRECORD
  5
1BA
330
1A9
100
AcDbXrecord
280
1
290
0
  0
XRECORD
  5
1BB
330
1A9
100
AcDbXrecord
280
1
290
0
  0
XRECORD
  5
1BC
330
1A9
100
AcDbXrecord
280
1
290
0
  0
XRECORD
  5
1BD
330
1A9
100
AcDbXrecord
280
1
290
0
  0
XRECORD
  5
1BE
330
1A9
100
AcDbXrecord
280
1
 90
0
  0
XRECORD
  5
1BF
330
1A9
100
AcDbXrecord
280
1
 90
0
  0
XRECORD
  5
1C0
330
1A9
100
AcDbXrecord
280
1
 90
0
  0
XRECORD
  5
1C1
330
1A9
100
AcDbXrecord
280
1
 90
0
  0
XRECORD
  5
1C2
330
1A9
100
AcDbXrecord
280
1
1000
auto
  0
XRECORD
  5
1C3
330
1A9
100
AcDbXrecord
280
1
1000
auto
  0
XRECORD
  5
1C4
330
1A9
100
AcDbXrecord
280
1
1000
auto
  0
XRECORD
  5
1C5
330
1A9
100
AcDbXrecord
280
1
1000
auto
  0
XRECORD
  5
1C6
330
1A9
100
AcDbXrecord
280
1
1000
auto
  0
XRECORD
  5
1C7
330
1A9
100
AcDbXrecord
280
1
1000
auto
  0
XRECORD
  5
1C8
330
1A9
100
AcDbXrecord
280
1
1000
auto
  0
XRECORD
  5
1C9
330
1A9
100
AcDbXrecord
280
1
1000
auto
  0
XRECORD
  5
1CA
330
1A9
100
AcDbXrecord
280
1
 90
1
  0
XRECORD
  5
1CB
330
1A9
100
AcDbXrecord
280
1
 40
0.5
  0
XRECORD
  5
1CC
330
1A9
100
AcDbXrecord
280
1
 40
0.5
  0
XRECORD
  5
1CD
330
1A9
100
AcDbXrecord
280
1
 40
0.5
  0
XRECORD
  5
1CE
330
1A9
100
AcDbXrecord
280
1
 40
0.5
  0
XRECORD
  5
1CF
330
1A9
100
AcDbXrecord
280
1
290
0
  0
XRECORD
  5
1D0
330
1A9
100
AcDbXrecord
280
1
 90
1
  0
XRECORD
  5
1D1
330
1A9
100
AcDbXrecord
280
1
 40
0.0
  0
XRECORD
  5
1D2
330
1A9
100
AcDbXrecord
280
1
 40
0.0
  0
XRECORD
  5
1D3
330
1A9
100
AcDbXrecord
280
1
1000
Portrait
  0
XRECORD
  5
1D4
330
1A9
100
AcDbXrecord
280
1
 40
11.0
  0
XRECORD
  5
1D5
330
1A9
100
AcDbXrecord
280
1
 40
8.5
  0
XRECORD
  5
1D6
330
1A9
100
AcDbXrecord
280
1
1000
1:1
  0
XRECORD
  5
1D7
330
1A9
100
AcDbXrecord
280
1
290
1
  0
XRECORD
  5
1D8
330
1A9
100
AcDbXrecord
280
1
1000
3.15.4
  0
XRECORD
  5
1D9
330
1A9
100
AcDbXrecord
280
1
 90
1
  0
XRECORD
  5
1DB
330
1A9
100
AcDbXrecord
280
1
 40
12.5060532196180567
  0
XRECORD
  5
1DC
330
1A9
100
AcDbXrecord
280
1
 40
21.6857541395851285
  0
ENDSEC
  0
EOF
